<?xml version="1.0" ?><svg id="Layer_1" style="enable-background:new 0 0 177.325 217.971;" version="1.1" viewBox="0 0 177.325 217.971" xml:space="preserve" xmlns="http://www.w3.org/2000/svg" xmlns:xlink="http://www.w3.org/1999/xlink"><g><path d="M115.708,80.114V76.49l50.084-63.537c2.734-3.47,2.139-8.5-1.331-11.235c-3.468-2.735-8.499-2.14-11.235,1.33   l-48.935,62.079h-31.26L24.097,3.048c-2.737-3.471-7.769-4.064-11.235-1.33c-3.47,2.735-4.065,7.765-1.331,11.235l50.085,63.538   v3.622H115.708z"/><path d="M88.662,59.428c12.428,0,22.5-10.073,22.5-22.5c0-12.427-10.072-22.5-22.5-22.5c-12.426,0-22.5,10.073-22.5,22.5   C66.162,49.355,76.237,59.428,88.662,59.428z M102.698,43.479c-2.909,4.711-8.104,7.868-14.035,7.868s-11.126-3.157-14.035-7.868   H102.698z"/><path d="M50.084,217.885c0.49,0.058,0.976,0.086,1.457,0.086c5.834,0,10.903-4.165,12.006-9.949H39.493   C40.469,213.128,44.647,217.241,50.084,217.885z"/><path d="M125.785,217.971c0.481,0,0.968-0.028,1.457-0.086c5.436-0.644,9.615-4.757,10.591-9.863h-24.054   C114.881,213.806,119.951,217.972,125.785,217.971z"/><polygon points="7.333,136.898 12.75,136.898 12.75,217.192 19.25,217.192 19.25,205.022 158.075,205.022 158.075,217.192    164.575,217.192 164.575,136.898 169.992,136.898 169.992,128.064 177.325,128.064 177.325,123.064 0,123.064 0,128.064    7.333,128.064  "/><path d="M117.996,117.064v-33.95H59.329v33.95H117.996z M88.663,99.595c1.381,0,2.5,1.119,2.5,2.5c0,1.381-1.119,2.5-2.5,2.5   c-1.381,0-2.5-1.119-2.5-2.5C86.163,100.714,87.282,99.595,88.663,99.595z"/></g></svg>