<?xml version="1.0" encoding="utf-8"?>
<!-- Generator: Adobe Illustrator 24.2.0, SVG Export Plug-In . SVG Version: 6.00 Build 0)  -->
<svg version="1.1" id="Layer_1" xmlns="http://www.w3.org/2000/svg" xmlns:xlink="http://www.w3.org/1999/xlink" x="0px" y="0px"
	 viewBox="0 0 775 442.3" style="enable-background:new 0 0 775 442.3;" xml:space="preserve">
<style type="text/css">
	.st0{fill:none;stroke:#000000;stroke-width:21;stroke-miterlimit:10;}
</style>
<g>
	<path d="M149.8,209.5l6.1-31.8H209l-7.3,38h-49.8c0,2.8-1.2,5.4-3.2,7.2h41.1h12.9c0.9,0,1.7-0.6,1.9-1.5l8.7-45.3
		c0.2-1.2-0.7-2.3-1.9-2.3h-57.3c-0.9,0-1.7,0.6-1.9,1.5l-6,31.3C147.7,207.3,148.9,208.3,149.8,209.5z"/>
	<path d="M90.3,269.5c-4.1,4.8-13.9,7.5-23.9,8.5v2.1h-4.2v11.7h40.9l4-22.3L90.3,269.5L90.3,269.5z"/>
	<path d="M47.9,309.1v-0.9l-6.5,2v10.1h6.2c-1-1.5-1.6-3.4-1.6-5.4C46,312.8,46.7,310.8,47.9,309.1z"/>
	<path d="M123.8,241.5c4.2,0,8.1,1.8,10.7,5c2.7,3.2,3.8,7.4,3.1,11.4l-6,33.9h115.4v28.5h6.5V240h5.4v-8.8h7.3v-5H104.4v15.3
		L123.8,241.5L123.8,241.5z"/>
	<path d="M47.9,291.9h1.2v-11.7h-4.2V278c-1.1-0.1-2.2-0.3-3.5-0.4v19l6.5-2C47.9,294.6,47.9,291.9,47.9,291.9z"/>
	<path d="M102.7,178.2c0.4,0.5,0.8,1,1.1,1.6l14.9,25.9h7c4.4-4.1,7.1-9.9,7.1-16.4c0-12.4-10.1-22.5-22.5-22.5
		c-6.2,0-11.9,2.5-16,6.7C97.7,173.5,100.8,175.3,102.7,178.2z"/>
	<path d="M82.4,257.6c5.4,0.9,10,2.4,10,6.7c0,0.8-0.1,1.5-0.3,2.2h18.6l-6.9,38.9c-1.1,6,2.9,11.7,8.9,12.8
		c0.7,0.1,1.3,0.2,1.9,0.2c5.2,0,9.9-3.7,10.8-9.1l9.2-51.8c0.6-3.2-0.3-6.5-2.4-9c-2.1-2.5-5.2-3.9-8.4-3.9h-22.3v-34.9l5.5,9.5
		c1.2,2.2,3.6,3.5,6.1,3.5h29c3.9,0,7-3.1,7-7s-3.1-7-7-7H117l-15.8-27.4c-0.3-0.5-0.6-0.9-0.9-1.3c-1.4-2.2-3.8-3.7-6.6-3.7H63.9
		L82.4,257.6z"/>
	<path d="M21.6,261.9c0.2,1.3,0.7,2.5,1.5,3.5c1.5,4.5,12.1,8.1,25.8,9v1.8h4.2v21.1l-29.2,9v3.7c-1.9,0.9-3.2,2.8-3.2,5.1
		c0,3.1,2.5,5.7,5.7,5.7c3.1,0,5.7-2.5,5.7-5.7c0-2.2-1.3-4.1-3.2-5.1l24.2-7.5v7.5c-1.9,0.9-3.2,2.8-3.2,5.1c0,3.1,2.5,5.7,5.7,5.7
		c3.1,0,5.7-2.5,5.7-5.7c0-2.2-1.3-4.2-3.2-5.1v-7.5l24.2,7.5c-1.9,0.9-3.2,2.8-3.2,5.1c0,3.1,2.5,5.7,5.7,5.7
		c3.1,0,5.7-2.5,5.7-5.7c0-2.2-1.3-4.2-3.2-5.1v-3.7l-29.2-9v-21.1h4.2v-1.8c14.8-1,26-5.1,26-10.1c0-1.4-3.8-2.4-9.5-3.1
		c0-0.5,0-1.1-0.1-1.6l-21.5-94.3c-0.6-3.7-3.8-6.4-7.5-6.4H7.6c-4.7,0-8.2,4.2-7.5,8.8L21.6,261.9z"/>
	<path d="M82.7,118.9c6.7,0.6,13.5,1.6,20.3,2.5c-2.6,0.6-5.2,1.2-7.7,1.8l-0.1,0c-0.7,0.2-1.3,0.8-1.5,1.5
		c-0.2,1.1,0.5,2.1,1.6,2.3c3.8,0.7,7.7,1.3,11.5,1.6c-0.2,0.1-0.4,0.1-0.6,0.2c-0.7,0.3-1.5,1-1.8,1.9c-0.3,0.8-0.3,1.6-0.3,2.2
		l0.6,13.9c0.8,18.3,1.6,18.3,1.6,0l0-14c0-0.6,0-1,0.2-1.2c0.1-0.2,0.2-0.3,0.6-0.5c0.8-0.3,2-0.5,3.1-0.7l6.8-1.4
		c0.7-0.1,1.2-0.7,1.2-1.4c0-0.8-0.6-1.5-1.4-1.5l-0.1,0c-3.3-0.1-6.7-0.4-10-0.9c5.6-0.9,11.2-1.6,16.9-2.2
		c1.3-0.1,2.3-1.2,2.4-2.5c0.1-1.5-1-2.7-2.5-2.8l-0.1,0c-5.8-0.3-11.5-1.2-17.3-2.2c7.5-0.8,15.1-1.4,22.7-2.1
		c2.1-0.2,3.9-1.8,4.3-4c0.4-2.6-1.3-5-3.9-5.5l-0.2,0l-5.1-0.8c-9.2-1.4-17.7-1.7-23.9-1.1c-3.1,0.3-5.7,0.9-7.4,1.7
		c-1.7,0.7-2.6,1.6-2.5,2.4c0.2,1.1,2.1,1.9,5.4,2.6c-4.5,0.8-8.9,1.8-13.4,2.9l-0.2,0c-1.5,0.4-2.6,1.6-2.7,3.2
		C79.2,117,80.7,118.7,82.7,118.9z"/>
</g>
<g>
	<path d="M412.2,182.8v-3.6l50.1-63.5c2.7-3.5,2.1-8.5-1.3-11.2c-3.5-2.7-8.5-2.1-11.2,1.3l-48.9,62.1h-31.3l-48.9-62.1
		c-2.7-3.5-7.8-4.1-11.2-1.3c-3.5,2.7-4.1,7.8-1.3,11.2l50.1,63.5v3.6L412.2,182.8L412.2,182.8z"/>
	<path d="M385.1,162.1c12.4,0,22.5-10.1,22.5-22.5s-10.1-22.5-22.5-22.5c-12.4,0-22.5,10.1-22.5,22.5
		C362.6,152,372.7,162.1,385.1,162.1z M399.1,146.1c-2.9,4.7-8.1,7.9-14,7.9s-11.1-3.2-14-7.9H399.1z"/>
	<path d="M346.5,320.5c0.5,0.1,1,0.1,1.5,0.1c5.8,0,10.9-4.2,12-9.9h-24.1C336.9,315.8,341.1,319.9,346.5,320.5z"/>
	<path d="M422.2,320.6c0.5,0,1,0,1.5-0.1c5.4-0.6,9.6-4.8,10.6-9.9h-24.1C411.3,316.5,416.4,320.6,422.2,320.6z"/>
	<polygon points="303.8,239.6 309.2,239.6 309.2,319.9 315.7,319.9 315.7,307.7 454.5,307.7 454.5,319.9 461,319.9 461,239.6 
		466.4,239.6 466.4,230.7 473.8,230.7 473.8,225.7 296.5,225.7 296.5,230.7 303.8,230.7 	"/>
	<path d="M414.4,219.7v-34h-58.7v33.9C355.8,219.7,414.4,219.7,414.4,219.7z M385.1,202.3c1.4,0,2.5,1.1,2.5,2.5s-1.1,2.5-2.5,2.5
		c-1.4,0-2.5-1.1-2.5-2.5S383.7,202.3,385.1,202.3z"/>
</g>
<g>
	<line x1="245.4" y1="190.2" x2="311.9" y2="190.2"/>
	<g>
		<line class="st0" x1="245.4" y1="190.2" x2="287.6" y2="190.2"/>
		<g>
			<polygon points="283.8,162.2 283.8,218.3 311.9,190.2 			"/>
		</g>
	</g>
</g>
</svg>
