%TF.GenerationSoftware,KiCad,Pcbnew,(5.99.0-6632-gb710573c5)*%
%TF.CreationDate,2020-12-08T22:19:28-05:00*%
%TF.ProjectId,zoom_pad,7a6f6f6d-5f70-4616-942e-6b696361645f,rev?*%
%TF.SameCoordinates,Original*%
%TF.FileFunction,Legend,Bot*%
%TF.FilePolarity,Positive*%
%FSLAX46Y46*%
G04 Gerber Fmt 4.6, Leading zero omitted, Abs format (unit mm)*
G04 Created by KiCad (PCBNEW (5.99.0-6632-gb710573c5)) date 2020-12-08 22:19:28*
%MOMM*%
%LPD*%
G01*
G04 APERTURE LIST*
%ADD10C,0.150000*%
%ADD11C,0.120000*%
G04 APERTURE END LIST*
D10*
%TO.C,R2*%
X172952380Y-93333333D02*
X172476190Y-93000000D01*
X172952380Y-92761904D02*
X171952380Y-92761904D01*
X171952380Y-93142857D01*
X172000000Y-93238095D01*
X172047619Y-93285714D01*
X172142857Y-93333333D01*
X172285714Y-93333333D01*
X172380952Y-93285714D01*
X172428571Y-93238095D01*
X172476190Y-93142857D01*
X172476190Y-92761904D01*
X172047619Y-93714285D02*
X172000000Y-93761904D01*
X171952380Y-93857142D01*
X171952380Y-94095238D01*
X172000000Y-94190476D01*
X172047619Y-94238095D01*
X172142857Y-94285714D01*
X172238095Y-94285714D01*
X172380952Y-94238095D01*
X172952380Y-93666666D01*
X172952380Y-94285714D01*
%TO.C,BT1*%
X154546428Y-105267142D02*
X153403571Y-105267142D01*
X154546428Y-90277142D02*
X153403571Y-90277142D01*
X153975000Y-90848571D02*
X153975000Y-89705714D01*
X134381428Y-105267142D02*
X133238571Y-105267142D01*
X112791428Y-105267142D02*
X111648571Y-105267142D01*
X112220000Y-105838571D02*
X112220000Y-104695714D01*
X134381428Y-90277142D02*
X133238571Y-90277142D01*
X133810000Y-90848571D02*
X133810000Y-89705714D01*
X112791428Y-90277142D02*
X111648571Y-90277142D01*
%TO.C,R4*%
X159666666Y-101952380D02*
X160000000Y-101476190D01*
X160238095Y-101952380D02*
X160238095Y-100952380D01*
X159857142Y-100952380D01*
X159761904Y-101000000D01*
X159714285Y-101047619D01*
X159666666Y-101142857D01*
X159666666Y-101285714D01*
X159714285Y-101380952D01*
X159761904Y-101428571D01*
X159857142Y-101476190D01*
X160238095Y-101476190D01*
X158809523Y-101285714D02*
X158809523Y-101952380D01*
X159047619Y-100904761D02*
X159285714Y-101619047D01*
X158666666Y-101619047D01*
%TO.C,R3*%
X159666666Y-104952380D02*
X160000000Y-104476190D01*
X160238095Y-104952380D02*
X160238095Y-103952380D01*
X159857142Y-103952380D01*
X159761904Y-104000000D01*
X159714285Y-104047619D01*
X159666666Y-104142857D01*
X159666666Y-104285714D01*
X159714285Y-104380952D01*
X159761904Y-104428571D01*
X159857142Y-104476190D01*
X160238095Y-104476190D01*
X159333333Y-103952380D02*
X158714285Y-103952380D01*
X159047619Y-104333333D01*
X158904761Y-104333333D01*
X158809523Y-104380952D01*
X158761904Y-104428571D01*
X158714285Y-104523809D01*
X158714285Y-104761904D01*
X158761904Y-104857142D01*
X158809523Y-104904761D01*
X158904761Y-104952380D01*
X159190476Y-104952380D01*
X159285714Y-104904761D01*
X159333333Y-104857142D01*
%TO.C,R1*%
X159666666Y-94952380D02*
X160000000Y-94476190D01*
X160238095Y-94952380D02*
X160238095Y-93952380D01*
X159857142Y-93952380D01*
X159761904Y-94000000D01*
X159714285Y-94047619D01*
X159666666Y-94142857D01*
X159666666Y-94285714D01*
X159714285Y-94380952D01*
X159761904Y-94428571D01*
X159857142Y-94476190D01*
X160238095Y-94476190D01*
X158714285Y-94952380D02*
X159285714Y-94952380D01*
X159000000Y-94952380D02*
X159000000Y-93952380D01*
X159095238Y-94095238D01*
X159190476Y-94190476D01*
X159285714Y-94238095D01*
%TO.C,Q2*%
X160047619Y-97904761D02*
X160000000Y-97809523D01*
X159904761Y-97714285D01*
X159761904Y-97571428D01*
X159714285Y-97476190D01*
X159714285Y-97380952D01*
X159952380Y-97428571D02*
X159904761Y-97333333D01*
X159809523Y-97238095D01*
X159619047Y-97190476D01*
X159285714Y-97190476D01*
X159095238Y-97238095D01*
X159000000Y-97333333D01*
X158952380Y-97428571D01*
X158952380Y-97619047D01*
X159000000Y-97714285D01*
X159095238Y-97809523D01*
X159285714Y-97857142D01*
X159619047Y-97857142D01*
X159809523Y-97809523D01*
X159904761Y-97714285D01*
X159952380Y-97619047D01*
X159952380Y-97428571D01*
X159047619Y-98238095D02*
X159000000Y-98285714D01*
X158952380Y-98380952D01*
X158952380Y-98619047D01*
X159000000Y-98714285D01*
X159047619Y-98761904D01*
X159142857Y-98809523D01*
X159238095Y-98809523D01*
X159380952Y-98761904D01*
X159952380Y-98190476D01*
X159952380Y-98809523D01*
%TO.C,Q1*%
X166895238Y-91247619D02*
X166990476Y-91200000D01*
X167085714Y-91104761D01*
X167228571Y-90961904D01*
X167323809Y-90914285D01*
X167419047Y-90914285D01*
X167371428Y-91152380D02*
X167466666Y-91104761D01*
X167561904Y-91009523D01*
X167609523Y-90819047D01*
X167609523Y-90485714D01*
X167561904Y-90295238D01*
X167466666Y-90200000D01*
X167371428Y-90152380D01*
X167180952Y-90152380D01*
X167085714Y-90200000D01*
X166990476Y-90295238D01*
X166942857Y-90485714D01*
X166942857Y-90819047D01*
X166990476Y-91009523D01*
X167085714Y-91104761D01*
X167180952Y-91152380D01*
X167371428Y-91152380D01*
X165990476Y-91152380D02*
X166561904Y-91152380D01*
X166276190Y-91152380D02*
X166276190Y-90152380D01*
X166371428Y-90295238D01*
X166466666Y-90390476D01*
X166561904Y-90438095D01*
%TO.C,JP1*%
X68747619Y-112983333D02*
X68033333Y-112983333D01*
X67890476Y-113030952D01*
X67795238Y-113126190D01*
X67747619Y-113269047D01*
X67747619Y-113364285D01*
X67747619Y-112507142D02*
X68747619Y-112507142D01*
X68747619Y-112126190D01*
X68700000Y-112030952D01*
X68652380Y-111983333D01*
X68557142Y-111935714D01*
X68414285Y-111935714D01*
X68319047Y-111983333D01*
X68271428Y-112030952D01*
X68223809Y-112126190D01*
X68223809Y-112507142D01*
X67747619Y-110983333D02*
X67747619Y-111554761D01*
X67747619Y-111269047D02*
X68747619Y-111269047D01*
X68604761Y-111364285D01*
X68509523Y-111459523D01*
X68461904Y-111554761D01*
%TO.C,J2*%
X81105333Y-116640380D02*
X81105333Y-117354666D01*
X81152952Y-117497523D01*
X81248190Y-117592761D01*
X81391047Y-117640380D01*
X81486285Y-117640380D01*
X80676761Y-116735619D02*
X80629142Y-116688000D01*
X80533904Y-116640380D01*
X80295809Y-116640380D01*
X80200571Y-116688000D01*
X80152952Y-116735619D01*
X80105333Y-116830857D01*
X80105333Y-116926095D01*
X80152952Y-117068952D01*
X80724380Y-117640380D01*
X80105333Y-117640380D01*
%TO.C,D1*%
X170052380Y-97261904D02*
X169052380Y-97261904D01*
X169052380Y-97500000D01*
X169100000Y-97642857D01*
X169195238Y-97738095D01*
X169290476Y-97785714D01*
X169480952Y-97833333D01*
X169623809Y-97833333D01*
X169814285Y-97785714D01*
X169909523Y-97738095D01*
X170004761Y-97642857D01*
X170052380Y-97500000D01*
X170052380Y-97261904D01*
X170052380Y-98785714D02*
X170052380Y-98214285D01*
X170052380Y-98500000D02*
X169052380Y-98500000D01*
X169195238Y-98404761D01*
X169290476Y-98309523D01*
X169338095Y-98214285D01*
%TO.C,C1*%
X159666666Y-92357142D02*
X159714285Y-92404761D01*
X159857142Y-92452380D01*
X159952380Y-92452380D01*
X160095238Y-92404761D01*
X160190476Y-92309523D01*
X160238095Y-92214285D01*
X160285714Y-92023809D01*
X160285714Y-91880952D01*
X160238095Y-91690476D01*
X160190476Y-91595238D01*
X160095238Y-91500000D01*
X159952380Y-91452380D01*
X159857142Y-91452380D01*
X159714285Y-91500000D01*
X159666666Y-91547619D01*
X158714285Y-92452380D02*
X159285714Y-92452380D01*
X159000000Y-92452380D02*
X159000000Y-91452380D01*
X159095238Y-91595238D01*
X159190476Y-91690476D01*
X159285714Y-91738095D01*
D11*
%TO.C,R2*%
X171235000Y-93272936D02*
X171235000Y-93727064D01*
X169765000Y-93272936D02*
X169765000Y-93727064D01*
%TO.C,BT1*%
X100790000Y-112955000D02*
X100790000Y-110415000D01*
X94415000Y-112955000D02*
X100790000Y-112955000D01*
X94415000Y-82375000D02*
X94415000Y-112955000D01*
X100790000Y-82375000D02*
X100790000Y-84915000D01*
X94415000Y-82375000D02*
X100790000Y-82375000D01*
X145240000Y-110415000D02*
X132540000Y-110415000D01*
X145240000Y-112955000D02*
X145240000Y-110415000D01*
X151585000Y-112955000D02*
X145240000Y-112955000D01*
X151585000Y-82375000D02*
X151585000Y-112955000D01*
X145240000Y-82375000D02*
X151585000Y-82375000D01*
X145240000Y-84915000D02*
X145240000Y-82375000D01*
X145240000Y-84915000D02*
X132540000Y-84915000D01*
X100790000Y-110415000D02*
X113490000Y-110415000D01*
X132540000Y-82375000D02*
X132540000Y-84915000D01*
X113490000Y-82375000D02*
X132540000Y-82375000D01*
X113490000Y-84915000D02*
X113490000Y-82375000D01*
X100790000Y-84915000D02*
X113490000Y-84915000D01*
X113490000Y-112955000D02*
X113490000Y-110415000D01*
X132540000Y-112955000D02*
X113490000Y-112955000D01*
X132540000Y-110415000D02*
X132540000Y-112955000D01*
X94415000Y-97919000D02*
X151585000Y-97919000D01*
X151585000Y-97411000D02*
X94415000Y-97411000D01*
X113490000Y-87630000D02*
X113490000Y-88900000D01*
X131270000Y-87630000D02*
X113490000Y-87630000D01*
X131270000Y-88900000D02*
X131270000Y-87630000D01*
X132540000Y-88900000D02*
X131270000Y-88900000D01*
X132540000Y-91440000D02*
X132540000Y-88900000D01*
X131270000Y-91440000D02*
X132540000Y-91440000D01*
X131270000Y-92710000D02*
X131270000Y-91440000D01*
X113490000Y-92710000D02*
X131270000Y-92710000D01*
X113490000Y-88900000D02*
X113490000Y-92710000D01*
X114760000Y-107700000D02*
X132540000Y-107700000D01*
X114760000Y-106430000D02*
X114760000Y-107700000D01*
X113490000Y-106430000D02*
X114760000Y-106430000D01*
X113490000Y-103890000D02*
X113490000Y-106430000D01*
X114760000Y-103890000D02*
X113490000Y-103890000D01*
X114760000Y-102620000D02*
X114760000Y-103890000D01*
X132540000Y-102620000D02*
X114760000Y-102620000D01*
X132540000Y-107700000D02*
X132540000Y-102620000D01*
X93145000Y-81105000D02*
X152855000Y-81105000D01*
X152855000Y-81105000D02*
X152855000Y-114225000D01*
X152855000Y-114225000D02*
X93145000Y-114225000D01*
X93145000Y-114225000D02*
X93145000Y-81105000D01*
%TO.C,U1*%
X91940000Y-95055000D02*
X92320000Y-95055000D01*
X91940000Y-88635000D02*
X91940000Y-95055000D01*
X73700000Y-88635000D02*
X73700000Y-95055000D01*
X91940000Y-88635000D02*
X73700000Y-88635000D01*
X73700000Y-114380000D02*
X74700000Y-114380000D01*
X73700000Y-113600000D02*
X73700000Y-114380000D01*
X91940000Y-114380000D02*
X90940000Y-114380000D01*
X91940000Y-113600000D02*
X91940000Y-114380000D01*
%TO.C,R4*%
X162272936Y-100765000D02*
X162727064Y-100765000D01*
X162272936Y-102235000D02*
X162727064Y-102235000D01*
%TO.C,R3*%
X162272936Y-103765000D02*
X162727064Y-103765000D01*
X162272936Y-105235000D02*
X162727064Y-105235000D01*
%TO.C,R1*%
X162727064Y-95235000D02*
X162272936Y-95235000D01*
X162727064Y-93765000D02*
X162272936Y-93765000D01*
%TO.C,Q2*%
X160920000Y-97240000D02*
X160920000Y-98700000D01*
X164080000Y-97240000D02*
X164080000Y-99400000D01*
X164080000Y-97240000D02*
X163150000Y-97240000D01*
X160920000Y-97240000D02*
X161850000Y-97240000D01*
%TO.C,Q1*%
X167760000Y-91920000D02*
X166300000Y-91920000D01*
X167760000Y-95080000D02*
X165600000Y-95080000D01*
X167760000Y-95080000D02*
X167760000Y-94150000D01*
X167760000Y-91920000D02*
X167760000Y-92850000D01*
%TO.C,JP1*%
X69000000Y-111450000D02*
X69000000Y-112850000D01*
X69700000Y-113550000D02*
X70300000Y-113550000D01*
X71000000Y-112850000D02*
X71000000Y-111450000D01*
X70300000Y-110750000D02*
X69700000Y-110750000D01*
X69700000Y-110750000D02*
G75*
G03*
X69000000Y-111450000I0J-700000D01*
G01*
X71000000Y-111450000D02*
G75*
G03*
X70300000Y-110750000I-700000J0D01*
G01*
X70300000Y-113550000D02*
G75*
G03*
X71000000Y-112850000I0J700000D01*
G01*
X69000000Y-112850000D02*
G75*
G03*
X69700000Y-113550000I700000J0D01*
G01*
%TO.C,J2*%
X79502000Y-118618000D02*
X78867000Y-118618000D01*
X78867000Y-118618000D02*
X78867000Y-119253000D01*
%TO.C,D1*%
X167760000Y-96420000D02*
X166300000Y-96420000D01*
X167760000Y-99580000D02*
X165600000Y-99580000D01*
X167760000Y-99580000D02*
X167760000Y-98650000D01*
X167760000Y-96420000D02*
X167760000Y-97350000D01*
%TO.C,C1*%
X162238748Y-91265000D02*
X162761252Y-91265000D01*
X162238748Y-92735000D02*
X162761252Y-92735000D01*
%TD*%
M02*
