%TF.GenerationSoftware,KiCad,Pcbnew,(5.99.0-6632-gb710573c5)*%
%TF.CreationDate,2020-12-08T22:19:28-05:00*%
%TF.ProjectId,zoom_pad,7a6f6f6d-5f70-4616-942e-6b696361645f,rev?*%
%TF.SameCoordinates,Original*%
%TF.FileFunction,Copper,L2,Bot*%
%TF.FilePolarity,Positive*%
%FSLAX46Y46*%
G04 Gerber Fmt 4.6, Leading zero omitted, Abs format (unit mm)*
G04 Created by KiCad (PCBNEW (5.99.0-6632-gb710573c5)) date 2020-12-08 22:19:28*
%MOMM*%
%LPD*%
G01*
G04 APERTURE LIST*
G04 Aperture macros list*
%AMRoundRect*
0 Rectangle with rounded corners*
0 $1 Rounding radius*
0 $2 $3 $4 $5 $6 $7 $8 $9 X,Y pos of 4 corners*
0 Add a 4 corners polygon primitive as box body*
4,1,4,$2,$3,$4,$5,$6,$7,$8,$9,$2,$3,0*
0 Add four circle primitives for the rounded corners*
1,1,$1+$1,$2,$3,0*
1,1,$1+$1,$4,$5,0*
1,1,$1+$1,$6,$7,0*
1,1,$1+$1,$8,$9,0*
0 Add four rect primitives between the rounded corners*
20,1,$1+$1,$2,$3,$4,$5,0*
20,1,$1+$1,$4,$5,$6,$7,0*
20,1,$1+$1,$6,$7,$8,$9,0*
20,1,$1+$1,$8,$9,$2,$3,0*%
G04 Aperture macros list end*
%ADD10C,0.300000*%
%TA.AperFunction,ComponentPad*%
%ADD11C,2.250000*%
%TD*%
%TA.AperFunction,SMDPad,CuDef*%
%ADD12RoundRect,0.250000X-0.450000X0.262500X-0.450000X-0.262500X0.450000X-0.262500X0.450000X0.262500X0*%
%TD*%
%TA.AperFunction,ComponentPad*%
%ADD13C,2.000000*%
%TD*%
%TA.AperFunction,ComponentPad*%
%ADD14R,2.000000X2.000000*%
%TD*%
%TA.AperFunction,SMDPad,CuDef*%
%ADD15R,2.000000X0.900000*%
%TD*%
%TA.AperFunction,SMDPad,CuDef*%
%ADD16R,0.900000X2.000000*%
%TD*%
%TA.AperFunction,SMDPad,CuDef*%
%ADD17R,5.000000X5.000000*%
%TD*%
%TA.AperFunction,ComponentPad*%
%ADD18C,1.500000*%
%TD*%
%TA.AperFunction,ComponentPad*%
%ADD19O,3.200000X2.400000*%
%TD*%
%TA.AperFunction,SMDPad,CuDef*%
%ADD20RoundRect,0.250000X-0.262500X-0.450000X0.262500X-0.450000X0.262500X0.450000X-0.262500X0.450000X0*%
%TD*%
%TA.AperFunction,SMDPad,CuDef*%
%ADD21RoundRect,0.250000X0.262500X0.450000X-0.262500X0.450000X-0.262500X-0.450000X0.262500X-0.450000X0*%
%TD*%
%TA.AperFunction,SMDPad,CuDef*%
%ADD22R,0.800000X0.900000*%
%TD*%
%TA.AperFunction,SMDPad,CuDef*%
%ADD23R,0.900000X0.800000*%
%TD*%
%TA.AperFunction,ConnectorPad*%
%ADD24C,0.787400*%
%TD*%
%TA.AperFunction,ComponentPad*%
%ADD25C,6.000000*%
%TD*%
%TA.AperFunction,SMDPad,CuDef*%
%ADD26RoundRect,0.250000X-0.250000X-0.475000X0.250000X-0.475000X0.250000X0.475000X-0.250000X0.475000X0*%
%TD*%
%TA.AperFunction,ViaPad*%
%ADD27C,0.800000*%
%TD*%
%TA.AperFunction,ViaPad*%
%ADD28C,1.500000*%
%TD*%
%TA.AperFunction,Conductor*%
%ADD29C,0.508000*%
%TD*%
%TA.AperFunction,Conductor*%
%ADD30C,0.457200*%
%TD*%
%TA.AperFunction,Conductor*%
%ADD31C,0.304800*%
%TD*%
G04 APERTURE END LIST*
D10*
X172064285Y-109971071D02*
X172778571Y-109971071D01*
X172778571Y-108471071D01*
X170921428Y-108971071D02*
X170921428Y-109971071D01*
X171564285Y-108971071D02*
X171564285Y-109756785D01*
X171492857Y-109899642D01*
X171350000Y-109971071D01*
X171135714Y-109971071D01*
X170992857Y-109899642D01*
X170921428Y-109828214D01*
X170278571Y-109899642D02*
X170135714Y-109971071D01*
X169850000Y-109971071D01*
X169707142Y-109899642D01*
X169635714Y-109756785D01*
X169635714Y-109685357D01*
X169707142Y-109542500D01*
X169850000Y-109471071D01*
X170064285Y-109471071D01*
X170207142Y-109399642D01*
X170278571Y-109256785D01*
X170278571Y-109185357D01*
X170207142Y-109042500D01*
X170064285Y-108971071D01*
X169850000Y-108971071D01*
X169707142Y-109042500D01*
X169207142Y-108971071D02*
X168635714Y-108971071D01*
X168992857Y-108471071D02*
X168992857Y-109756785D01*
X168921428Y-109899642D01*
X168778571Y-109971071D01*
X168635714Y-109971071D01*
X168135714Y-109971071D02*
X168135714Y-108971071D01*
X168135714Y-108471071D02*
X168207142Y-108542500D01*
X168135714Y-108613928D01*
X168064285Y-108542500D01*
X168135714Y-108471071D01*
X168135714Y-108613928D01*
X166778571Y-108971071D02*
X166778571Y-110185357D01*
X166850000Y-110328214D01*
X166921428Y-110399642D01*
X167064285Y-110471071D01*
X167278571Y-110471071D01*
X167421428Y-110399642D01*
X166778571Y-109899642D02*
X166921428Y-109971071D01*
X167207142Y-109971071D01*
X167350000Y-109899642D01*
X167421428Y-109828214D01*
X167492857Y-109685357D01*
X167492857Y-109256785D01*
X167421428Y-109113928D01*
X167350000Y-109042500D01*
X167207142Y-108971071D01*
X166921428Y-108971071D01*
X166778571Y-109042500D01*
X164207142Y-109971071D02*
X164921428Y-109971071D01*
X164921428Y-108471071D01*
X163064285Y-109971071D02*
X163064285Y-109185357D01*
X163135714Y-109042500D01*
X163278571Y-108971071D01*
X163564285Y-108971071D01*
X163707142Y-109042500D01*
X163064285Y-109899642D02*
X163207142Y-109971071D01*
X163564285Y-109971071D01*
X163707142Y-109899642D01*
X163778571Y-109756785D01*
X163778571Y-109613928D01*
X163707142Y-109471071D01*
X163564285Y-109399642D01*
X163207142Y-109399642D01*
X163064285Y-109328214D01*
X162350000Y-109971071D02*
X162350000Y-108471071D01*
X162350000Y-109042500D02*
X162207142Y-108971071D01*
X161921428Y-108971071D01*
X161778571Y-109042500D01*
X161707142Y-109113928D01*
X161635714Y-109256785D01*
X161635714Y-109685357D01*
X161707142Y-109828214D01*
X161778571Y-109899642D01*
X161921428Y-109971071D01*
X162207142Y-109971071D01*
X162350000Y-109899642D01*
X161135714Y-108971071D02*
X160850000Y-109971071D01*
X160564285Y-109256785D01*
X160278571Y-109971071D01*
X159992857Y-108971071D01*
X159207142Y-109971071D02*
X159350000Y-109899642D01*
X159421428Y-109828214D01*
X159492857Y-109685357D01*
X159492857Y-109256785D01*
X159421428Y-109113928D01*
X159350000Y-109042500D01*
X159207142Y-108971071D01*
X158992857Y-108971071D01*
X158850000Y-109042500D01*
X158778571Y-109113928D01*
X158707142Y-109256785D01*
X158707142Y-109685357D01*
X158778571Y-109828214D01*
X158850000Y-109899642D01*
X158992857Y-109971071D01*
X159207142Y-109971071D01*
X158064285Y-109971071D02*
X158064285Y-108971071D01*
X158064285Y-109256785D02*
X157992857Y-109113928D01*
X157921428Y-109042500D01*
X157778571Y-108971071D01*
X157635714Y-108971071D01*
X157135714Y-109971071D02*
X157135714Y-108471071D01*
X156992857Y-109399642D02*
X156564285Y-109971071D01*
X156564285Y-108971071D02*
X157135714Y-109542500D01*
X155992857Y-109899642D02*
X155850000Y-109971071D01*
X155564285Y-109971071D01*
X155421428Y-109899642D01*
X155350000Y-109756785D01*
X155350000Y-109685357D01*
X155421428Y-109542500D01*
X155564285Y-109471071D01*
X155778571Y-109471071D01*
X155921428Y-109399642D01*
X155992857Y-109256785D01*
X155992857Y-109185357D01*
X155921428Y-109042500D01*
X155778571Y-108971071D01*
X155564285Y-108971071D01*
X155421428Y-109042500D01*
X169207142Y-112386071D02*
X169207142Y-110886071D01*
X168850000Y-110886071D01*
X168635714Y-110957500D01*
X168492857Y-111100357D01*
X168421428Y-111243214D01*
X168350000Y-111528928D01*
X168350000Y-111743214D01*
X168421428Y-112028928D01*
X168492857Y-112171785D01*
X168635714Y-112314642D01*
X168850000Y-112386071D01*
X169207142Y-112386071D01*
X167135714Y-112314642D02*
X167278571Y-112386071D01*
X167564285Y-112386071D01*
X167707142Y-112314642D01*
X167778571Y-112171785D01*
X167778571Y-111600357D01*
X167707142Y-111457500D01*
X167564285Y-111386071D01*
X167278571Y-111386071D01*
X167135714Y-111457500D01*
X167064285Y-111600357D01*
X167064285Y-111743214D01*
X167778571Y-111886071D01*
X165778571Y-112314642D02*
X165921428Y-112386071D01*
X166207142Y-112386071D01*
X166350000Y-112314642D01*
X166421428Y-112243214D01*
X166492857Y-112100357D01*
X166492857Y-111671785D01*
X166421428Y-111528928D01*
X166350000Y-111457500D01*
X166207142Y-111386071D01*
X165921428Y-111386071D01*
X165778571Y-111457500D01*
X164064285Y-111028928D02*
X163992857Y-110957500D01*
X163850000Y-110886071D01*
X163492857Y-110886071D01*
X163350000Y-110957500D01*
X163278571Y-111028928D01*
X163207142Y-111171785D01*
X163207142Y-111314642D01*
X163278571Y-111528928D01*
X164135714Y-112386071D01*
X163207142Y-112386071D01*
X162278571Y-110886071D02*
X162135714Y-110886071D01*
X161992857Y-110957500D01*
X161921428Y-111028928D01*
X161850000Y-111171785D01*
X161778571Y-111457500D01*
X161778571Y-111814642D01*
X161850000Y-112100357D01*
X161921428Y-112243214D01*
X161992857Y-112314642D01*
X162135714Y-112386071D01*
X162278571Y-112386071D01*
X162421428Y-112314642D01*
X162492857Y-112243214D01*
X162564285Y-112100357D01*
X162635714Y-111814642D01*
X162635714Y-111457500D01*
X162564285Y-111171785D01*
X162492857Y-111028928D01*
X162421428Y-110957500D01*
X162278571Y-110886071D01*
X161207142Y-111028928D02*
X161135714Y-110957500D01*
X160992857Y-110886071D01*
X160635714Y-110886071D01*
X160492857Y-110957500D01*
X160421428Y-111028928D01*
X160350000Y-111171785D01*
X160350000Y-111314642D01*
X160421428Y-111528928D01*
X161278571Y-112386071D01*
X160350000Y-112386071D01*
X159421428Y-110886071D02*
X159278571Y-110886071D01*
X159135714Y-110957500D01*
X159064285Y-111028928D01*
X158992857Y-111171785D01*
X158921428Y-111457500D01*
X158921428Y-111814642D01*
X158992857Y-112100357D01*
X159064285Y-112243214D01*
X159135714Y-112314642D01*
X159278571Y-112386071D01*
X159421428Y-112386071D01*
X159564285Y-112314642D01*
X159635714Y-112243214D01*
X159707142Y-112100357D01*
X159778571Y-111814642D01*
X159778571Y-111457500D01*
X159707142Y-111171785D01*
X159635714Y-111028928D01*
X159564285Y-110957500D01*
X159421428Y-110886071D01*
D11*
%TO.P,S2,4,out2*%
%TO.N,GND*%
X115083333Y-122500000D03*
%TO.P,S2,3,out1*%
X102583333Y-122500000D03*
%TO.P,S2,2,in2*%
%TO.N,N/C*%
X115083333Y-117500000D03*
%TO.P,S2,1,in1*%
%TO.N,Net-(U1-Pad30)*%
X102583333Y-117500000D03*
%TD*%
D12*
%TO.P,R2,2*%
%TO.N,/VIN*%
X170500000Y-94412500D03*
%TO.P,R2,1*%
%TO.N,Net-(U1-Pad3)*%
X170500000Y-92587500D03*
%TD*%
D13*
%TO.P,BT1,2,-*%
%TO.N,N/C*%
X150165000Y-105160000D03*
D14*
%TO.P,BT1,1,+*%
%TO.N,/VBATT*%
X150165000Y-90170000D03*
%TD*%
D15*
%TO.P,U1,38,GND*%
%TO.N,GND*%
X74320000Y-96245000D03*
%TO.P,U1,37,IO23*%
%TO.N,N/C*%
X74320000Y-97515000D03*
%TO.P,U1,36,IO22*%
X74320000Y-98785000D03*
%TO.P,U1,35,TXD0/IO1*%
X74320000Y-100055000D03*
%TO.P,U1,34,RXD0/IO3*%
X74320000Y-101325000D03*
%TO.P,U1,33,IO21*%
X74320000Y-102595000D03*
%TO.P,U1,32,NC*%
X74320000Y-103865000D03*
%TO.P,U1,31,IO19*%
%TO.N,Net-(U1-Pad31)*%
X74320000Y-105135000D03*
%TO.P,U1,30,IO18*%
%TO.N,Net-(U1-Pad30)*%
X74320000Y-106405000D03*
%TO.P,U1,29,IO5*%
%TO.N,N/C*%
X74320000Y-107675000D03*
%TO.P,U1,28,IO17*%
%TO.N,Net-(U1-Pad28)*%
X74320000Y-108945000D03*
%TO.P,U1,27,IO16*%
%TO.N,Net-(U1-Pad27)*%
X74320000Y-110215000D03*
%TO.P,U1,26,IO4*%
%TO.N,N/C*%
X74320000Y-111485000D03*
%TO.P,U1,25,IO0*%
X74320000Y-112755000D03*
D16*
%TO.P,U1,24,IO2*%
X77105000Y-113755000D03*
%TO.P,U1,23,IO15*%
%TO.N,/TDO*%
X78375000Y-113755000D03*
%TO.P,U1,22,SDI/SD1*%
%TO.N,N/C*%
X79645000Y-113755000D03*
%TO.P,U1,21,SDO/SD0*%
X80915000Y-113755000D03*
%TO.P,U1,20,SCK/CLK*%
X82185000Y-113755000D03*
%TO.P,U1,19,SCS/CMD*%
X83455000Y-113755000D03*
%TO.P,U1,18,SWP/SD3*%
X84725000Y-113755000D03*
%TO.P,U1,17,SHD/SD2*%
X85995000Y-113755000D03*
%TO.P,U1,16,IO13*%
%TO.N,/TCK*%
X87265000Y-113755000D03*
%TO.P,U1,15,GND*%
%TO.N,GND*%
X88535000Y-113755000D03*
D15*
%TO.P,U1,14,IO12*%
%TO.N,/TDI*%
X91320000Y-112755000D03*
%TO.P,U1,13,IO14*%
%TO.N,/TMS*%
X91320000Y-111485000D03*
%TO.P,U1,12,IO27*%
%TO.N,/GREEN_LED*%
X91320000Y-110215000D03*
%TO.P,U1,11,IO26*%
%TO.N,/RED_LED*%
X91320000Y-108945000D03*
%TO.P,U1,10,IO25*%
%TO.N,/BTN*%
X91320000Y-107675000D03*
%TO.P,U1,9,IO33*%
%TO.N,Net-(SW1-PadB)*%
X91320000Y-106405000D03*
%TO.P,U1,8,IO32*%
%TO.N,Net-(SW1-PadA)*%
X91320000Y-105135000D03*
%TO.P,U1,7,IO35*%
%TO.N,N/C*%
X91320000Y-103865000D03*
%TO.P,U1,6,IO34*%
X91320000Y-102595000D03*
%TO.P,U1,5,SENSOR_VN*%
X91320000Y-101325000D03*
%TO.P,U1,4,SENSOR_VP*%
X91320000Y-100055000D03*
%TO.P,U1,3,EN*%
%TO.N,Net-(U1-Pad3)*%
X91320000Y-98785000D03*
%TO.P,U1,2,VDD*%
%TO.N,/VIN*%
X91320000Y-97515000D03*
%TO.P,U1,1,GND*%
%TO.N,GND*%
X91320000Y-96245000D03*
D17*
%TO.P,U1,39,GND*%
X83820000Y-103745000D03*
%TD*%
D18*
%TO.P,SW1,S4,S4*%
%TO.N,/SW*%
X130000000Y-87170000D03*
%TO.P,SW1,S3,S3*%
%TO.N,/RED_LED*%
X130000000Y-89170000D03*
%TO.P,SW1,S2,S2*%
%TO.N,/GREEN_LED*%
X130000000Y-91170000D03*
%TO.P,SW1,S1,S1*%
%TO.N,GND*%
X130000000Y-93170000D03*
D19*
%TO.P,SW1,MP*%
%TO.N,N/C*%
X123000000Y-84570000D03*
X123000000Y-95770000D03*
D13*
%TO.P,SW1,C,C*%
%TO.N,GND*%
X115500000Y-90170000D03*
%TO.P,SW1,B,B*%
%TO.N,Net-(SW1-PadB)*%
X115500000Y-92670000D03*
D14*
%TO.P,SW1,A,A*%
%TO.N,Net-(SW1-PadA)*%
X115500000Y-87670000D03*
%TD*%
D11*
%TO.P,S4,4,out2*%
%TO.N,GND*%
X171750000Y-122500000D03*
%TO.P,S4,3,out1*%
X159250000Y-122500000D03*
%TO.P,S4,2,in2*%
%TO.N,N/C*%
X171750000Y-117500000D03*
%TO.P,S4,1,in1*%
%TO.N,Net-(U1-Pad27)*%
X159250000Y-117500000D03*
%TD*%
%TO.P,S3,4,out2*%
%TO.N,GND*%
X143416666Y-122500000D03*
%TO.P,S3,3,out1*%
X130916666Y-122500000D03*
%TO.P,S3,2,in2*%
%TO.N,N/C*%
X143416666Y-117500000D03*
%TO.P,S3,1,in1*%
%TO.N,Net-(U1-Pad28)*%
X130916666Y-117500000D03*
%TD*%
%TO.P,S1,4,out2*%
%TO.N,GND*%
X86750000Y-122500000D03*
%TO.P,S1,3,out1*%
X74250000Y-122500000D03*
%TO.P,S1,2,in2*%
%TO.N,N/C*%
X86750000Y-117500000D03*
%TO.P,S1,1,in1*%
%TO.N,Net-(U1-Pad31)*%
X74250000Y-117500000D03*
%TD*%
D20*
%TO.P,R4,2*%
%TO.N,Net-(D1-Pad1)*%
X163412500Y-101500000D03*
%TO.P,R4,1*%
%TO.N,GND*%
X161587500Y-101500000D03*
%TD*%
%TO.P,R3,2*%
%TO.N,Net-(D1-Pad1)*%
X163412500Y-104500000D03*
%TO.P,R3,1*%
%TO.N,/BTN*%
X161587500Y-104500000D03*
%TD*%
D21*
%TO.P,R1,2*%
%TO.N,/VBATT*%
X161587500Y-94500000D03*
%TO.P,R1,1*%
%TO.N,Net-(C1-Pad2)*%
X163412500Y-94500000D03*
%TD*%
D22*
%TO.P,Q2,3,D*%
%TO.N,Net-(C1-Pad2)*%
X162500000Y-97000000D03*
%TO.P,Q2,2,S*%
%TO.N,GND*%
X161550000Y-99000000D03*
%TO.P,Q2,1,G*%
%TO.N,Net-(D1-Pad1)*%
X163450000Y-99000000D03*
%TD*%
D23*
%TO.P,Q1,3,D*%
%TO.N,/VIN*%
X168000000Y-93500000D03*
%TO.P,Q1,2,S*%
%TO.N,/VBATT*%
X166000000Y-92550000D03*
%TO.P,Q1,1,G*%
%TO.N,Net-(C1-Pad2)*%
X166000000Y-94450000D03*
%TD*%
%TA.AperFunction,SMDPad,CuDef*%
%TO.P,JP1,2,B*%
%TO.N,/TDO*%
G36*
X70744959Y-112800000D02*
G01*
X70744508Y-112873905D01*
X70703889Y-113009726D01*
X70626781Y-113128688D01*
X70519384Y-113221226D01*
X70390332Y-113279903D01*
X70249999Y-113300000D01*
X69750000Y-113299999D01*
X69737784Y-113299850D01*
X69597983Y-113276330D01*
X69470404Y-113214518D01*
X69365300Y-113119383D01*
X69291123Y-112998573D01*
X69253834Y-112861800D01*
X69254967Y-112800000D01*
X69250000Y-112800000D01*
X69250001Y-112300000D01*
X70750000Y-112300001D01*
X70750000Y-112800000D01*
X70744959Y-112800000D01*
G37*
%TD.AperFunction*%
%TA.AperFunction,SMDPad,CuDef*%
%TO.P,JP1,1,A*%
%TO.N,GND*%
G36*
X69250000Y-111999999D02*
G01*
X69250000Y-111500000D01*
X69254967Y-111500000D01*
X69256432Y-111420059D01*
X69298707Y-111284744D01*
X69377263Y-111166734D01*
X69485782Y-111075514D01*
X69615541Y-111018419D01*
X69750001Y-111000836D01*
X69750001Y-111000000D01*
X70250000Y-111000001D01*
X70250000Y-111000837D01*
X70256109Y-111000038D01*
X70396186Y-111021849D01*
X70524511Y-111082097D01*
X70630769Y-111175941D01*
X70706417Y-111295836D01*
X70745374Y-111432143D01*
X70744959Y-111500000D01*
X70750000Y-111500000D01*
X70749999Y-112000000D01*
X69250000Y-111999999D01*
G37*
%TD.AperFunction*%
%TD*%
D24*
%TO.P,J2,6,Pin_6*%
%TO.N,/TDI*%
X82042000Y-120523000D03*
%TO.P,J2,5,Pin_5*%
%TO.N,/TDO*%
X82042000Y-119253000D03*
%TO.P,J2,4,Pin_4*%
%TO.N,GND*%
X80772000Y-120523000D03*
%TO.P,J2,3,Pin_3*%
%TO.N,/TCK*%
X80772000Y-119253000D03*
%TO.P,J2,2,Pin_2*%
%TO.N,/TMS*%
X79502000Y-120523000D03*
%TO.P,J2,1,Pin_1*%
%TO.N,/VIN*%
X79502000Y-119253000D03*
%TD*%
D25*
%TO.P,H4,M3*%
%TO.N,N/C*%
X65000000Y-105664000D03*
%TD*%
%TO.P,H3,M3*%
%TO.N,N/C*%
X181000000Y-105664000D03*
%TD*%
D23*
%TO.P,D1,3*%
%TO.N,/SW*%
X168000000Y-98000000D03*
%TO.P,D1,2*%
%TO.N,Net-(C1-Pad2)*%
X166000000Y-97050000D03*
%TO.P,D1,1*%
%TO.N,Net-(D1-Pad1)*%
X166000000Y-98950000D03*
%TD*%
D26*
%TO.P,C1,2*%
%TO.N,Net-(C1-Pad2)*%
X163450000Y-92000000D03*
%TO.P,C1,1*%
%TO.N,/VBATT*%
X161550000Y-92000000D03*
%TD*%
D27*
%TO.N,/TDO*%
X82700000Y-117500000D03*
%TO.N,GND*%
X90800000Y-119600000D03*
X89200000Y-117200000D03*
%TO.N,/VIN*%
X79900000Y-116300000D03*
X89599999Y-115599997D03*
X103400000Y-97500000D03*
X168000000Y-94800000D03*
%TO.N,Net-(U1-Pad3)*%
X101200000Y-98800000D03*
X172300000Y-95800000D03*
%TO.N,Net-(U1-Pad27)*%
X88400000Y-112000000D03*
%TO.N,Net-(U1-Pad28)*%
X87200000Y-110900000D03*
%TO.N,Net-(U1-Pad30)*%
X87200000Y-109300000D03*
%TO.N,/BTN*%
X151500000Y-107600000D03*
X103100000Y-107500000D03*
%TO.N,/TDO*%
X78500000Y-117500000D03*
D28*
%TO.N,GND*%
X85500000Y-102500000D03*
%TD*%
D29*
%TO.N,/TDO*%
X78500000Y-117500000D02*
X78500000Y-113880000D01*
X78500000Y-113880000D02*
X78375000Y-113755000D01*
X82042000Y-119253000D02*
X82042000Y-118158000D01*
X82042000Y-118158000D02*
X82700000Y-117500000D01*
%TO.N,/TCK*%
X80772000Y-119253000D02*
X80772000Y-117928000D01*
X80772000Y-117928000D02*
X82500000Y-116200000D01*
X82500000Y-116200000D02*
X83000000Y-115700000D01*
X87265000Y-114577068D02*
X87265000Y-113755000D01*
X83000000Y-115700000D02*
X86142068Y-115700000D01*
X86142068Y-115700000D02*
X87265000Y-114577068D01*
%TO.N,/TDO*%
X78500000Y-117500000D02*
X76500000Y-119500000D01*
X76500000Y-119500000D02*
X72000000Y-119500000D01*
X72000000Y-119500000D02*
X70000000Y-117500000D01*
X70000000Y-117500000D02*
X70000000Y-112800000D01*
%TO.N,/TMS*%
X79502000Y-120523000D02*
X79502000Y-123102000D01*
X92142068Y-111485000D02*
X91320000Y-111485000D01*
X79502000Y-123102000D02*
X81000000Y-124600000D01*
X88100000Y-124600000D02*
X93800000Y-118900000D01*
X81000000Y-124600000D02*
X86986922Y-124600000D01*
X93800000Y-113142932D02*
X92142068Y-111485000D01*
X86986922Y-124600000D02*
X88100000Y-124600000D01*
X93800000Y-118900000D02*
X93800000Y-113142932D01*
%TO.N,/TDI*%
X82042000Y-120523000D02*
X82610301Y-119954699D01*
X82610301Y-119954699D02*
X88145301Y-119954699D01*
X91320000Y-116780000D02*
X91320000Y-112755000D01*
X88145301Y-119954699D02*
X91320000Y-116780000D01*
%TO.N,/VIN*%
X79502000Y-116698000D02*
X79900000Y-116300000D01*
X79502000Y-119253000D02*
X79502000Y-116698000D01*
D30*
X89599999Y-115599997D02*
X89599999Y-98448853D01*
X90548852Y-97500000D02*
X91600000Y-97500000D01*
X89599999Y-98448853D02*
X90548852Y-97500000D01*
D29*
X103385000Y-97515000D02*
X103400000Y-97500000D01*
X91320000Y-97515000D02*
X103385000Y-97515000D01*
X168000000Y-94800000D02*
X168000000Y-93500000D01*
%TO.N,Net-(U1-Pad3)*%
X91320000Y-98785000D02*
X101185000Y-98785000D01*
X101185000Y-98785000D02*
X101200000Y-98800000D01*
X172300000Y-95800000D02*
X172300000Y-94387500D01*
X172300000Y-94387500D02*
X170500000Y-92587500D01*
%TO.N,Net-(U1-Pad27)*%
X74320000Y-110215000D02*
X75142068Y-110215000D01*
X75142068Y-110215000D02*
X76927068Y-112000000D01*
X76927068Y-112000000D02*
X88400000Y-112000000D01*
%TO.N,Net-(U1-Pad28)*%
X77097068Y-110900000D02*
X87200000Y-110900000D01*
X74320000Y-108945000D02*
X75142068Y-108945000D01*
X75142068Y-108945000D02*
X77097068Y-110900000D01*
%TO.N,Net-(U1-Pad30)*%
X74320000Y-106405000D02*
X75142068Y-106405000D01*
X75142068Y-106405000D02*
X78037068Y-109300000D01*
X78037068Y-109300000D02*
X87200000Y-109300000D01*
%TO.N,Net-(U1-Pad31)*%
X74250000Y-117500000D02*
X72400000Y-115650000D01*
X72400000Y-115650000D02*
X72400000Y-106232932D01*
X72400000Y-106232932D02*
X73497932Y-105135000D01*
X73497932Y-105135000D02*
X74320000Y-105135000D01*
%TO.N,/BTN*%
X161587500Y-104500000D02*
X154600000Y-104500000D01*
X154600000Y-104500000D02*
X151500000Y-107600000D01*
X91320000Y-107675000D02*
X102925000Y-107675000D01*
X102925000Y-107675000D02*
X103100000Y-107500000D01*
%TO.N,Net-(SW1-PadA)*%
X115500000Y-87670000D02*
X98035000Y-105135000D01*
X98035000Y-105135000D02*
X91320000Y-105135000D01*
%TO.N,Net-(SW1-PadB)*%
X115500000Y-92670000D02*
X101765000Y-106405000D01*
X101765000Y-106405000D02*
X91320000Y-106405000D01*
%TO.N,/RED_LED*%
X130000000Y-89170000D02*
X124030000Y-89170000D01*
X104255000Y-108945000D02*
X91320000Y-108945000D01*
X124030000Y-89170000D02*
X104255000Y-108945000D01*
%TO.N,/GREEN_LED*%
X130000000Y-91170000D02*
X124630000Y-91170000D01*
X124630000Y-91170000D02*
X105585000Y-110215000D01*
X105585000Y-110215000D02*
X91320000Y-110215000D01*
%TO.N,/VIN*%
X168000000Y-93500000D02*
X169587500Y-93500000D01*
X169587500Y-93500000D02*
X170500000Y-94412500D01*
%TO.N,/SW*%
X168000000Y-98000000D02*
X157200000Y-98000000D01*
X138270000Y-87170000D02*
X130000000Y-87170000D01*
X157200000Y-98000000D02*
X149100000Y-98000000D01*
X149100000Y-98000000D02*
X138270000Y-87170000D01*
D31*
%TO.N,GND*%
X80772000Y-120523000D02*
X80772000Y-122272000D01*
X80772000Y-122272000D02*
X81000000Y-122500000D01*
%TO.N,/VIN*%
X90641616Y-97515000D02*
X91320000Y-97515000D01*
D29*
%TO.N,Net-(D1-Pad1)*%
X163412500Y-104500000D02*
X163412500Y-101500000D01*
X163450000Y-99000000D02*
X163450000Y-101462500D01*
X163450000Y-101462500D02*
X163412500Y-101500000D01*
X166000000Y-98950000D02*
X163500000Y-98950000D01*
X163500000Y-98950000D02*
X163450000Y-99000000D01*
%TO.N,/VBATT*%
X159330000Y-90170000D02*
X161670000Y-90170000D01*
X161670000Y-90170000D02*
X163620000Y-90170000D01*
X161550000Y-90290000D02*
X161670000Y-90170000D01*
X161550000Y-92000000D02*
X161550000Y-90290000D01*
X159330000Y-90170000D02*
X159720000Y-90170000D01*
X150165000Y-90170000D02*
X159330000Y-90170000D01*
X163620000Y-90170000D02*
X166000000Y-92550000D01*
%TO.N,Net-(C1-Pad2)*%
X162500000Y-97000000D02*
X162500000Y-95412500D01*
X162500000Y-95412500D02*
X163412500Y-94500000D01*
X166000000Y-97050000D02*
X166000000Y-94450000D01*
X166000000Y-94450000D02*
X163462500Y-94450000D01*
X163462500Y-94450000D02*
X163412500Y-94500000D01*
X163412500Y-94500000D02*
X163412500Y-92037500D01*
X163412500Y-92037500D02*
X163450000Y-92000000D01*
%TO.N,/VBATT*%
X161550000Y-92000000D02*
X161550000Y-94462500D01*
X161550000Y-94462500D02*
X161587500Y-94500000D01*
%TD*%
%TA.AperFunction,Conductor*%
%TO.N,GND*%
G36*
X165939319Y-80509612D02*
G01*
X165954105Y-80512000D01*
X165954107Y-80512000D01*
X165958911Y-80512776D01*
X166433390Y-80515457D01*
X166438325Y-80515582D01*
X166653365Y-80525239D01*
X167308194Y-80554647D01*
X167313835Y-80555027D01*
X167656526Y-80585869D01*
X168179321Y-80632920D01*
X168184909Y-80633550D01*
X168766206Y-80712292D01*
X169046021Y-80750196D01*
X169051605Y-80751081D01*
X169906576Y-80906235D01*
X169912116Y-80907369D01*
X170759294Y-81100732D01*
X170764777Y-81102114D01*
X171217007Y-81226922D01*
X171602433Y-81333293D01*
X171607817Y-81334909D01*
X172434233Y-81603427D01*
X172439570Y-81605294D01*
X173253160Y-81910641D01*
X173258387Y-81912737D01*
X174057435Y-82254267D01*
X174062541Y-82256587D01*
X174845461Y-82633622D01*
X174850484Y-82636181D01*
X175615666Y-83047943D01*
X175620583Y-83050733D01*
X175993042Y-83273267D01*
X176366546Y-83496425D01*
X176366574Y-83496442D01*
X176371359Y-83499449D01*
X176625680Y-83667325D01*
X177096539Y-83978136D01*
X177101187Y-83981356D01*
X177804176Y-84492108D01*
X177808675Y-84495533D01*
X178488081Y-85037342D01*
X178492381Y-85040932D01*
X179031208Y-85511692D01*
X179146784Y-85612668D01*
X179150950Y-85616475D01*
X179356044Y-85812566D01*
X179779034Y-86216986D01*
X179783032Y-86220984D01*
X179998904Y-86446768D01*
X180361809Y-86826337D01*
X180383539Y-86849065D01*
X180387334Y-86853217D01*
X180532469Y-87019337D01*
X180959047Y-87507595D01*
X180962671Y-87511935D01*
X181504482Y-88191346D01*
X181507907Y-88195845D01*
X182018655Y-88898829D01*
X182021875Y-88903477D01*
X182057134Y-88956892D01*
X182486090Y-89606735D01*
X182500566Y-89628666D01*
X182503573Y-89633450D01*
X182521332Y-89663174D01*
X182949273Y-90379429D01*
X182952063Y-90384347D01*
X183363824Y-91149527D01*
X183366391Y-91154565D01*
X183697296Y-91841695D01*
X183743418Y-91937469D01*
X183745738Y-91942575D01*
X184087271Y-92741630D01*
X184089367Y-92746857D01*
X184394706Y-93560429D01*
X184396572Y-93565764D01*
X184665087Y-94392169D01*
X184665088Y-94392173D01*
X184666709Y-94397572D01*
X184723623Y-94603794D01*
X184897884Y-95235213D01*
X184899266Y-95240696D01*
X185092631Y-96087886D01*
X185093765Y-96093426D01*
X185248921Y-96948409D01*
X185249806Y-96953993D01*
X185273778Y-97130962D01*
X185366448Y-97815072D01*
X185366448Y-97815073D01*
X185367080Y-97820680D01*
X185401163Y-98199386D01*
X185444973Y-98686169D01*
X185445353Y-98691810D01*
X185474069Y-99331224D01*
X185484419Y-99561672D01*
X185484419Y-99561683D01*
X185484544Y-99566613D01*
X185487206Y-100037810D01*
X185487868Y-100042252D01*
X185487868Y-100042255D01*
X185490624Y-100060752D01*
X185492000Y-100079319D01*
X185492001Y-114761605D01*
X185492001Y-129366000D01*
X185471999Y-129434121D01*
X185418343Y-129480614D01*
X185366001Y-129492000D01*
X60634000Y-129492000D01*
X60565879Y-129471998D01*
X60519386Y-129418342D01*
X60508000Y-129366000D01*
X60508000Y-123824431D01*
X73290921Y-123824431D01*
X73294614Y-123829708D01*
X73502144Y-123956883D01*
X73510938Y-123961364D01*
X73739257Y-124055937D01*
X73748642Y-124058986D01*
X73988947Y-124116679D01*
X73998694Y-124118222D01*
X74245070Y-124137612D01*
X74254930Y-124137612D01*
X74501306Y-124118222D01*
X74511053Y-124116679D01*
X74751358Y-124058986D01*
X74760743Y-124055937D01*
X74989062Y-123961364D01*
X74997856Y-123956883D01*
X75203888Y-123830626D01*
X75209152Y-123822566D01*
X75203144Y-123812354D01*
X74262812Y-122872022D01*
X74248868Y-122864408D01*
X74247035Y-122864539D01*
X74240420Y-122868790D01*
X73298311Y-123810899D01*
X73290921Y-123824431D01*
X60508000Y-123824431D01*
X60508000Y-122495070D01*
X72612388Y-122495070D01*
X72612388Y-122504930D01*
X72631778Y-122751306D01*
X72633321Y-122761053D01*
X72691014Y-123001358D01*
X72694063Y-123010743D01*
X72788636Y-123239062D01*
X72793117Y-123247856D01*
X72919374Y-123453888D01*
X72927434Y-123459152D01*
X72937646Y-123453144D01*
X73877978Y-122512812D01*
X73884355Y-122501132D01*
X74614408Y-122501132D01*
X74614539Y-122502965D01*
X74618790Y-122509580D01*
X75560899Y-123451689D01*
X75574431Y-123459079D01*
X75579708Y-123455386D01*
X75706883Y-123247856D01*
X75711364Y-123239062D01*
X75805937Y-123010743D01*
X75808986Y-123001358D01*
X75866679Y-122761053D01*
X75868222Y-122751306D01*
X75887612Y-122504930D01*
X75887612Y-122495070D01*
X75868222Y-122248694D01*
X75866679Y-122238947D01*
X75808986Y-121998642D01*
X75805937Y-121989257D01*
X75711364Y-121760938D01*
X75706883Y-121752144D01*
X75580626Y-121546112D01*
X75572566Y-121540848D01*
X75562354Y-121546856D01*
X74622022Y-122487188D01*
X74614408Y-122501132D01*
X73884355Y-122501132D01*
X73885592Y-122498868D01*
X73885461Y-122497035D01*
X73881210Y-122490420D01*
X72939101Y-121548311D01*
X72925569Y-121540921D01*
X72920292Y-121544614D01*
X72793117Y-121752144D01*
X72788636Y-121760938D01*
X72694063Y-121989257D01*
X72691014Y-121998642D01*
X72633321Y-122238947D01*
X72631778Y-122248694D01*
X72612388Y-122495070D01*
X60508000Y-122495070D01*
X60508000Y-121177434D01*
X73290848Y-121177434D01*
X73296856Y-121187646D01*
X74237188Y-122127978D01*
X74251132Y-122135592D01*
X74252965Y-122135461D01*
X74259580Y-122131210D01*
X75201689Y-121189101D01*
X75209079Y-121175569D01*
X75205386Y-121170292D01*
X74997856Y-121043117D01*
X74989062Y-121038636D01*
X74760743Y-120944063D01*
X74751358Y-120941014D01*
X74511053Y-120883321D01*
X74501306Y-120881778D01*
X74254930Y-120862388D01*
X74245070Y-120862388D01*
X73998694Y-120881778D01*
X73988947Y-120883321D01*
X73748642Y-120941014D01*
X73739257Y-120944063D01*
X73510938Y-121038636D01*
X73502144Y-121043117D01*
X73296112Y-121169374D01*
X73290848Y-121177434D01*
X60508000Y-121177434D01*
X60508000Y-112799999D01*
X68737000Y-112799999D01*
X68742222Y-112873008D01*
X68744104Y-112879419D01*
X68745096Y-112885927D01*
X68758898Y-112996736D01*
X68760074Y-113001048D01*
X68760075Y-113001055D01*
X68777687Y-113065652D01*
X68796187Y-113133509D01*
X68797963Y-113137612D01*
X68797965Y-113137619D01*
X68829048Y-113209446D01*
X68853952Y-113266995D01*
X68856300Y-113270819D01*
X68924128Y-113381288D01*
X68928129Y-113387805D01*
X68930989Y-113391250D01*
X68930992Y-113391254D01*
X69006621Y-113482349D01*
X69021040Y-113499717D01*
X69024362Y-113502724D01*
X69024364Y-113502726D01*
X69083727Y-113556459D01*
X69126144Y-113594852D01*
X69129861Y-113597359D01*
X69181960Y-113632501D01*
X69227249Y-113687176D01*
X69237501Y-113736959D01*
X69237500Y-115593424D01*
X69237500Y-117433894D01*
X69236067Y-117452844D01*
X69232968Y-117473215D01*
X69233561Y-117480507D01*
X69233561Y-117480510D01*
X69237085Y-117523831D01*
X69237500Y-117534046D01*
X69237500Y-117542885D01*
X69237924Y-117546520D01*
X69237924Y-117546523D01*
X69241000Y-117572902D01*
X69241433Y-117577277D01*
X69247379Y-117650388D01*
X69249635Y-117657351D01*
X69250836Y-117663363D01*
X69252237Y-117669292D01*
X69253085Y-117676562D01*
X69255582Y-117683441D01*
X69278125Y-117745546D01*
X69279548Y-117749691D01*
X69302162Y-117819495D01*
X69305961Y-117825757D01*
X69308512Y-117831328D01*
X69311239Y-117836773D01*
X69313737Y-117843654D01*
X69353978Y-117905032D01*
X69356295Y-117908705D01*
X69394378Y-117971464D01*
X69398089Y-117975666D01*
X69398093Y-117975671D01*
X69402563Y-117980731D01*
X69404791Y-117983324D01*
X69407187Y-117986190D01*
X69411201Y-117992312D01*
X69416514Y-117997345D01*
X69462637Y-118041038D01*
X69465079Y-118043416D01*
X71414082Y-119992420D01*
X71426469Y-120006833D01*
X71434344Y-120017535D01*
X71434348Y-120017539D01*
X71438686Y-120023434D01*
X71444269Y-120028177D01*
X71477400Y-120056324D01*
X71484916Y-120063254D01*
X71491155Y-120069493D01*
X71494016Y-120071756D01*
X71494021Y-120071761D01*
X71514839Y-120088231D01*
X71518240Y-120091020D01*
X71546847Y-120115323D01*
X71574157Y-120138525D01*
X71580680Y-120141856D01*
X71585753Y-120145239D01*
X71590955Y-120148452D01*
X71596700Y-120152997D01*
X71663149Y-120184053D01*
X71667099Y-120185984D01*
X71725947Y-120216033D01*
X71725949Y-120216034D01*
X71732471Y-120219364D01*
X71739586Y-120221105D01*
X71745297Y-120223229D01*
X71751109Y-120225162D01*
X71757739Y-120228261D01*
X71829570Y-120243202D01*
X71833823Y-120244165D01*
X71905136Y-120261615D01*
X71910736Y-120261962D01*
X71910740Y-120261963D01*
X71916159Y-120262299D01*
X71917475Y-120262380D01*
X71920868Y-120262637D01*
X71924610Y-120262971D01*
X71931774Y-120264461D01*
X72002548Y-120262546D01*
X72005956Y-120262500D01*
X76433894Y-120262500D01*
X76452844Y-120263933D01*
X76465981Y-120265932D01*
X76465985Y-120265932D01*
X76473215Y-120267032D01*
X76480507Y-120266439D01*
X76480510Y-120266439D01*
X76523831Y-120262915D01*
X76534046Y-120262500D01*
X76542886Y-120262500D01*
X76551591Y-120261485D01*
X76572902Y-120259001D01*
X76577277Y-120258568D01*
X76607630Y-120256099D01*
X76650388Y-120252621D01*
X76657351Y-120250365D01*
X76663363Y-120249164D01*
X76669290Y-120247763D01*
X76676563Y-120246915D01*
X76745569Y-120221867D01*
X76749700Y-120220449D01*
X76819495Y-120197838D01*
X76825754Y-120194040D01*
X76831309Y-120191496D01*
X76836768Y-120188763D01*
X76843655Y-120186263D01*
X76905037Y-120146019D01*
X76908726Y-120143692D01*
X76955477Y-120115323D01*
X76966664Y-120108535D01*
X76966666Y-120108533D01*
X76971464Y-120105622D01*
X76975675Y-120101903D01*
X76980738Y-120097432D01*
X76983325Y-120095209D01*
X76986191Y-120092813D01*
X76992313Y-120088799D01*
X77037093Y-120041528D01*
X77098462Y-120005830D01*
X77169389Y-120008977D01*
X77227355Y-120049971D01*
X77252080Y-120103276D01*
X77268793Y-120186162D01*
X77271286Y-120192036D01*
X77271287Y-120192038D01*
X77345926Y-120367878D01*
X77345929Y-120367883D01*
X77348420Y-120373752D01*
X77464141Y-120541499D01*
X77611229Y-120682551D01*
X77616625Y-120685949D01*
X77778269Y-120787743D01*
X77778274Y-120787746D01*
X77783674Y-120791146D01*
X77974434Y-120862848D01*
X77980738Y-120863846D01*
X77980740Y-120863847D01*
X78075075Y-120878788D01*
X78175715Y-120894728D01*
X78379296Y-120885483D01*
X78470567Y-120862388D01*
X78540604Y-120844666D01*
X78611550Y-120847346D01*
X78680632Y-120903816D01*
X78722619Y-120976539D01*
X78739500Y-121039539D01*
X78739501Y-123035887D01*
X78738068Y-123054837D01*
X78734968Y-123075215D01*
X78735561Y-123082507D01*
X78735561Y-123082510D01*
X78739086Y-123125843D01*
X78739501Y-123136058D01*
X78739501Y-123144886D01*
X78739925Y-123148521D01*
X78739925Y-123148524D01*
X78742998Y-123174877D01*
X78743431Y-123179252D01*
X78749379Y-123252388D01*
X78751634Y-123259350D01*
X78752828Y-123265326D01*
X78754238Y-123271290D01*
X78755086Y-123278563D01*
X78780131Y-123347562D01*
X78781543Y-123351675D01*
X78804162Y-123421495D01*
X78807960Y-123427753D01*
X78810499Y-123433299D01*
X78813240Y-123438773D01*
X78815738Y-123445655D01*
X78819751Y-123451775D01*
X78819751Y-123451776D01*
X78855959Y-123507002D01*
X78858306Y-123510723D01*
X78893462Y-123568660D01*
X78893467Y-123568667D01*
X78896378Y-123573464D01*
X78900091Y-123577668D01*
X78900097Y-123577676D01*
X78904569Y-123582739D01*
X78906793Y-123585327D01*
X78909191Y-123588195D01*
X78913202Y-123594313D01*
X78918510Y-123599341D01*
X78918513Y-123599345D01*
X78964631Y-123643032D01*
X78967073Y-123645410D01*
X80414076Y-125092413D01*
X80426462Y-125106825D01*
X80434343Y-125117533D01*
X80438686Y-125123434D01*
X80444264Y-125128173D01*
X80444267Y-125128176D01*
X80477407Y-125156330D01*
X80484923Y-125163260D01*
X80491156Y-125169493D01*
X80514837Y-125188228D01*
X80518202Y-125190987D01*
X80574157Y-125238525D01*
X80580674Y-125241853D01*
X80585762Y-125245246D01*
X80590963Y-125248458D01*
X80596700Y-125252997D01*
X80603329Y-125256095D01*
X80663169Y-125284063D01*
X80667119Y-125285994D01*
X80694731Y-125300093D01*
X80732471Y-125319364D01*
X80739574Y-125321102D01*
X80745297Y-125323231D01*
X80751110Y-125325164D01*
X80757739Y-125328262D01*
X80829575Y-125343204D01*
X80833864Y-125344175D01*
X80899683Y-125360281D01*
X80899686Y-125360282D01*
X80905136Y-125361615D01*
X80910736Y-125361962D01*
X80910740Y-125361963D01*
X80916159Y-125362299D01*
X80917475Y-125362380D01*
X80920868Y-125362637D01*
X80924610Y-125362971D01*
X80931774Y-125364461D01*
X81002548Y-125362546D01*
X81005956Y-125362500D01*
X88033894Y-125362500D01*
X88052844Y-125363933D01*
X88065981Y-125365932D01*
X88065985Y-125365932D01*
X88073215Y-125367032D01*
X88080507Y-125366439D01*
X88080510Y-125366439D01*
X88123831Y-125362915D01*
X88134046Y-125362500D01*
X88142886Y-125362500D01*
X88151591Y-125361485D01*
X88172902Y-125359001D01*
X88177277Y-125358568D01*
X88207630Y-125356099D01*
X88250388Y-125352621D01*
X88257351Y-125350365D01*
X88263363Y-125349164D01*
X88269290Y-125347763D01*
X88276563Y-125346915D01*
X88345569Y-125321867D01*
X88349700Y-125320449D01*
X88419495Y-125297838D01*
X88425754Y-125294040D01*
X88431309Y-125291496D01*
X88436768Y-125288763D01*
X88443655Y-125286263D01*
X88505037Y-125246019D01*
X88508726Y-125243692D01*
X88540519Y-125224400D01*
X88566664Y-125208535D01*
X88566666Y-125208533D01*
X88571464Y-125205622D01*
X88575675Y-125201903D01*
X88580738Y-125197432D01*
X88583325Y-125195209D01*
X88586191Y-125192813D01*
X88592313Y-125188799D01*
X88641051Y-125137350D01*
X88643428Y-125134909D01*
X89953906Y-123824431D01*
X101624254Y-123824431D01*
X101627947Y-123829708D01*
X101835477Y-123956883D01*
X101844271Y-123961364D01*
X102072590Y-124055937D01*
X102081975Y-124058986D01*
X102322280Y-124116679D01*
X102332027Y-124118222D01*
X102578403Y-124137612D01*
X102588263Y-124137612D01*
X102834639Y-124118222D01*
X102844386Y-124116679D01*
X103084691Y-124058986D01*
X103094076Y-124055937D01*
X103322395Y-123961364D01*
X103331189Y-123956883D01*
X103537221Y-123830626D01*
X103541266Y-123824431D01*
X114124254Y-123824431D01*
X114127947Y-123829708D01*
X114335477Y-123956883D01*
X114344271Y-123961364D01*
X114572590Y-124055937D01*
X114581975Y-124058986D01*
X114822280Y-124116679D01*
X114832027Y-124118222D01*
X115078403Y-124137612D01*
X115088263Y-124137612D01*
X115334639Y-124118222D01*
X115344386Y-124116679D01*
X115584691Y-124058986D01*
X115594076Y-124055937D01*
X115822395Y-123961364D01*
X115831189Y-123956883D01*
X116037221Y-123830626D01*
X116041266Y-123824431D01*
X129957587Y-123824431D01*
X129961280Y-123829708D01*
X130168810Y-123956883D01*
X130177604Y-123961364D01*
X130405923Y-124055937D01*
X130415308Y-124058986D01*
X130655613Y-124116679D01*
X130665360Y-124118222D01*
X130911736Y-124137612D01*
X130921596Y-124137612D01*
X131167972Y-124118222D01*
X131177719Y-124116679D01*
X131418024Y-124058986D01*
X131427409Y-124055937D01*
X131655728Y-123961364D01*
X131664522Y-123956883D01*
X131870554Y-123830626D01*
X131874599Y-123824431D01*
X142457587Y-123824431D01*
X142461280Y-123829708D01*
X142668810Y-123956883D01*
X142677604Y-123961364D01*
X142905923Y-124055937D01*
X142915308Y-124058986D01*
X143155613Y-124116679D01*
X143165360Y-124118222D01*
X143411736Y-124137612D01*
X143421596Y-124137612D01*
X143667972Y-124118222D01*
X143677719Y-124116679D01*
X143918024Y-124058986D01*
X143927409Y-124055937D01*
X144155728Y-123961364D01*
X144164522Y-123956883D01*
X144370554Y-123830626D01*
X144374599Y-123824431D01*
X158290921Y-123824431D01*
X158294614Y-123829708D01*
X158502144Y-123956883D01*
X158510938Y-123961364D01*
X158739257Y-124055937D01*
X158748642Y-124058986D01*
X158988947Y-124116679D01*
X158998694Y-124118222D01*
X159245070Y-124137612D01*
X159254930Y-124137612D01*
X159501306Y-124118222D01*
X159511053Y-124116679D01*
X159751358Y-124058986D01*
X159760743Y-124055937D01*
X159989062Y-123961364D01*
X159997856Y-123956883D01*
X160203888Y-123830626D01*
X160207933Y-123824431D01*
X170790921Y-123824431D01*
X170794614Y-123829708D01*
X171002144Y-123956883D01*
X171010938Y-123961364D01*
X171239257Y-124055937D01*
X171248642Y-124058986D01*
X171488947Y-124116679D01*
X171498694Y-124118222D01*
X171745070Y-124137612D01*
X171754930Y-124137612D01*
X172001306Y-124118222D01*
X172011053Y-124116679D01*
X172251358Y-124058986D01*
X172260743Y-124055937D01*
X172489062Y-123961364D01*
X172497856Y-123956883D01*
X172703888Y-123830626D01*
X172709152Y-123822566D01*
X172703144Y-123812354D01*
X171762812Y-122872022D01*
X171748868Y-122864408D01*
X171747035Y-122864539D01*
X171740420Y-122868790D01*
X170798311Y-123810899D01*
X170790921Y-123824431D01*
X160207933Y-123824431D01*
X160209152Y-123822566D01*
X160203144Y-123812354D01*
X159262812Y-122872022D01*
X159248868Y-122864408D01*
X159247035Y-122864539D01*
X159240420Y-122868790D01*
X158298311Y-123810899D01*
X158290921Y-123824431D01*
X144374599Y-123824431D01*
X144375818Y-123822566D01*
X144369810Y-123812354D01*
X143429478Y-122872022D01*
X143415534Y-122864408D01*
X143413701Y-122864539D01*
X143407086Y-122868790D01*
X142464977Y-123810899D01*
X142457587Y-123824431D01*
X131874599Y-123824431D01*
X131875818Y-123822566D01*
X131869810Y-123812354D01*
X130929478Y-122872022D01*
X130915534Y-122864408D01*
X130913701Y-122864539D01*
X130907086Y-122868790D01*
X129964977Y-123810899D01*
X129957587Y-123824431D01*
X116041266Y-123824431D01*
X116042485Y-123822566D01*
X116036477Y-123812354D01*
X115096145Y-122872022D01*
X115082201Y-122864408D01*
X115080368Y-122864539D01*
X115073753Y-122868790D01*
X114131644Y-123810899D01*
X114124254Y-123824431D01*
X103541266Y-123824431D01*
X103542485Y-123822566D01*
X103536477Y-123812354D01*
X102596145Y-122872022D01*
X102582201Y-122864408D01*
X102580368Y-122864539D01*
X102573753Y-122868790D01*
X101631644Y-123810899D01*
X101624254Y-123824431D01*
X89953906Y-123824431D01*
X91283267Y-122495070D01*
X100945721Y-122495070D01*
X100945721Y-122504930D01*
X100965111Y-122751306D01*
X100966654Y-122761053D01*
X101024347Y-123001358D01*
X101027396Y-123010743D01*
X101121969Y-123239062D01*
X101126450Y-123247856D01*
X101252707Y-123453888D01*
X101260767Y-123459152D01*
X101270979Y-123453144D01*
X102211311Y-122512812D01*
X102217688Y-122501132D01*
X102947741Y-122501132D01*
X102947872Y-122502965D01*
X102952123Y-122509580D01*
X103894232Y-123451689D01*
X103907764Y-123459079D01*
X103913041Y-123455386D01*
X104040216Y-123247856D01*
X104044697Y-123239062D01*
X104139270Y-123010743D01*
X104142319Y-123001358D01*
X104200012Y-122761053D01*
X104201555Y-122751306D01*
X104220945Y-122504930D01*
X104220945Y-122495070D01*
X113445721Y-122495070D01*
X113445721Y-122504930D01*
X113465111Y-122751306D01*
X113466654Y-122761053D01*
X113524347Y-123001358D01*
X113527396Y-123010743D01*
X113621969Y-123239062D01*
X113626450Y-123247856D01*
X113752707Y-123453888D01*
X113760767Y-123459152D01*
X113770979Y-123453144D01*
X114711311Y-122512812D01*
X114717688Y-122501132D01*
X115447741Y-122501132D01*
X115447872Y-122502965D01*
X115452123Y-122509580D01*
X116394232Y-123451689D01*
X116407764Y-123459079D01*
X116413041Y-123455386D01*
X116540216Y-123247856D01*
X116544697Y-123239062D01*
X116639270Y-123010743D01*
X116642319Y-123001358D01*
X116700012Y-122761053D01*
X116701555Y-122751306D01*
X116720945Y-122504930D01*
X116720945Y-122495070D01*
X129279054Y-122495070D01*
X129279054Y-122504930D01*
X129298444Y-122751306D01*
X129299987Y-122761053D01*
X129357680Y-123001358D01*
X129360729Y-123010743D01*
X129455302Y-123239062D01*
X129459783Y-123247856D01*
X129586040Y-123453888D01*
X129594100Y-123459152D01*
X129604312Y-123453144D01*
X130544644Y-122512812D01*
X130551021Y-122501132D01*
X131281074Y-122501132D01*
X131281205Y-122502965D01*
X131285456Y-122509580D01*
X132227565Y-123451689D01*
X132241097Y-123459079D01*
X132246374Y-123455386D01*
X132373549Y-123247856D01*
X132378030Y-123239062D01*
X132472603Y-123010743D01*
X132475652Y-123001358D01*
X132533345Y-122761053D01*
X132534888Y-122751306D01*
X132554278Y-122504930D01*
X132554278Y-122495070D01*
X141779054Y-122495070D01*
X141779054Y-122504930D01*
X141798444Y-122751306D01*
X141799987Y-122761053D01*
X141857680Y-123001358D01*
X141860729Y-123010743D01*
X141955302Y-123239062D01*
X141959783Y-123247856D01*
X142086040Y-123453888D01*
X142094100Y-123459152D01*
X142104312Y-123453144D01*
X143044644Y-122512812D01*
X143051021Y-122501132D01*
X143781074Y-122501132D01*
X143781205Y-122502965D01*
X143785456Y-122509580D01*
X144727565Y-123451689D01*
X144741097Y-123459079D01*
X144746374Y-123455386D01*
X144873549Y-123247856D01*
X144878030Y-123239062D01*
X144972603Y-123010743D01*
X144975652Y-123001358D01*
X145033345Y-122761053D01*
X145034888Y-122751306D01*
X145054278Y-122504930D01*
X145054278Y-122495070D01*
X157612388Y-122495070D01*
X157612388Y-122504930D01*
X157631778Y-122751306D01*
X157633321Y-122761053D01*
X157691014Y-123001358D01*
X157694063Y-123010743D01*
X157788636Y-123239062D01*
X157793117Y-123247856D01*
X157919374Y-123453888D01*
X157927434Y-123459152D01*
X157937646Y-123453144D01*
X158877978Y-122512812D01*
X158884355Y-122501132D01*
X159614408Y-122501132D01*
X159614539Y-122502965D01*
X159618790Y-122509580D01*
X160560899Y-123451689D01*
X160574431Y-123459079D01*
X160579708Y-123455386D01*
X160706883Y-123247856D01*
X160711364Y-123239062D01*
X160805937Y-123010743D01*
X160808986Y-123001358D01*
X160866679Y-122761053D01*
X160868222Y-122751306D01*
X160887612Y-122504930D01*
X160887612Y-122495070D01*
X170112388Y-122495070D01*
X170112388Y-122504930D01*
X170131778Y-122751306D01*
X170133321Y-122761053D01*
X170191014Y-123001358D01*
X170194063Y-123010743D01*
X170288636Y-123239062D01*
X170293117Y-123247856D01*
X170419374Y-123453888D01*
X170427434Y-123459152D01*
X170437646Y-123453144D01*
X171377978Y-122512812D01*
X171384355Y-122501132D01*
X172114408Y-122501132D01*
X172114539Y-122502965D01*
X172118790Y-122509580D01*
X173060899Y-123451689D01*
X173074431Y-123459079D01*
X173079708Y-123455386D01*
X173206883Y-123247856D01*
X173211364Y-123239062D01*
X173305937Y-123010743D01*
X173308986Y-123001358D01*
X173366679Y-122761053D01*
X173368222Y-122751306D01*
X173387612Y-122504930D01*
X173387612Y-122495070D01*
X173368222Y-122248694D01*
X173366679Y-122238947D01*
X173308986Y-121998642D01*
X173305937Y-121989257D01*
X173211364Y-121760938D01*
X173206883Y-121752144D01*
X173080626Y-121546112D01*
X173072566Y-121540848D01*
X173062354Y-121546856D01*
X172122022Y-122487188D01*
X172114408Y-122501132D01*
X171384355Y-122501132D01*
X171385592Y-122498868D01*
X171385461Y-122497035D01*
X171381210Y-122490420D01*
X170439101Y-121548311D01*
X170425569Y-121540921D01*
X170420292Y-121544614D01*
X170293117Y-121752144D01*
X170288636Y-121760938D01*
X170194063Y-121989257D01*
X170191014Y-121998642D01*
X170133321Y-122238947D01*
X170131778Y-122248694D01*
X170112388Y-122495070D01*
X160887612Y-122495070D01*
X160868222Y-122248694D01*
X160866679Y-122238947D01*
X160808986Y-121998642D01*
X160805937Y-121989257D01*
X160711364Y-121760938D01*
X160706883Y-121752144D01*
X160580626Y-121546112D01*
X160572566Y-121540848D01*
X160562354Y-121546856D01*
X159622022Y-122487188D01*
X159614408Y-122501132D01*
X158884355Y-122501132D01*
X158885592Y-122498868D01*
X158885461Y-122497035D01*
X158881210Y-122490420D01*
X157939101Y-121548311D01*
X157925569Y-121540921D01*
X157920292Y-121544614D01*
X157793117Y-121752144D01*
X157788636Y-121760938D01*
X157694063Y-121989257D01*
X157691014Y-121998642D01*
X157633321Y-122238947D01*
X157631778Y-122248694D01*
X157612388Y-122495070D01*
X145054278Y-122495070D01*
X145034888Y-122248694D01*
X145033345Y-122238947D01*
X144975652Y-121998642D01*
X144972603Y-121989257D01*
X144878030Y-121760938D01*
X144873549Y-121752144D01*
X144747292Y-121546112D01*
X144739232Y-121540848D01*
X144729020Y-121546856D01*
X143788688Y-122487188D01*
X143781074Y-122501132D01*
X143051021Y-122501132D01*
X143052258Y-122498868D01*
X143052127Y-122497035D01*
X143047876Y-122490420D01*
X142105767Y-121548311D01*
X142092235Y-121540921D01*
X142086958Y-121544614D01*
X141959783Y-121752144D01*
X141955302Y-121760938D01*
X141860729Y-121989257D01*
X141857680Y-121998642D01*
X141799987Y-122238947D01*
X141798444Y-122248694D01*
X141779054Y-122495070D01*
X132554278Y-122495070D01*
X132534888Y-122248694D01*
X132533345Y-122238947D01*
X132475652Y-121998642D01*
X132472603Y-121989257D01*
X132378030Y-121760938D01*
X132373549Y-121752144D01*
X132247292Y-121546112D01*
X132239232Y-121540848D01*
X132229020Y-121546856D01*
X131288688Y-122487188D01*
X131281074Y-122501132D01*
X130551021Y-122501132D01*
X130552258Y-122498868D01*
X130552127Y-122497035D01*
X130547876Y-122490420D01*
X129605767Y-121548311D01*
X129592235Y-121540921D01*
X129586958Y-121544614D01*
X129459783Y-121752144D01*
X129455302Y-121760938D01*
X129360729Y-121989257D01*
X129357680Y-121998642D01*
X129299987Y-122238947D01*
X129298444Y-122248694D01*
X129279054Y-122495070D01*
X116720945Y-122495070D01*
X116701555Y-122248694D01*
X116700012Y-122238947D01*
X116642319Y-121998642D01*
X116639270Y-121989257D01*
X116544697Y-121760938D01*
X116540216Y-121752144D01*
X116413959Y-121546112D01*
X116405899Y-121540848D01*
X116395687Y-121546856D01*
X115455355Y-122487188D01*
X115447741Y-122501132D01*
X114717688Y-122501132D01*
X114718925Y-122498868D01*
X114718794Y-122497035D01*
X114714543Y-122490420D01*
X113772434Y-121548311D01*
X113758902Y-121540921D01*
X113753625Y-121544614D01*
X113626450Y-121752144D01*
X113621969Y-121760938D01*
X113527396Y-121989257D01*
X113524347Y-121998642D01*
X113466654Y-122238947D01*
X113465111Y-122248694D01*
X113445721Y-122495070D01*
X104220945Y-122495070D01*
X104201555Y-122248694D01*
X104200012Y-122238947D01*
X104142319Y-121998642D01*
X104139270Y-121989257D01*
X104044697Y-121760938D01*
X104040216Y-121752144D01*
X103913959Y-121546112D01*
X103905899Y-121540848D01*
X103895687Y-121546856D01*
X102955355Y-122487188D01*
X102947741Y-122501132D01*
X102217688Y-122501132D01*
X102218925Y-122498868D01*
X102218794Y-122497035D01*
X102214543Y-122490420D01*
X101272434Y-121548311D01*
X101258902Y-121540921D01*
X101253625Y-121544614D01*
X101126450Y-121752144D01*
X101121969Y-121760938D01*
X101027396Y-121989257D01*
X101024347Y-121998642D01*
X100966654Y-122238947D01*
X100965111Y-122248694D01*
X100945721Y-122495070D01*
X91283267Y-122495070D01*
X92600903Y-121177434D01*
X101624181Y-121177434D01*
X101630189Y-121187646D01*
X102570521Y-122127978D01*
X102584465Y-122135592D01*
X102586298Y-122135461D01*
X102592913Y-122131210D01*
X103535022Y-121189101D01*
X103541393Y-121177434D01*
X114124181Y-121177434D01*
X114130189Y-121187646D01*
X115070521Y-122127978D01*
X115084465Y-122135592D01*
X115086298Y-122135461D01*
X115092913Y-122131210D01*
X116035022Y-121189101D01*
X116041393Y-121177434D01*
X129957514Y-121177434D01*
X129963522Y-121187646D01*
X130903854Y-122127978D01*
X130917798Y-122135592D01*
X130919631Y-122135461D01*
X130926246Y-122131210D01*
X131868355Y-121189101D01*
X131874726Y-121177434D01*
X142457514Y-121177434D01*
X142463522Y-121187646D01*
X143403854Y-122127978D01*
X143417798Y-122135592D01*
X143419631Y-122135461D01*
X143426246Y-122131210D01*
X144368355Y-121189101D01*
X144374726Y-121177434D01*
X158290848Y-121177434D01*
X158296856Y-121187646D01*
X159237188Y-122127978D01*
X159251132Y-122135592D01*
X159252965Y-122135461D01*
X159259580Y-122131210D01*
X160201689Y-121189101D01*
X160208060Y-121177434D01*
X170790848Y-121177434D01*
X170796856Y-121187646D01*
X171737188Y-122127978D01*
X171751132Y-122135592D01*
X171752965Y-122135461D01*
X171759580Y-122131210D01*
X172701689Y-121189101D01*
X172709079Y-121175569D01*
X172705386Y-121170292D01*
X172497856Y-121043117D01*
X172489062Y-121038636D01*
X172260743Y-120944063D01*
X172251358Y-120941014D01*
X172011053Y-120883321D01*
X172001306Y-120881778D01*
X171754930Y-120862388D01*
X171745070Y-120862388D01*
X171498694Y-120881778D01*
X171488947Y-120883321D01*
X171248642Y-120941014D01*
X171239257Y-120944063D01*
X171010938Y-121038636D01*
X171002144Y-121043117D01*
X170796112Y-121169374D01*
X170790848Y-121177434D01*
X160208060Y-121177434D01*
X160209079Y-121175569D01*
X160205386Y-121170292D01*
X159997856Y-121043117D01*
X159989062Y-121038636D01*
X159760743Y-120944063D01*
X159751358Y-120941014D01*
X159511053Y-120883321D01*
X159501306Y-120881778D01*
X159254930Y-120862388D01*
X159245070Y-120862388D01*
X158998694Y-120881778D01*
X158988947Y-120883321D01*
X158748642Y-120941014D01*
X158739257Y-120944063D01*
X158510938Y-121038636D01*
X158502144Y-121043117D01*
X158296112Y-121169374D01*
X158290848Y-121177434D01*
X144374726Y-121177434D01*
X144375745Y-121175569D01*
X144372052Y-121170292D01*
X144164522Y-121043117D01*
X144155728Y-121038636D01*
X143927409Y-120944063D01*
X143918024Y-120941014D01*
X143677719Y-120883321D01*
X143667972Y-120881778D01*
X143421596Y-120862388D01*
X143411736Y-120862388D01*
X143165360Y-120881778D01*
X143155613Y-120883321D01*
X142915308Y-120941014D01*
X142905923Y-120944063D01*
X142677604Y-121038636D01*
X142668810Y-121043117D01*
X142462778Y-121169374D01*
X142457514Y-121177434D01*
X131874726Y-121177434D01*
X131875745Y-121175569D01*
X131872052Y-121170292D01*
X131664522Y-121043117D01*
X131655728Y-121038636D01*
X131427409Y-120944063D01*
X131418024Y-120941014D01*
X131177719Y-120883321D01*
X131167972Y-120881778D01*
X130921596Y-120862388D01*
X130911736Y-120862388D01*
X130665360Y-120881778D01*
X130655613Y-120883321D01*
X130415308Y-120941014D01*
X130405923Y-120944063D01*
X130177604Y-121038636D01*
X130168810Y-121043117D01*
X129962778Y-121169374D01*
X129957514Y-121177434D01*
X116041393Y-121177434D01*
X116042412Y-121175569D01*
X116038719Y-121170292D01*
X115831189Y-121043117D01*
X115822395Y-121038636D01*
X115594076Y-120944063D01*
X115584691Y-120941014D01*
X115344386Y-120883321D01*
X115334639Y-120881778D01*
X115088263Y-120862388D01*
X115078403Y-120862388D01*
X114832027Y-120881778D01*
X114822280Y-120883321D01*
X114581975Y-120941014D01*
X114572590Y-120944063D01*
X114344271Y-121038636D01*
X114335477Y-121043117D01*
X114129445Y-121169374D01*
X114124181Y-121177434D01*
X103541393Y-121177434D01*
X103542412Y-121175569D01*
X103538719Y-121170292D01*
X103331189Y-121043117D01*
X103322395Y-121038636D01*
X103094076Y-120944063D01*
X103084691Y-120941014D01*
X102844386Y-120883321D01*
X102834639Y-120881778D01*
X102588263Y-120862388D01*
X102578403Y-120862388D01*
X102332027Y-120881778D01*
X102322280Y-120883321D01*
X102081975Y-120941014D01*
X102072590Y-120944063D01*
X101844271Y-121038636D01*
X101835477Y-121043117D01*
X101629445Y-121169374D01*
X101624181Y-121177434D01*
X92600903Y-121177434D01*
X94292423Y-119485915D01*
X94306836Y-119473528D01*
X94317539Y-119465652D01*
X94317542Y-119465650D01*
X94323433Y-119461314D01*
X94356324Y-119422599D01*
X94363254Y-119415084D01*
X94369493Y-119408845D01*
X94371772Y-119405965D01*
X94388236Y-119385156D01*
X94391023Y-119381757D01*
X94409116Y-119360460D01*
X94438525Y-119325843D01*
X94441857Y-119319318D01*
X94445239Y-119314247D01*
X94448452Y-119309045D01*
X94452997Y-119303300D01*
X94484057Y-119236842D01*
X94485984Y-119232901D01*
X94516033Y-119174053D01*
X94516034Y-119174051D01*
X94519364Y-119167529D01*
X94521105Y-119160415D01*
X94523226Y-119154712D01*
X94525162Y-119148892D01*
X94528261Y-119142261D01*
X94543199Y-119070445D01*
X94544170Y-119066157D01*
X94560281Y-119000317D01*
X94560282Y-119000313D01*
X94561615Y-118994864D01*
X94562380Y-118982530D01*
X94562637Y-118979136D01*
X94562971Y-118975389D01*
X94564461Y-118968227D01*
X94562546Y-118897453D01*
X94562500Y-118894045D01*
X94562500Y-117500000D01*
X100945333Y-117500000D01*
X100965499Y-117756240D01*
X100966653Y-117761047D01*
X100966654Y-117761053D01*
X101001212Y-117904996D01*
X101025502Y-118006170D01*
X101027395Y-118010741D01*
X101027396Y-118010743D01*
X101080069Y-118137905D01*
X101123864Y-118243636D01*
X101258163Y-118462792D01*
X101261375Y-118466552D01*
X101261378Y-118466557D01*
X101369856Y-118593568D01*
X101425092Y-118658241D01*
X101428854Y-118661454D01*
X101616776Y-118821955D01*
X101616781Y-118821958D01*
X101620541Y-118825170D01*
X101839697Y-118959469D01*
X101844267Y-118961362D01*
X101844271Y-118961364D01*
X102072590Y-119055937D01*
X102077163Y-119057831D01*
X102129704Y-119070445D01*
X102322280Y-119116679D01*
X102322286Y-119116680D01*
X102327093Y-119117834D01*
X102583333Y-119138000D01*
X102839573Y-119117834D01*
X102844380Y-119116680D01*
X102844386Y-119116679D01*
X103036962Y-119070445D01*
X103089503Y-119057831D01*
X103094076Y-119055937D01*
X103322395Y-118961364D01*
X103322399Y-118961362D01*
X103326969Y-118959469D01*
X103546125Y-118825170D01*
X103549885Y-118821958D01*
X103549890Y-118821955D01*
X103737812Y-118661454D01*
X103741574Y-118658241D01*
X103796810Y-118593568D01*
X103905288Y-118466557D01*
X103905291Y-118466552D01*
X103908503Y-118462792D01*
X104042802Y-118243636D01*
X104086598Y-118137905D01*
X104139270Y-118010743D01*
X104139271Y-118010741D01*
X104141164Y-118006170D01*
X104165454Y-117904996D01*
X104200012Y-117761053D01*
X104200013Y-117761047D01*
X104201167Y-117756240D01*
X104221333Y-117500000D01*
X113445333Y-117500000D01*
X113465499Y-117756240D01*
X113466653Y-117761047D01*
X113466654Y-117761053D01*
X113501212Y-117904996D01*
X113525502Y-118006170D01*
X113527395Y-118010741D01*
X113527396Y-118010743D01*
X113580069Y-118137905D01*
X113623864Y-118243636D01*
X113758163Y-118462792D01*
X113761375Y-118466552D01*
X113761378Y-118466557D01*
X113869856Y-118593568D01*
X113925092Y-118658241D01*
X113928854Y-118661454D01*
X114116776Y-118821955D01*
X114116781Y-118821958D01*
X114120541Y-118825170D01*
X114339697Y-118959469D01*
X114344267Y-118961362D01*
X114344271Y-118961364D01*
X114572590Y-119055937D01*
X114577163Y-119057831D01*
X114629704Y-119070445D01*
X114822280Y-119116679D01*
X114822286Y-119116680D01*
X114827093Y-119117834D01*
X115083333Y-119138000D01*
X115339573Y-119117834D01*
X115344380Y-119116680D01*
X115344386Y-119116679D01*
X115536962Y-119070445D01*
X115589503Y-119057831D01*
X115594076Y-119055937D01*
X115822395Y-118961364D01*
X115822399Y-118961362D01*
X115826969Y-118959469D01*
X116046125Y-118825170D01*
X116049885Y-118821958D01*
X116049890Y-118821955D01*
X116237812Y-118661454D01*
X116241574Y-118658241D01*
X116296810Y-118593568D01*
X116405288Y-118466557D01*
X116405291Y-118466552D01*
X116408503Y-118462792D01*
X116542802Y-118243636D01*
X116586598Y-118137905D01*
X116639270Y-118010743D01*
X116639271Y-118010741D01*
X116641164Y-118006170D01*
X116665454Y-117904996D01*
X116700012Y-117761053D01*
X116700013Y-117761047D01*
X116701167Y-117756240D01*
X116721333Y-117500000D01*
X129278666Y-117500000D01*
X129298832Y-117756240D01*
X129299986Y-117761047D01*
X129299987Y-117761053D01*
X129334545Y-117904996D01*
X129358835Y-118006170D01*
X129360728Y-118010741D01*
X129360729Y-118010743D01*
X129413402Y-118137905D01*
X129457197Y-118243636D01*
X129591496Y-118462792D01*
X129594708Y-118466552D01*
X129594711Y-118466557D01*
X129703189Y-118593568D01*
X129758425Y-118658241D01*
X129762187Y-118661454D01*
X129950109Y-118821955D01*
X129950114Y-118821958D01*
X129953874Y-118825170D01*
X130173030Y-118959469D01*
X130177600Y-118961362D01*
X130177604Y-118961364D01*
X130405923Y-119055937D01*
X130410496Y-119057831D01*
X130463037Y-119070445D01*
X130655613Y-119116679D01*
X130655619Y-119116680D01*
X130660426Y-119117834D01*
X130916666Y-119138000D01*
X131172906Y-119117834D01*
X131177713Y-119116680D01*
X131177719Y-119116679D01*
X131370295Y-119070445D01*
X131422836Y-119057831D01*
X131427409Y-119055937D01*
X131655728Y-118961364D01*
X131655732Y-118961362D01*
X131660302Y-118959469D01*
X131879458Y-118825170D01*
X131883218Y-118821958D01*
X131883223Y-118821955D01*
X132071145Y-118661454D01*
X132074907Y-118658241D01*
X132130143Y-118593568D01*
X132238621Y-118466557D01*
X132238624Y-118466552D01*
X132241836Y-118462792D01*
X132376135Y-118243636D01*
X132419931Y-118137905D01*
X132472603Y-118010743D01*
X132472604Y-118010741D01*
X132474497Y-118006170D01*
X132498787Y-117904996D01*
X132533345Y-117761053D01*
X132533346Y-117761047D01*
X132534500Y-117756240D01*
X132554666Y-117500000D01*
X141778666Y-117500000D01*
X141798832Y-117756240D01*
X141799986Y-117761047D01*
X141799987Y-117761053D01*
X141834545Y-117904996D01*
X141858835Y-118006170D01*
X141860728Y-118010741D01*
X141860729Y-118010743D01*
X141913402Y-118137905D01*
X141957197Y-118243636D01*
X142091496Y-118462792D01*
X142094708Y-118466552D01*
X142094711Y-118466557D01*
X142203189Y-118593568D01*
X142258425Y-118658241D01*
X142262187Y-118661454D01*
X142450109Y-118821955D01*
X142450114Y-118821958D01*
X142453874Y-118825170D01*
X142673030Y-118959469D01*
X142677600Y-118961362D01*
X142677604Y-118961364D01*
X142905923Y-119055937D01*
X142910496Y-119057831D01*
X142963037Y-119070445D01*
X143155613Y-119116679D01*
X143155619Y-119116680D01*
X143160426Y-119117834D01*
X143416666Y-119138000D01*
X143672906Y-119117834D01*
X143677713Y-119116680D01*
X143677719Y-119116679D01*
X143870295Y-119070445D01*
X143922836Y-119057831D01*
X143927409Y-119055937D01*
X144155728Y-118961364D01*
X144155732Y-118961362D01*
X144160302Y-118959469D01*
X144379458Y-118825170D01*
X144383218Y-118821958D01*
X144383223Y-118821955D01*
X144571145Y-118661454D01*
X144574907Y-118658241D01*
X144630143Y-118593568D01*
X144738621Y-118466557D01*
X144738624Y-118466552D01*
X144741836Y-118462792D01*
X144876135Y-118243636D01*
X144919931Y-118137905D01*
X144972603Y-118010743D01*
X144972604Y-118010741D01*
X144974497Y-118006170D01*
X144998787Y-117904996D01*
X145033345Y-117761053D01*
X145033346Y-117761047D01*
X145034500Y-117756240D01*
X145054666Y-117500000D01*
X157612000Y-117500000D01*
X157632166Y-117756240D01*
X157633320Y-117761047D01*
X157633321Y-117761053D01*
X157667879Y-117904996D01*
X157692169Y-118006170D01*
X157694062Y-118010741D01*
X157694063Y-118010743D01*
X157746736Y-118137905D01*
X157790531Y-118243636D01*
X157924830Y-118462792D01*
X157928042Y-118466552D01*
X157928045Y-118466557D01*
X158036523Y-118593568D01*
X158091759Y-118658241D01*
X158095521Y-118661454D01*
X158283443Y-118821955D01*
X158283448Y-118821958D01*
X158287208Y-118825170D01*
X158506364Y-118959469D01*
X158510934Y-118961362D01*
X158510938Y-118961364D01*
X158739257Y-119055937D01*
X158743830Y-119057831D01*
X158796371Y-119070445D01*
X158988947Y-119116679D01*
X158988953Y-119116680D01*
X158993760Y-119117834D01*
X159250000Y-119138000D01*
X159506240Y-119117834D01*
X159511047Y-119116680D01*
X159511053Y-119116679D01*
X159703629Y-119070445D01*
X159756170Y-119057831D01*
X159760743Y-119055937D01*
X159989062Y-118961364D01*
X159989066Y-118961362D01*
X159993636Y-118959469D01*
X160212792Y-118825170D01*
X160216552Y-118821958D01*
X160216557Y-118821955D01*
X160404479Y-118661454D01*
X160408241Y-118658241D01*
X160463477Y-118593568D01*
X160571955Y-118466557D01*
X160571958Y-118466552D01*
X160575170Y-118462792D01*
X160709469Y-118243636D01*
X160753265Y-118137905D01*
X160805937Y-118010743D01*
X160805938Y-118010741D01*
X160807831Y-118006170D01*
X160832121Y-117904996D01*
X160866679Y-117761053D01*
X160866680Y-117761047D01*
X160867834Y-117756240D01*
X160888000Y-117500000D01*
X170112000Y-117500000D01*
X170132166Y-117756240D01*
X170133320Y-117761047D01*
X170133321Y-117761053D01*
X170167879Y-117904996D01*
X170192169Y-118006170D01*
X170194062Y-118010741D01*
X170194063Y-118010743D01*
X170246736Y-118137905D01*
X170290531Y-118243636D01*
X170424830Y-118462792D01*
X170428042Y-118466552D01*
X170428045Y-118466557D01*
X170536523Y-118593568D01*
X170591759Y-118658241D01*
X170595521Y-118661454D01*
X170783443Y-118821955D01*
X170783448Y-118821958D01*
X170787208Y-118825170D01*
X171006364Y-118959469D01*
X171010934Y-118961362D01*
X171010938Y-118961364D01*
X171239257Y-119055937D01*
X171243830Y-119057831D01*
X171296371Y-119070445D01*
X171488947Y-119116679D01*
X171488953Y-119116680D01*
X171493760Y-119117834D01*
X171750000Y-119138000D01*
X172006240Y-119117834D01*
X172011047Y-119116680D01*
X172011053Y-119116679D01*
X172203629Y-119070445D01*
X172256170Y-119057831D01*
X172260743Y-119055937D01*
X172489062Y-118961364D01*
X172489066Y-118961362D01*
X172493636Y-118959469D01*
X172712792Y-118825170D01*
X172716552Y-118821958D01*
X172716557Y-118821955D01*
X172904479Y-118661454D01*
X172908241Y-118658241D01*
X172963477Y-118593568D01*
X173071955Y-118466557D01*
X173071958Y-118466552D01*
X173075170Y-118462792D01*
X173209469Y-118243636D01*
X173253265Y-118137905D01*
X173305937Y-118010743D01*
X173305938Y-118010741D01*
X173307831Y-118006170D01*
X173332121Y-117904996D01*
X173366679Y-117761053D01*
X173366680Y-117761047D01*
X173367834Y-117756240D01*
X173388000Y-117500000D01*
X173367834Y-117243760D01*
X173366680Y-117238953D01*
X173366679Y-117238947D01*
X173317583Y-117034450D01*
X173307831Y-116993830D01*
X173305937Y-116989257D01*
X173211364Y-116760938D01*
X173211362Y-116760934D01*
X173209469Y-116756364D01*
X173075170Y-116537208D01*
X173071958Y-116533448D01*
X173071955Y-116533443D01*
X172911454Y-116345521D01*
X172908241Y-116341759D01*
X172867034Y-116306565D01*
X172716557Y-116178045D01*
X172716552Y-116178042D01*
X172712792Y-116174830D01*
X172493636Y-116040531D01*
X172489066Y-116038638D01*
X172489062Y-116038636D01*
X172260743Y-115944063D01*
X172260741Y-115944062D01*
X172256170Y-115942169D01*
X172166046Y-115920532D01*
X172011053Y-115883321D01*
X172011047Y-115883320D01*
X172006240Y-115882166D01*
X171750000Y-115862000D01*
X171493760Y-115882166D01*
X171488953Y-115883320D01*
X171488947Y-115883321D01*
X171333954Y-115920532D01*
X171243830Y-115942169D01*
X171239259Y-115944062D01*
X171239257Y-115944063D01*
X171010938Y-116038636D01*
X171010934Y-116038638D01*
X171006364Y-116040531D01*
X170787208Y-116174830D01*
X170783448Y-116178042D01*
X170783443Y-116178045D01*
X170632966Y-116306565D01*
X170591759Y-116341759D01*
X170588546Y-116345521D01*
X170428045Y-116533443D01*
X170428042Y-116533448D01*
X170424830Y-116537208D01*
X170290531Y-116756364D01*
X170288638Y-116760934D01*
X170288636Y-116760938D01*
X170194063Y-116989257D01*
X170192169Y-116993830D01*
X170182417Y-117034450D01*
X170133321Y-117238947D01*
X170133320Y-117238953D01*
X170132166Y-117243760D01*
X170112000Y-117500000D01*
X160888000Y-117500000D01*
X160867834Y-117243760D01*
X160866680Y-117238953D01*
X160866679Y-117238947D01*
X160817583Y-117034450D01*
X160807831Y-116993830D01*
X160805937Y-116989257D01*
X160711364Y-116760938D01*
X160711362Y-116760934D01*
X160709469Y-116756364D01*
X160575170Y-116537208D01*
X160571958Y-116533448D01*
X160571955Y-116533443D01*
X160411454Y-116345521D01*
X160408241Y-116341759D01*
X160367034Y-116306565D01*
X160216557Y-116178045D01*
X160216552Y-116178042D01*
X160212792Y-116174830D01*
X159993636Y-116040531D01*
X159989066Y-116038638D01*
X159989062Y-116038636D01*
X159760743Y-115944063D01*
X159760741Y-115944062D01*
X159756170Y-115942169D01*
X159666046Y-115920532D01*
X159511053Y-115883321D01*
X159511047Y-115883320D01*
X159506240Y-115882166D01*
X159250000Y-115862000D01*
X158993760Y-115882166D01*
X158988953Y-115883320D01*
X158988947Y-115883321D01*
X158833954Y-115920532D01*
X158743830Y-115942169D01*
X158739259Y-115944062D01*
X158739257Y-115944063D01*
X158510938Y-116038636D01*
X158510934Y-116038638D01*
X158506364Y-116040531D01*
X158287208Y-116174830D01*
X158283448Y-116178042D01*
X158283443Y-116178045D01*
X158132966Y-116306565D01*
X158091759Y-116341759D01*
X158088546Y-116345521D01*
X157928045Y-116533443D01*
X157928042Y-116533448D01*
X157924830Y-116537208D01*
X157790531Y-116756364D01*
X157788638Y-116760934D01*
X157788636Y-116760938D01*
X157694063Y-116989257D01*
X157692169Y-116993830D01*
X157682417Y-117034450D01*
X157633321Y-117238947D01*
X157633320Y-117238953D01*
X157632166Y-117243760D01*
X157612000Y-117500000D01*
X145054666Y-117500000D01*
X145034500Y-117243760D01*
X145033346Y-117238953D01*
X145033345Y-117238947D01*
X144984249Y-117034450D01*
X144974497Y-116993830D01*
X144972603Y-116989257D01*
X144878030Y-116760938D01*
X144878028Y-116760934D01*
X144876135Y-116756364D01*
X144741836Y-116537208D01*
X144738624Y-116533448D01*
X144738621Y-116533443D01*
X144578120Y-116345521D01*
X144574907Y-116341759D01*
X144533700Y-116306565D01*
X144383223Y-116178045D01*
X144383218Y-116178042D01*
X144379458Y-116174830D01*
X144160302Y-116040531D01*
X144155732Y-116038638D01*
X144155728Y-116038636D01*
X143927409Y-115944063D01*
X143927407Y-115944062D01*
X143922836Y-115942169D01*
X143832712Y-115920532D01*
X143677719Y-115883321D01*
X143677713Y-115883320D01*
X143672906Y-115882166D01*
X143416666Y-115862000D01*
X143160426Y-115882166D01*
X143155619Y-115883320D01*
X143155613Y-115883321D01*
X143000620Y-115920532D01*
X142910496Y-115942169D01*
X142905925Y-115944062D01*
X142905923Y-115944063D01*
X142677604Y-116038636D01*
X142677600Y-116038638D01*
X142673030Y-116040531D01*
X142453874Y-116174830D01*
X142450114Y-116178042D01*
X142450109Y-116178045D01*
X142299632Y-116306565D01*
X142258425Y-116341759D01*
X142255212Y-116345521D01*
X142094711Y-116533443D01*
X142094708Y-116533448D01*
X142091496Y-116537208D01*
X141957197Y-116756364D01*
X141955304Y-116760934D01*
X141955302Y-116760938D01*
X141860729Y-116989257D01*
X141858835Y-116993830D01*
X141849083Y-117034450D01*
X141799987Y-117238947D01*
X141799986Y-117238953D01*
X141798832Y-117243760D01*
X141778666Y-117500000D01*
X132554666Y-117500000D01*
X132534500Y-117243760D01*
X132533346Y-117238953D01*
X132533345Y-117238947D01*
X132484249Y-117034450D01*
X132474497Y-116993830D01*
X132472603Y-116989257D01*
X132378030Y-116760938D01*
X132378028Y-116760934D01*
X132376135Y-116756364D01*
X132241836Y-116537208D01*
X132238624Y-116533448D01*
X132238621Y-116533443D01*
X132078120Y-116345521D01*
X132074907Y-116341759D01*
X132033700Y-116306565D01*
X131883223Y-116178045D01*
X131883218Y-116178042D01*
X131879458Y-116174830D01*
X131660302Y-116040531D01*
X131655732Y-116038638D01*
X131655728Y-116038636D01*
X131427409Y-115944063D01*
X131427407Y-115944062D01*
X131422836Y-115942169D01*
X131332712Y-115920532D01*
X131177719Y-115883321D01*
X131177713Y-115883320D01*
X131172906Y-115882166D01*
X130916666Y-115862000D01*
X130660426Y-115882166D01*
X130655619Y-115883320D01*
X130655613Y-115883321D01*
X130500620Y-115920532D01*
X130410496Y-115942169D01*
X130405925Y-115944062D01*
X130405923Y-115944063D01*
X130177604Y-116038636D01*
X130177600Y-116038638D01*
X130173030Y-116040531D01*
X129953874Y-116174830D01*
X129950114Y-116178042D01*
X129950109Y-116178045D01*
X129799632Y-116306565D01*
X129758425Y-116341759D01*
X129755212Y-116345521D01*
X129594711Y-116533443D01*
X129594708Y-116533448D01*
X129591496Y-116537208D01*
X129457197Y-116756364D01*
X129455304Y-116760934D01*
X129455302Y-116760938D01*
X129360729Y-116989257D01*
X129358835Y-116993830D01*
X129349083Y-117034450D01*
X129299987Y-117238947D01*
X129299986Y-117238953D01*
X129298832Y-117243760D01*
X129278666Y-117500000D01*
X116721333Y-117500000D01*
X116701167Y-117243760D01*
X116700013Y-117238953D01*
X116700012Y-117238947D01*
X116650916Y-117034450D01*
X116641164Y-116993830D01*
X116639270Y-116989257D01*
X116544697Y-116760938D01*
X116544695Y-116760934D01*
X116542802Y-116756364D01*
X116408503Y-116537208D01*
X116405291Y-116533448D01*
X116405288Y-116533443D01*
X116244787Y-116345521D01*
X116241574Y-116341759D01*
X116200367Y-116306565D01*
X116049890Y-116178045D01*
X116049885Y-116178042D01*
X116046125Y-116174830D01*
X115826969Y-116040531D01*
X115822399Y-116038638D01*
X115822395Y-116038636D01*
X115594076Y-115944063D01*
X115594074Y-115944062D01*
X115589503Y-115942169D01*
X115499379Y-115920532D01*
X115344386Y-115883321D01*
X115344380Y-115883320D01*
X115339573Y-115882166D01*
X115083333Y-115862000D01*
X114827093Y-115882166D01*
X114822286Y-115883320D01*
X114822280Y-115883321D01*
X114667287Y-115920532D01*
X114577163Y-115942169D01*
X114572592Y-115944062D01*
X114572590Y-115944063D01*
X114344271Y-116038636D01*
X114344267Y-116038638D01*
X114339697Y-116040531D01*
X114120541Y-116174830D01*
X114116781Y-116178042D01*
X114116776Y-116178045D01*
X113966299Y-116306565D01*
X113925092Y-116341759D01*
X113921879Y-116345521D01*
X113761378Y-116533443D01*
X113761375Y-116533448D01*
X113758163Y-116537208D01*
X113623864Y-116756364D01*
X113621971Y-116760934D01*
X113621969Y-116760938D01*
X113527396Y-116989257D01*
X113525502Y-116993830D01*
X113515750Y-117034450D01*
X113466654Y-117238947D01*
X113466653Y-117238953D01*
X113465499Y-117243760D01*
X113445333Y-117500000D01*
X104221333Y-117500000D01*
X104201167Y-117243760D01*
X104200013Y-117238953D01*
X104200012Y-117238947D01*
X104150916Y-117034450D01*
X104141164Y-116993830D01*
X104139270Y-116989257D01*
X104044697Y-116760938D01*
X104044695Y-116760934D01*
X104042802Y-116756364D01*
X103908503Y-116537208D01*
X103905291Y-116533448D01*
X103905288Y-116533443D01*
X103744787Y-116345521D01*
X103741574Y-116341759D01*
X103700367Y-116306565D01*
X103549890Y-116178045D01*
X103549885Y-116178042D01*
X103546125Y-116174830D01*
X103326969Y-116040531D01*
X103322399Y-116038638D01*
X103322395Y-116038636D01*
X103094076Y-115944063D01*
X103094074Y-115944062D01*
X103089503Y-115942169D01*
X102999379Y-115920532D01*
X102844386Y-115883321D01*
X102844380Y-115883320D01*
X102839573Y-115882166D01*
X102583333Y-115862000D01*
X102327093Y-115882166D01*
X102322286Y-115883320D01*
X102322280Y-115883321D01*
X102167287Y-115920532D01*
X102077163Y-115942169D01*
X102072592Y-115944062D01*
X102072590Y-115944063D01*
X101844271Y-116038636D01*
X101844267Y-116038638D01*
X101839697Y-116040531D01*
X101620541Y-116174830D01*
X101616781Y-116178042D01*
X101616776Y-116178045D01*
X101466299Y-116306565D01*
X101425092Y-116341759D01*
X101421879Y-116345521D01*
X101261378Y-116533443D01*
X101261375Y-116533448D01*
X101258163Y-116537208D01*
X101123864Y-116756364D01*
X101121971Y-116760934D01*
X101121969Y-116760938D01*
X101027396Y-116989257D01*
X101025502Y-116993830D01*
X101015750Y-117034450D01*
X100966654Y-117238947D01*
X100966653Y-117238953D01*
X100965499Y-117243760D01*
X100945333Y-117500000D01*
X94562500Y-117500000D01*
X94562500Y-113209038D01*
X94563933Y-113190088D01*
X94565932Y-113176951D01*
X94565932Y-113176947D01*
X94567032Y-113169717D01*
X94566306Y-113160783D01*
X94562915Y-113119101D01*
X94562500Y-113108886D01*
X94562500Y-113100046D01*
X94558998Y-113070008D01*
X94558567Y-113065652D01*
X94553215Y-112999842D01*
X94553214Y-112999839D01*
X94552621Y-112992543D01*
X94550365Y-112985580D01*
X94549164Y-112979568D01*
X94547763Y-112973639D01*
X94546915Y-112966369D01*
X94521870Y-112897371D01*
X94520447Y-112893226D01*
X94518085Y-112885933D01*
X94497838Y-112823436D01*
X94494039Y-112817174D01*
X94491488Y-112811603D01*
X94488761Y-112806158D01*
X94486263Y-112799277D01*
X94446022Y-112737899D01*
X94443698Y-112734215D01*
X94408535Y-112676267D01*
X94408533Y-112676265D01*
X94405622Y-112671467D01*
X94401911Y-112667265D01*
X94401907Y-112667260D01*
X94397437Y-112662200D01*
X94395209Y-112659607D01*
X94392813Y-112656741D01*
X94388799Y-112650619D01*
X94337387Y-112601916D01*
X94334946Y-112599540D01*
X94028802Y-112293396D01*
X92928000Y-111192596D01*
X92893975Y-111130283D01*
X92899039Y-111059468D01*
X92941586Y-111002632D01*
X93017095Y-110977500D01*
X105518894Y-110977500D01*
X105537844Y-110978933D01*
X105550981Y-110980932D01*
X105550985Y-110980932D01*
X105558215Y-110982032D01*
X105565507Y-110981439D01*
X105565510Y-110981439D01*
X105608831Y-110977915D01*
X105619046Y-110977500D01*
X105627886Y-110977500D01*
X105636591Y-110976485D01*
X105657902Y-110974001D01*
X105662277Y-110973568D01*
X105692630Y-110971099D01*
X105735388Y-110967621D01*
X105742351Y-110965365D01*
X105748363Y-110964164D01*
X105754290Y-110962763D01*
X105761563Y-110961915D01*
X105830569Y-110936867D01*
X105834700Y-110935449D01*
X105904495Y-110912838D01*
X105910754Y-110909040D01*
X105916309Y-110906496D01*
X105921768Y-110903763D01*
X105928655Y-110901263D01*
X105990037Y-110861019D01*
X105993726Y-110858692D01*
X106025519Y-110839400D01*
X106051664Y-110823535D01*
X106051666Y-110823533D01*
X106056464Y-110820622D01*
X106060675Y-110816903D01*
X106065738Y-110812432D01*
X106068325Y-110810209D01*
X106071191Y-110807813D01*
X106077313Y-110803799D01*
X106126051Y-110752350D01*
X106128428Y-110749909D01*
X111612795Y-105265542D01*
X148655686Y-105265542D01*
X148656443Y-105270545D01*
X148656443Y-105270550D01*
X148681983Y-105439426D01*
X148691975Y-105505495D01*
X148693521Y-105510311D01*
X148693522Y-105510314D01*
X148761327Y-105721501D01*
X148766162Y-105736559D01*
X148876337Y-105952791D01*
X149019666Y-106148625D01*
X149023276Y-106152185D01*
X149146056Y-106273262D01*
X149192462Y-106319025D01*
X149390279Y-106459606D01*
X149394809Y-106461835D01*
X149394814Y-106461838D01*
X149531631Y-106529160D01*
X149608028Y-106566752D01*
X149612872Y-106568233D01*
X149835257Y-106636223D01*
X149835259Y-106636223D01*
X149840105Y-106637705D01*
X150080542Y-106670641D01*
X150150086Y-106668941D01*
X150318091Y-106664836D01*
X150318095Y-106664836D01*
X150323152Y-106664712D01*
X150561692Y-106620070D01*
X150790027Y-106537864D01*
X150805730Y-106529160D01*
X150927182Y-106461838D01*
X151002281Y-106420210D01*
X151006259Y-106417080D01*
X151006263Y-106417077D01*
X151189019Y-106273262D01*
X151189020Y-106273261D01*
X151192995Y-106270133D01*
X151357260Y-106091496D01*
X151490852Y-105888893D01*
X151522229Y-105819077D01*
X151588259Y-105672154D01*
X151588261Y-105672148D01*
X151590333Y-105667538D01*
X151600866Y-105628227D01*
X151651836Y-105438007D01*
X151651836Y-105438005D01*
X151653144Y-105433125D01*
X151677668Y-105191686D01*
X151678000Y-105160000D01*
X151673097Y-105099059D01*
X151658943Y-104923142D01*
X151658942Y-104923138D01*
X151658537Y-104918100D01*
X151600649Y-104682423D01*
X151546253Y-104554272D01*
X151507802Y-104463688D01*
X151507802Y-104463687D01*
X151505826Y-104459033D01*
X151376507Y-104253677D01*
X151286542Y-104151632D01*
X151219365Y-104075435D01*
X151219363Y-104075433D01*
X151216018Y-104071639D01*
X151144079Y-104012547D01*
X151032400Y-103920812D01*
X151032394Y-103920808D01*
X151028490Y-103917601D01*
X150850034Y-103813737D01*
X150823114Y-103798069D01*
X150823112Y-103798068D01*
X150818746Y-103795527D01*
X150773412Y-103778125D01*
X150596907Y-103710371D01*
X150596903Y-103710370D01*
X150592183Y-103708558D01*
X150587233Y-103707524D01*
X150587230Y-103707523D01*
X150494964Y-103688248D01*
X150354629Y-103658930D01*
X150112197Y-103647922D01*
X150107177Y-103648503D01*
X150107173Y-103648503D01*
X149876150Y-103675233D01*
X149876146Y-103675234D01*
X149871123Y-103675815D01*
X149866258Y-103677192D01*
X149866256Y-103677192D01*
X149755411Y-103708558D01*
X149637610Y-103741892D01*
X149633031Y-103744027D01*
X149633029Y-103744028D01*
X149513201Y-103799905D01*
X149417666Y-103844454D01*
X149216948Y-103980862D01*
X149040622Y-104147605D01*
X149037544Y-104151631D01*
X149037543Y-104151632D01*
X148896296Y-104336375D01*
X148896293Y-104336379D01*
X148893223Y-104340395D01*
X148778543Y-104554272D01*
X148699534Y-104783732D01*
X148658227Y-105022873D01*
X148655686Y-105265542D01*
X111612795Y-105265542D01*
X115110789Y-101767548D01*
X160562000Y-101767548D01*
X160562000Y-101946338D01*
X160562424Y-101953639D01*
X160581617Y-102118255D01*
X160584963Y-102132410D01*
X160640263Y-102284761D01*
X160646773Y-102297760D01*
X160735641Y-102433306D01*
X160744965Y-102444458D01*
X160862629Y-102555922D01*
X160874276Y-102564635D01*
X161014429Y-102646043D01*
X161027754Y-102651837D01*
X161183700Y-102699068D01*
X161196323Y-102701516D01*
X161317626Y-102712342D01*
X161330624Y-102708525D01*
X161331829Y-102707135D01*
X161333500Y-102699452D01*
X161333500Y-101772115D01*
X161329025Y-101756876D01*
X161327635Y-101755671D01*
X161319952Y-101754000D01*
X160580115Y-101754000D01*
X160564876Y-101758475D01*
X160563671Y-101759865D01*
X160562000Y-101767548D01*
X115110789Y-101767548D01*
X115825535Y-101052802D01*
X160562000Y-101052802D01*
X160562000Y-101227885D01*
X160566475Y-101243124D01*
X160567865Y-101244329D01*
X160575548Y-101246000D01*
X161315385Y-101246000D01*
X161330624Y-101241525D01*
X161331829Y-101240135D01*
X161333500Y-101232452D01*
X161333500Y-100305115D01*
X161329025Y-100289876D01*
X161327635Y-100288671D01*
X161321788Y-100287399D01*
X161321361Y-100287424D01*
X161156745Y-100306617D01*
X161142590Y-100309963D01*
X160990239Y-100365263D01*
X160977240Y-100371773D01*
X160841694Y-100460641D01*
X160830542Y-100469965D01*
X160719078Y-100587629D01*
X160710365Y-100599276D01*
X160628957Y-100739429D01*
X160623163Y-100752754D01*
X160575932Y-100908700D01*
X160573484Y-100921323D01*
X160562249Y-101047207D01*
X160562000Y-101052802D01*
X115825535Y-101052802D01*
X117610790Y-99267547D01*
X160637000Y-99267547D01*
X160637000Y-99443243D01*
X160638437Y-99456605D01*
X160680962Y-99652089D01*
X160689455Y-99672594D01*
X160757426Y-99778360D01*
X160769112Y-99791847D01*
X160865840Y-99875662D01*
X160880848Y-99885307D01*
X160997275Y-99938477D01*
X161014388Y-99943502D01*
X161145554Y-99962361D01*
X161154495Y-99963000D01*
X161277885Y-99963000D01*
X161293124Y-99958525D01*
X161294329Y-99957135D01*
X161296000Y-99949452D01*
X161296001Y-99272115D01*
X161291526Y-99256876D01*
X161290136Y-99255671D01*
X161282453Y-99254000D01*
X160655115Y-99253999D01*
X160639876Y-99258474D01*
X160638671Y-99259864D01*
X160637000Y-99267547D01*
X117610790Y-99267547D01*
X120732106Y-96146232D01*
X120794418Y-96112206D01*
X120865233Y-96117271D01*
X120922069Y-96159818D01*
X120939607Y-96196417D01*
X120940817Y-96196006D01*
X121024346Y-96442073D01*
X121026550Y-96446315D01*
X121026550Y-96446316D01*
X121123752Y-96633437D01*
X121144134Y-96672675D01*
X121146960Y-96676543D01*
X121146961Y-96676545D01*
X121205797Y-96757082D01*
X121297425Y-96882505D01*
X121300796Y-96885894D01*
X121300798Y-96885896D01*
X121390659Y-96976228D01*
X121480691Y-97066733D01*
X121484537Y-97069574D01*
X121484542Y-97069578D01*
X121589694Y-97147244D01*
X121689714Y-97221120D01*
X121693952Y-97223350D01*
X121693954Y-97223351D01*
X121915450Y-97339886D01*
X121915457Y-97339889D01*
X121919686Y-97342114D01*
X122165313Y-97426930D01*
X122283061Y-97448434D01*
X122416972Y-97472891D01*
X122416975Y-97472891D01*
X122420943Y-97473616D01*
X122504595Y-97478000D01*
X123465731Y-97478000D01*
X123468110Y-97477819D01*
X123468111Y-97477819D01*
X123654343Y-97463653D01*
X123654348Y-97463652D01*
X123659110Y-97463290D01*
X123663763Y-97462211D01*
X123663766Y-97462211D01*
X123907593Y-97405695D01*
X123907592Y-97405695D01*
X123912257Y-97404614D01*
X124153616Y-97308321D01*
X124377632Y-97176629D01*
X124579151Y-97012566D01*
X124628407Y-96958150D01*
X124747980Y-96826048D01*
X124753536Y-96819910D01*
X124896772Y-96603093D01*
X124898955Y-96598359D01*
X125003558Y-96371456D01*
X125003559Y-96371453D01*
X125005564Y-96367104D01*
X125018644Y-96321640D01*
X125076088Y-96121968D01*
X125076089Y-96121963D01*
X125077409Y-96117375D01*
X125110652Y-95859651D01*
X125107058Y-95707124D01*
X125104643Y-95604644D01*
X125104643Y-95604639D01*
X125104530Y-95599865D01*
X125075264Y-95434731D01*
X125060018Y-95348703D01*
X125060017Y-95348697D01*
X125059183Y-95343994D01*
X125044758Y-95301498D01*
X124995644Y-95156816D01*
X124975654Y-95097927D01*
X124936841Y-95023208D01*
X124858075Y-94871577D01*
X124858073Y-94871574D01*
X124855866Y-94867325D01*
X124702575Y-94657495D01*
X124661931Y-94616637D01*
X124522684Y-94476660D01*
X124519309Y-94473267D01*
X124515463Y-94470426D01*
X124515458Y-94470422D01*
X124340206Y-94340979D01*
X124310286Y-94318880D01*
X124302391Y-94314726D01*
X124121258Y-94219427D01*
X129314372Y-94219427D01*
X129325895Y-94233121D01*
X129457392Y-94309963D01*
X129467513Y-94314726D01*
X129667848Y-94388038D01*
X129678633Y-94390928D01*
X129888792Y-94427606D01*
X129899924Y-94428541D01*
X130113244Y-94427424D01*
X130124378Y-94426372D01*
X130334126Y-94387497D01*
X130344897Y-94384490D01*
X130544452Y-94309085D01*
X130554508Y-94304224D01*
X130676910Y-94230967D01*
X130684896Y-94222324D01*
X130677285Y-94206495D01*
X130012812Y-93542022D01*
X129998868Y-93534408D01*
X129997035Y-93534539D01*
X129990420Y-93538790D01*
X129319894Y-94209316D01*
X129314372Y-94219427D01*
X124121258Y-94219427D01*
X124084550Y-94200114D01*
X124084543Y-94200111D01*
X124080314Y-94197886D01*
X123834687Y-94113070D01*
X123716939Y-94091566D01*
X123583028Y-94067109D01*
X123583025Y-94067109D01*
X123579057Y-94066384D01*
X123495405Y-94062000D01*
X123120528Y-94062000D01*
X123052407Y-94041998D01*
X123005914Y-93988342D01*
X122995810Y-93918068D01*
X123031433Y-93846905D01*
X123634640Y-93243698D01*
X128739639Y-93243698D01*
X128740341Y-93254850D01*
X128772608Y-93465717D01*
X128775275Y-93476578D01*
X128844375Y-93678400D01*
X128848923Y-93688614D01*
X128937819Y-93848330D01*
X128945665Y-93856050D01*
X128962520Y-93848270D01*
X129627978Y-93182812D01*
X129634355Y-93171132D01*
X130364408Y-93171132D01*
X130364539Y-93172965D01*
X130368790Y-93179580D01*
X131041337Y-93852127D01*
X131050772Y-93857279D01*
X131065033Y-93844893D01*
X131156449Y-93676524D01*
X131160883Y-93666278D01*
X131227870Y-93463729D01*
X131230420Y-93452856D01*
X131260758Y-93239692D01*
X131261364Y-93232474D01*
X131262905Y-93173632D01*
X131262677Y-93166379D01*
X131243538Y-92951937D01*
X131241556Y-92940923D01*
X131185267Y-92735165D01*
X131181373Y-92724692D01*
X131089533Y-92532146D01*
X131083841Y-92522523D01*
X131062154Y-92492341D01*
X131051363Y-92483929D01*
X131038327Y-92490883D01*
X130372022Y-93157188D01*
X130364408Y-93171132D01*
X129634355Y-93171132D01*
X129635592Y-93168868D01*
X129635461Y-93167035D01*
X129631210Y-93160420D01*
X128961770Y-92490980D01*
X128951004Y-92485101D01*
X128937921Y-92495763D01*
X128877640Y-92591859D01*
X128872567Y-92601815D01*
X128792998Y-92799747D01*
X128789767Y-92810447D01*
X128746508Y-93019337D01*
X128745223Y-93030444D01*
X128739639Y-93243698D01*
X123634640Y-93243698D01*
X124908933Y-91969405D01*
X124998028Y-91932500D01*
X128938746Y-91932500D01*
X129006867Y-91952502D01*
X129036250Y-91978694D01*
X129097621Y-92053675D01*
X129101889Y-92057320D01*
X129264103Y-92195864D01*
X129264107Y-92195867D01*
X129268368Y-92199506D01*
X129462241Y-92312797D01*
X129467511Y-92314726D01*
X129467512Y-92314726D01*
X129498836Y-92326189D01*
X129544630Y-92355420D01*
X129987188Y-92797978D01*
X130001132Y-92805592D01*
X130002965Y-92805461D01*
X130009580Y-92801210D01*
X130456560Y-92354230D01*
X130501117Y-92325460D01*
X130549697Y-92307103D01*
X130554505Y-92304225D01*
X130554510Y-92304223D01*
X130667372Y-92236676D01*
X130742373Y-92191788D01*
X130911583Y-92044177D01*
X130988707Y-91947911D01*
X131048474Y-91873311D01*
X131048477Y-91873306D01*
X131051980Y-91868934D01*
X131055404Y-91862629D01*
X131106802Y-91767963D01*
X131159124Y-91671598D01*
X131229630Y-91458407D01*
X131244425Y-91354454D01*
X131260758Y-91239692D01*
X131260758Y-91239688D01*
X131261269Y-91236100D01*
X131263000Y-91170000D01*
X131261623Y-91154565D01*
X131244616Y-90964010D01*
X131243039Y-90946342D01*
X131183787Y-90729754D01*
X131179097Y-90719920D01*
X131110412Y-90575920D01*
X131087117Y-90527081D01*
X130956085Y-90344730D01*
X130870185Y-90261487D01*
X130835185Y-90199717D01*
X130839137Y-90128830D01*
X130875041Y-90076054D01*
X130911583Y-90044177D01*
X130985029Y-89952502D01*
X131048474Y-89873311D01*
X131048477Y-89873306D01*
X131051980Y-89868934D01*
X131159124Y-89671598D01*
X131229630Y-89458407D01*
X131261269Y-89236100D01*
X131263000Y-89170000D01*
X131243039Y-88946342D01*
X131183787Y-88729754D01*
X131171198Y-88703359D01*
X131110412Y-88575920D01*
X131087117Y-88527081D01*
X130956085Y-88344730D01*
X130870185Y-88261487D01*
X130835185Y-88199717D01*
X130839137Y-88128830D01*
X130875041Y-88076054D01*
X130911583Y-88044177D01*
X130963224Y-87979719D01*
X131021426Y-87939062D01*
X131061558Y-87932500D01*
X137901973Y-87932500D01*
X137991068Y-87969405D01*
X148514076Y-98492413D01*
X148526462Y-98506825D01*
X148534343Y-98517533D01*
X148538686Y-98523434D01*
X148544264Y-98528173D01*
X148544267Y-98528176D01*
X148577407Y-98556330D01*
X148584923Y-98563260D01*
X148591156Y-98569493D01*
X148614837Y-98588228D01*
X148618202Y-98590987D01*
X148674157Y-98638525D01*
X148680674Y-98641853D01*
X148685762Y-98645246D01*
X148690963Y-98648458D01*
X148696700Y-98652997D01*
X148740020Y-98673244D01*
X148763169Y-98684063D01*
X148767119Y-98685994D01*
X148832471Y-98719364D01*
X148839574Y-98721102D01*
X148845297Y-98723231D01*
X148851110Y-98725164D01*
X148857739Y-98728262D01*
X148929575Y-98743204D01*
X148933864Y-98744175D01*
X148999683Y-98760281D01*
X148999686Y-98760282D01*
X149005136Y-98761615D01*
X149010736Y-98761962D01*
X149010740Y-98761963D01*
X149016159Y-98762299D01*
X149017475Y-98762380D01*
X149020868Y-98762637D01*
X149024610Y-98762971D01*
X149031774Y-98764461D01*
X149102548Y-98762546D01*
X149105956Y-98762500D01*
X161678000Y-98762500D01*
X161746121Y-98782502D01*
X161792614Y-98836158D01*
X161804000Y-98888500D01*
X161803999Y-99944885D01*
X161808474Y-99960124D01*
X161809864Y-99961329D01*
X161817547Y-99963000D01*
X161943243Y-99963000D01*
X161956605Y-99961563D01*
X162152089Y-99919038D01*
X162172594Y-99910545D01*
X162278360Y-99842574D01*
X162291847Y-99830888D01*
X162375662Y-99734160D01*
X162385306Y-99719152D01*
X162386686Y-99716131D01*
X162388861Y-99713622D01*
X162390179Y-99711570D01*
X162390474Y-99711760D01*
X162433180Y-99662477D01*
X162501302Y-99642476D01*
X162569422Y-99662479D01*
X162607294Y-99700352D01*
X162662300Y-99785944D01*
X162660329Y-99787212D01*
X162687500Y-99860063D01*
X162687501Y-100386023D01*
X162652974Y-100472676D01*
X162592813Y-100536183D01*
X162531443Y-100571881D01*
X162460517Y-100568733D01*
X162414687Y-100541003D01*
X162312371Y-100444078D01*
X162300724Y-100435365D01*
X162160571Y-100353957D01*
X162147246Y-100348163D01*
X161991300Y-100300932D01*
X161978677Y-100298484D01*
X161857374Y-100287658D01*
X161844376Y-100291475D01*
X161843171Y-100292865D01*
X161841500Y-100300548D01*
X161841500Y-102694885D01*
X161845975Y-102710124D01*
X161847365Y-102711329D01*
X161853212Y-102712601D01*
X161853639Y-102712576D01*
X162018255Y-102693383D01*
X162032410Y-102690037D01*
X162184761Y-102634737D01*
X162197760Y-102628227D01*
X162333306Y-102539359D01*
X162344458Y-102530035D01*
X162407187Y-102463817D01*
X162468556Y-102428119D01*
X162539483Y-102431267D01*
X162585311Y-102458996D01*
X162610654Y-102483002D01*
X162650001Y-102574475D01*
X162650000Y-103425609D01*
X162615474Y-103512261D01*
X162592814Y-103536182D01*
X162531445Y-103571881D01*
X162460518Y-103568734D01*
X162414687Y-103541003D01*
X162384347Y-103512261D01*
X162307055Y-103439042D01*
X162154246Y-103350283D01*
X161985116Y-103299059D01*
X161978680Y-103298485D01*
X161978677Y-103298484D01*
X161852793Y-103287249D01*
X161852787Y-103287249D01*
X161850000Y-103287000D01*
X161325000Y-103287000D01*
X161321366Y-103287424D01*
X161321361Y-103287424D01*
X161205505Y-103300932D01*
X161149472Y-103307465D01*
X160983360Y-103367760D01*
X160835574Y-103464653D01*
X160714042Y-103592945D01*
X160710366Y-103599274D01*
X160710362Y-103599279D01*
X160666505Y-103674785D01*
X160614994Y-103723644D01*
X160557551Y-103737500D01*
X154666106Y-103737500D01*
X154647156Y-103736067D01*
X154634019Y-103734068D01*
X154634015Y-103734068D01*
X154626785Y-103732968D01*
X154619493Y-103733561D01*
X154619490Y-103733561D01*
X154576169Y-103737085D01*
X154565954Y-103737500D01*
X154557114Y-103737500D01*
X154527076Y-103741002D01*
X154522738Y-103741431D01*
X154491334Y-103743986D01*
X154456910Y-103746785D01*
X154456907Y-103746786D01*
X154449611Y-103747379D01*
X154442648Y-103749635D01*
X154436636Y-103750836D01*
X154430707Y-103752237D01*
X154423437Y-103753085D01*
X154354439Y-103778130D01*
X154350308Y-103779548D01*
X154280504Y-103802162D01*
X154274242Y-103805961D01*
X154268671Y-103808512D01*
X154263226Y-103811239D01*
X154256345Y-103813737D01*
X154194967Y-103853978D01*
X154191294Y-103856295D01*
X154164364Y-103872637D01*
X154149354Y-103881745D01*
X154128535Y-103894378D01*
X154124333Y-103898089D01*
X154124328Y-103898093D01*
X154119268Y-103902563D01*
X154116675Y-103904791D01*
X154113809Y-103907187D01*
X154107687Y-103911201D01*
X154102654Y-103916514D01*
X154058967Y-103962631D01*
X154056589Y-103965073D01*
X152004068Y-106017596D01*
X151336482Y-106685182D01*
X151273584Y-106719333D01*
X151224179Y-106729835D01*
X151224173Y-106729837D01*
X151217713Y-106731210D01*
X151211683Y-106733895D01*
X151211682Y-106733895D01*
X151049280Y-106806201D01*
X151049278Y-106806202D01*
X151043250Y-106808886D01*
X151037909Y-106812766D01*
X151037908Y-106812767D01*
X150894093Y-106917254D01*
X150894091Y-106917256D01*
X150888749Y-106921137D01*
X150760963Y-107063058D01*
X150665476Y-107228446D01*
X150606462Y-107410073D01*
X150605772Y-107416636D01*
X150605772Y-107416637D01*
X150597741Y-107493048D01*
X150586500Y-107600000D01*
X150606462Y-107789927D01*
X150665476Y-107971554D01*
X150760963Y-108136942D01*
X150765381Y-108141849D01*
X150765382Y-108141850D01*
X150880345Y-108269529D01*
X150888749Y-108278863D01*
X150894091Y-108282744D01*
X150894093Y-108282746D01*
X151011582Y-108368106D01*
X151043250Y-108391114D01*
X151049278Y-108393798D01*
X151049280Y-108393799D01*
X151211682Y-108466105D01*
X151217713Y-108468790D01*
X151311113Y-108488643D01*
X151398056Y-108507124D01*
X151398061Y-108507124D01*
X151404513Y-108508496D01*
X151595487Y-108508496D01*
X151601939Y-108507124D01*
X151601944Y-108507124D01*
X151688887Y-108488643D01*
X151782287Y-108468790D01*
X151788318Y-108466105D01*
X151950720Y-108393799D01*
X151950722Y-108393798D01*
X151956750Y-108391114D01*
X151988418Y-108368106D01*
X152105907Y-108282746D01*
X152105909Y-108282744D01*
X152111251Y-108278863D01*
X152119655Y-108269529D01*
X152234618Y-108141850D01*
X152234619Y-108141849D01*
X152239037Y-108136942D01*
X152334524Y-107971554D01*
X152386659Y-107811099D01*
X152417397Y-107760940D01*
X152698837Y-107479500D01*
X154256286Y-107479500D01*
X154256286Y-113625500D01*
X173943715Y-113625500D01*
X173943715Y-107479500D01*
X154256286Y-107479500D01*
X152698837Y-107479500D01*
X154330481Y-105847856D01*
X177491814Y-105847856D01*
X177492167Y-105851182D01*
X177492167Y-105851191D01*
X177530861Y-106216271D01*
X177531215Y-106219609D01*
X177609897Y-106585071D01*
X177610943Y-106588242D01*
X177610944Y-106588247D01*
X177717867Y-106912500D01*
X177726969Y-106940102D01*
X177881105Y-107280682D01*
X177882800Y-107283566D01*
X177882803Y-107283571D01*
X177980224Y-107449289D01*
X178070559Y-107602955D01*
X178293187Y-107903270D01*
X178546467Y-108178229D01*
X178548995Y-108180446D01*
X178548996Y-108180447D01*
X178825015Y-108422509D01*
X178825020Y-108422513D01*
X178827531Y-108424715D01*
X179133197Y-108639939D01*
X179136114Y-108641559D01*
X179136120Y-108641563D01*
X179309247Y-108737726D01*
X179460002Y-108821463D01*
X179804247Y-108967232D01*
X180162032Y-109075595D01*
X180165315Y-109076218D01*
X180165322Y-109076220D01*
X180310561Y-109103794D01*
X180529307Y-109145324D01*
X180901911Y-109175630D01*
X181088769Y-109170900D01*
X181272272Y-109166256D01*
X181272274Y-109166256D01*
X181275627Y-109166171D01*
X181646221Y-109117052D01*
X181649472Y-109116263D01*
X181649480Y-109116261D01*
X181917133Y-109051261D01*
X182009498Y-109028830D01*
X182012655Y-109027696D01*
X182012660Y-109027695D01*
X182358176Y-108903642D01*
X182358181Y-108903640D01*
X182361342Y-108902505D01*
X182525920Y-108822768D01*
X182694740Y-108740976D01*
X182694747Y-108740972D01*
X182697771Y-108739507D01*
X183014974Y-108541681D01*
X183212303Y-108387233D01*
X183306717Y-108313336D01*
X183306718Y-108313335D01*
X183309359Y-108311268D01*
X183311765Y-108308932D01*
X183311770Y-108308928D01*
X183423948Y-108200029D01*
X183577593Y-108050877D01*
X183816638Y-107763457D01*
X183992010Y-107500000D01*
X184021926Y-107455058D01*
X184021927Y-107455056D01*
X184023787Y-107452262D01*
X184143532Y-107222723D01*
X184195148Y-107123781D01*
X184195150Y-107123777D01*
X184196694Y-107120817D01*
X184197914Y-107117711D01*
X184197918Y-107117703D01*
X184332177Y-106775991D01*
X184332179Y-106775986D01*
X184333401Y-106772875D01*
X184351884Y-106705545D01*
X184431472Y-106415615D01*
X184431473Y-106415613D01*
X184432361Y-106412376D01*
X184492452Y-106043402D01*
X184512995Y-105670131D01*
X184513000Y-105664000D01*
X184512044Y-105646043D01*
X184493287Y-105294029D01*
X184493286Y-105294023D01*
X184493109Y-105290694D01*
X184489865Y-105270550D01*
X184434196Y-104924931D01*
X184434196Y-104924930D01*
X184433662Y-104921616D01*
X184432704Y-104918100D01*
X184336217Y-104564191D01*
X184336217Y-104564190D01*
X184335332Y-104560945D01*
X184216900Y-104257963D01*
X184200456Y-104215895D01*
X184200455Y-104215893D01*
X184199232Y-104212764D01*
X184167476Y-104151632D01*
X184028446Y-103883988D01*
X184028444Y-103883985D01*
X184026903Y-103881018D01*
X183872713Y-103648503D01*
X183822147Y-103572250D01*
X183822145Y-103572248D01*
X183820298Y-103569462D01*
X183581755Y-103281625D01*
X183313976Y-103020766D01*
X183311344Y-103018699D01*
X183311340Y-103018695D01*
X183022631Y-102791912D01*
X183022629Y-102791911D01*
X183019993Y-102789840D01*
X182703136Y-102591461D01*
X182366992Y-102427876D01*
X182363853Y-102426743D01*
X182363844Y-102426739D01*
X182115383Y-102337043D01*
X182015369Y-102300937D01*
X182012110Y-102300140D01*
X182012105Y-102300138D01*
X181655510Y-102212879D01*
X181655502Y-102212877D01*
X181652247Y-102212081D01*
X181648926Y-102211635D01*
X181648921Y-102211634D01*
X181425259Y-102181593D01*
X181281739Y-102162316D01*
X180908040Y-102152204D01*
X180904699Y-102152470D01*
X180904694Y-102152470D01*
X180538732Y-102181593D01*
X180538723Y-102181594D01*
X180535383Y-102181860D01*
X180532088Y-102182480D01*
X180532085Y-102182480D01*
X180171272Y-102250330D01*
X180171264Y-102250332D01*
X180167988Y-102250948D01*
X179810014Y-102358686D01*
X179465515Y-102503854D01*
X179462588Y-102505473D01*
X179462580Y-102505477D01*
X179309799Y-102589991D01*
X179138394Y-102684807D01*
X178832353Y-102899497D01*
X178550859Y-103145493D01*
X178548584Y-103147954D01*
X178548581Y-103147957D01*
X178433514Y-103272436D01*
X178297099Y-103420009D01*
X178073948Y-103719935D01*
X178072250Y-103722813D01*
X178072244Y-103722821D01*
X177901242Y-104012547D01*
X177883931Y-104041877D01*
X177729201Y-104382188D01*
X177682287Y-104523628D01*
X177625312Y-104695403D01*
X177611510Y-104737014D01*
X177532190Y-105102337D01*
X177492141Y-105474021D01*
X177492138Y-105477379D01*
X177492138Y-105477380D01*
X177492118Y-105500490D01*
X177491814Y-105847856D01*
X154330481Y-105847856D01*
X154878932Y-105299405D01*
X154968027Y-105262500D01*
X160555598Y-105262500D01*
X160623719Y-105282502D01*
X160660970Y-105319415D01*
X160739653Y-105439426D01*
X160867945Y-105560958D01*
X161020754Y-105649717D01*
X161189884Y-105700941D01*
X161196320Y-105701515D01*
X161196323Y-105701516D01*
X161322207Y-105712751D01*
X161322213Y-105712751D01*
X161325000Y-105713000D01*
X161850000Y-105713000D01*
X161853634Y-105712576D01*
X161853639Y-105712576D01*
X162018255Y-105693383D01*
X162025528Y-105692535D01*
X162067773Y-105677201D01*
X162184761Y-105634737D01*
X162184762Y-105634737D01*
X162191640Y-105632240D01*
X162339426Y-105535347D01*
X162407187Y-105463817D01*
X162468556Y-105428119D01*
X162539483Y-105431267D01*
X162585312Y-105458996D01*
X162692945Y-105560958D01*
X162845754Y-105649717D01*
X163014884Y-105700941D01*
X163021320Y-105701515D01*
X163021323Y-105701516D01*
X163147207Y-105712751D01*
X163147213Y-105712751D01*
X163150000Y-105713000D01*
X163675000Y-105713000D01*
X163678634Y-105712576D01*
X163678639Y-105712576D01*
X163843255Y-105693383D01*
X163850528Y-105692535D01*
X163892773Y-105677201D01*
X164009761Y-105634737D01*
X164009762Y-105634737D01*
X164016640Y-105632240D01*
X164164426Y-105535347D01*
X164285958Y-105407055D01*
X164374717Y-105254246D01*
X164425941Y-105085116D01*
X164431942Y-105017885D01*
X164437751Y-104952793D01*
X164437751Y-104952787D01*
X164438000Y-104950000D01*
X164438000Y-104050000D01*
X164433634Y-104012547D01*
X164418383Y-103881745D01*
X164417535Y-103874472D01*
X164388222Y-103793714D01*
X164359737Y-103715239D01*
X164359737Y-103715238D01*
X164357240Y-103708360D01*
X164260347Y-103560574D01*
X164214347Y-103516998D01*
X164175000Y-103425525D01*
X164175000Y-102574390D01*
X164209527Y-102487737D01*
X164214014Y-102483001D01*
X164285958Y-102407055D01*
X164374717Y-102254246D01*
X164425941Y-102085116D01*
X164437238Y-101958544D01*
X164437751Y-101952793D01*
X164437751Y-101952787D01*
X164438000Y-101950000D01*
X164438000Y-101050000D01*
X164437174Y-101042911D01*
X164418383Y-100881745D01*
X164417535Y-100874472D01*
X164357240Y-100708360D01*
X164260347Y-100560574D01*
X164255036Y-100555543D01*
X164255032Y-100555538D01*
X164251848Y-100552522D01*
X164251146Y-100550891D01*
X164250337Y-100549923D01*
X164250626Y-100549681D01*
X164212500Y-100461049D01*
X164212500Y-99854048D01*
X164243274Y-99771537D01*
X164256747Y-99755988D01*
X164316472Y-99717604D01*
X164351972Y-99712500D01*
X165145952Y-99712500D01*
X165228464Y-99743275D01*
X165265840Y-99775662D01*
X165265843Y-99775664D01*
X165272651Y-99781563D01*
X165280845Y-99785305D01*
X165280848Y-99785307D01*
X165380657Y-99830888D01*
X165405471Y-99842220D01*
X165414388Y-99843502D01*
X165545554Y-99862361D01*
X165545557Y-99862361D01*
X165550000Y-99863000D01*
X166450000Y-99863000D01*
X166663108Y-99816641D01*
X166678028Y-99807053D01*
X166778360Y-99742574D01*
X166778361Y-99742574D01*
X166785944Y-99737700D01*
X166791847Y-99730888D01*
X166875662Y-99634160D01*
X166875664Y-99634157D01*
X166881563Y-99627349D01*
X166885305Y-99619155D01*
X166885307Y-99619152D01*
X166938477Y-99502725D01*
X166942220Y-99494529D01*
X166956333Y-99396372D01*
X166962361Y-99354446D01*
X166962361Y-99354443D01*
X166963000Y-99350000D01*
X166963000Y-98888500D01*
X166983002Y-98820379D01*
X167036658Y-98773886D01*
X167089000Y-98762500D01*
X167145952Y-98762500D01*
X167228463Y-98793275D01*
X167236225Y-98800000D01*
X167265840Y-98825662D01*
X167265843Y-98825664D01*
X167272651Y-98831563D01*
X167280845Y-98835305D01*
X167280848Y-98835307D01*
X167396498Y-98888122D01*
X167405471Y-98892220D01*
X167414388Y-98893502D01*
X167545554Y-98912361D01*
X167545557Y-98912361D01*
X167550000Y-98913000D01*
X168450000Y-98913000D01*
X168663108Y-98866641D01*
X168726874Y-98825662D01*
X168778360Y-98792574D01*
X168778361Y-98792574D01*
X168785944Y-98787700D01*
X168806081Y-98764461D01*
X168875662Y-98684160D01*
X168875664Y-98684157D01*
X168881563Y-98677349D01*
X168885305Y-98669155D01*
X168885307Y-98669152D01*
X168938477Y-98552725D01*
X168942220Y-98544529D01*
X168951188Y-98482154D01*
X168962361Y-98404446D01*
X168962361Y-98404443D01*
X168963000Y-98400000D01*
X168963000Y-97600000D01*
X168916641Y-97386892D01*
X168888868Y-97343675D01*
X168842574Y-97271640D01*
X168842574Y-97271639D01*
X168837700Y-97264056D01*
X168805713Y-97236339D01*
X168734160Y-97174338D01*
X168734157Y-97174336D01*
X168727349Y-97168437D01*
X168719155Y-97164695D01*
X168719152Y-97164693D01*
X168602725Y-97111523D01*
X168594529Y-97107780D01*
X168557864Y-97102508D01*
X168454446Y-97087639D01*
X168454443Y-97087639D01*
X168450000Y-97087000D01*
X167550000Y-97087000D01*
X167336892Y-97133359D01*
X167327407Y-97139455D01*
X167327406Y-97139455D01*
X167217125Y-97210328D01*
X167214056Y-97212300D01*
X167212789Y-97210328D01*
X167139937Y-97237500D01*
X167089000Y-97237500D01*
X167020879Y-97217498D01*
X166974386Y-97163842D01*
X166963000Y-97111500D01*
X166963000Y-96650000D01*
X166916641Y-96436892D01*
X166871792Y-96367104D01*
X166842574Y-96321640D01*
X166842574Y-96321639D01*
X166837700Y-96314056D01*
X166830889Y-96308154D01*
X166830887Y-96308152D01*
X166805987Y-96286576D01*
X166762500Y-96191352D01*
X166762500Y-95311752D01*
X166793275Y-95229240D01*
X166845076Y-95169457D01*
X166881563Y-95127349D01*
X166895000Y-95097927D01*
X166904620Y-95076863D01*
X166951114Y-95023208D01*
X167019235Y-95003207D01*
X167087355Y-95023210D01*
X167139065Y-95090270D01*
X167148158Y-95118254D01*
X167163160Y-95164425D01*
X167165476Y-95171554D01*
X167260963Y-95336942D01*
X167265381Y-95341849D01*
X167265382Y-95341850D01*
X167341097Y-95425940D01*
X167388749Y-95478863D01*
X167394091Y-95482744D01*
X167394093Y-95482746D01*
X167537908Y-95587233D01*
X167543250Y-95591114D01*
X167549278Y-95593798D01*
X167549280Y-95593799D01*
X167711682Y-95666105D01*
X167717713Y-95668790D01*
X167811113Y-95688643D01*
X167898056Y-95707124D01*
X167898061Y-95707124D01*
X167904513Y-95708496D01*
X168095487Y-95708496D01*
X168101939Y-95707124D01*
X168101944Y-95707124D01*
X168188887Y-95688643D01*
X168282287Y-95668790D01*
X168288318Y-95666105D01*
X168450720Y-95593799D01*
X168450722Y-95593798D01*
X168456750Y-95591114D01*
X168462092Y-95587233D01*
X168605907Y-95482746D01*
X168605909Y-95482744D01*
X168611251Y-95478863D01*
X168658903Y-95425940D01*
X168734618Y-95341850D01*
X168734619Y-95341849D01*
X168739037Y-95336942D01*
X168834524Y-95171554D01*
X168882724Y-95023210D01*
X168891498Y-94996206D01*
X168891498Y-94996205D01*
X168893538Y-94989927D01*
X168898120Y-94946337D01*
X168912810Y-94806565D01*
X168913500Y-94800000D01*
X168893538Y-94610073D01*
X168834524Y-94428446D01*
X168837176Y-94427584D01*
X168829361Y-94369415D01*
X168859450Y-94305110D01*
X168953907Y-94262500D01*
X169161000Y-94262500D01*
X169229121Y-94282502D01*
X169275614Y-94336158D01*
X169287000Y-94388500D01*
X169287000Y-94674999D01*
X169287424Y-94678633D01*
X169287424Y-94678638D01*
X169301574Y-94800000D01*
X169307465Y-94850527D01*
X169309963Y-94857409D01*
X169359735Y-94994529D01*
X169367760Y-95016639D01*
X169464653Y-95164425D01*
X169592945Y-95285957D01*
X169745754Y-95374716D01*
X169914884Y-95425940D01*
X169921320Y-95426514D01*
X169921323Y-95426515D01*
X170047207Y-95437750D01*
X170047213Y-95437750D01*
X170050000Y-95437999D01*
X170440130Y-95437999D01*
X170946337Y-95438000D01*
X170949999Y-95438000D01*
X170953633Y-95437576D01*
X170953638Y-95437576D01*
X171118254Y-95418383D01*
X171125527Y-95417535D01*
X171272385Y-95364229D01*
X171343240Y-95359788D01*
X171405251Y-95394361D01*
X171438726Y-95456970D01*
X171435207Y-95521604D01*
X171418701Y-95572406D01*
X171406462Y-95610073D01*
X171405772Y-95616636D01*
X171405772Y-95616637D01*
X171397795Y-95692535D01*
X171386500Y-95800000D01*
X171387190Y-95806565D01*
X171392770Y-95859651D01*
X171406462Y-95989927D01*
X171465476Y-96171554D01*
X171468779Y-96177276D01*
X171468780Y-96177277D01*
X171477827Y-96192947D01*
X171560963Y-96336942D01*
X171565381Y-96341849D01*
X171565382Y-96341850D01*
X171660880Y-96447911D01*
X171688749Y-96478863D01*
X171694091Y-96482744D01*
X171694093Y-96482746D01*
X171786661Y-96550000D01*
X171843250Y-96591114D01*
X171849278Y-96593798D01*
X171849280Y-96593799D01*
X171965524Y-96645554D01*
X172017713Y-96668790D01*
X172109236Y-96688244D01*
X172198056Y-96707124D01*
X172198061Y-96707124D01*
X172204513Y-96708496D01*
X172395487Y-96708496D01*
X172401939Y-96707124D01*
X172401944Y-96707124D01*
X172490764Y-96688244D01*
X172582287Y-96668790D01*
X172634476Y-96645554D01*
X172750720Y-96593799D01*
X172750722Y-96593798D01*
X172756750Y-96591114D01*
X172813339Y-96550000D01*
X172905907Y-96482746D01*
X172905909Y-96482744D01*
X172911251Y-96478863D01*
X172939120Y-96447911D01*
X173034618Y-96341850D01*
X173034619Y-96341849D01*
X173039037Y-96336942D01*
X173122173Y-96192947D01*
X173131220Y-96177277D01*
X173131221Y-96177276D01*
X173134524Y-96171554D01*
X173193538Y-95989927D01*
X173207231Y-95859651D01*
X173212810Y-95806565D01*
X173213500Y-95800000D01*
X173202205Y-95692535D01*
X173194228Y-95616637D01*
X173194228Y-95616636D01*
X173193538Y-95610073D01*
X173134524Y-95428446D01*
X173079381Y-95332935D01*
X173062500Y-95269936D01*
X173062500Y-94453605D01*
X173063933Y-94434655D01*
X173065932Y-94421518D01*
X173065932Y-94421514D01*
X173067032Y-94414284D01*
X173062915Y-94363668D01*
X173062500Y-94353453D01*
X173062500Y-94344614D01*
X173062078Y-94340992D01*
X173062077Y-94340979D01*
X173059000Y-94314586D01*
X173058567Y-94310210D01*
X173058476Y-94309085D01*
X173052621Y-94237110D01*
X173050366Y-94230150D01*
X173049169Y-94224158D01*
X173047763Y-94218210D01*
X173046915Y-94210937D01*
X173021865Y-94141925D01*
X173020448Y-94137797D01*
X173000096Y-94074973D01*
X173000095Y-94074970D01*
X172997838Y-94068004D01*
X172994037Y-94061740D01*
X172991482Y-94056159D01*
X172988760Y-94050724D01*
X172986263Y-94043845D01*
X172946002Y-93982437D01*
X172943701Y-93978790D01*
X172905621Y-93916035D01*
X172897436Y-93906767D01*
X172895219Y-93904187D01*
X172892813Y-93901309D01*
X172888799Y-93895187D01*
X172837368Y-93846466D01*
X172834927Y-93844089D01*
X172294110Y-93303272D01*
X171749905Y-92759068D01*
X171713000Y-92669973D01*
X171713000Y-92325001D01*
X171711145Y-92309086D01*
X171693383Y-92156746D01*
X171692535Y-92149473D01*
X171659989Y-92059809D01*
X171634737Y-91990240D01*
X171634737Y-91990239D01*
X171632240Y-91983361D01*
X171535347Y-91835575D01*
X171407055Y-91714043D01*
X171254246Y-91625284D01*
X171085116Y-91574060D01*
X171078680Y-91573486D01*
X171078677Y-91573485D01*
X170952793Y-91562250D01*
X170952787Y-91562250D01*
X170950000Y-91562001D01*
X170559870Y-91562001D01*
X170053663Y-91562000D01*
X170050001Y-91562000D01*
X170046367Y-91562424D01*
X170046362Y-91562424D01*
X169881746Y-91581617D01*
X169874473Y-91582465D01*
X169867591Y-91584963D01*
X169811544Y-91605307D01*
X169708361Y-91642760D01*
X169560575Y-91739653D01*
X169439043Y-91867945D01*
X169350283Y-92020754D01*
X169299059Y-92189884D01*
X169298485Y-92196320D01*
X169298484Y-92196323D01*
X169287249Y-92322207D01*
X169287000Y-92325000D01*
X169287000Y-92611500D01*
X169266998Y-92679621D01*
X169213342Y-92726114D01*
X169161000Y-92737500D01*
X168854048Y-92737500D01*
X168771536Y-92706725D01*
X168769015Y-92704540D01*
X168761552Y-92698073D01*
X168734160Y-92674338D01*
X168734157Y-92674336D01*
X168727349Y-92668437D01*
X168719155Y-92664695D01*
X168719152Y-92664693D01*
X168602725Y-92611523D01*
X168594529Y-92607780D01*
X168553041Y-92601815D01*
X168454446Y-92587639D01*
X168454443Y-92587639D01*
X168450000Y-92587000D01*
X167550000Y-92587000D01*
X167336892Y-92633359D01*
X167327407Y-92639455D01*
X167327406Y-92639455D01*
X167264906Y-92679621D01*
X167214056Y-92712300D01*
X167208155Y-92719111D01*
X167208153Y-92719112D01*
X167184225Y-92746727D01*
X167124499Y-92785111D01*
X167053502Y-92785111D01*
X166993776Y-92746728D01*
X166963000Y-92664215D01*
X166963000Y-92150000D01*
X166916641Y-91936892D01*
X166875781Y-91873311D01*
X166842574Y-91821640D01*
X166842574Y-91821639D01*
X166837700Y-91814056D01*
X166830888Y-91808153D01*
X166734160Y-91724338D01*
X166734157Y-91724336D01*
X166727349Y-91718437D01*
X166719155Y-91714695D01*
X166719152Y-91714693D01*
X166602725Y-91661523D01*
X166594529Y-91657780D01*
X166557864Y-91652508D01*
X166454446Y-91637639D01*
X166454443Y-91637639D01*
X166450000Y-91637000D01*
X166217528Y-91637000D01*
X166128435Y-91600097D01*
X164205917Y-89677581D01*
X164193536Y-89663174D01*
X164185655Y-89652465D01*
X164181314Y-89646566D01*
X164142587Y-89613665D01*
X164135071Y-89606735D01*
X164128843Y-89600507D01*
X164125978Y-89598240D01*
X164125971Y-89598234D01*
X164105175Y-89581781D01*
X164101789Y-89579005D01*
X164045843Y-89531475D01*
X164039321Y-89528145D01*
X164034268Y-89524775D01*
X164029044Y-89521549D01*
X164023299Y-89517003D01*
X163956859Y-89485951D01*
X163952913Y-89484023D01*
X163894051Y-89453966D01*
X163894049Y-89453965D01*
X163887529Y-89450636D01*
X163880416Y-89448896D01*
X163874695Y-89446768D01*
X163868891Y-89444837D01*
X163862260Y-89441738D01*
X163790435Y-89426799D01*
X163786163Y-89425832D01*
X163714864Y-89408385D01*
X163709267Y-89408038D01*
X163709262Y-89408037D01*
X163704119Y-89407718D01*
X163702519Y-89407619D01*
X163699126Y-89407363D01*
X163695392Y-89407030D01*
X163688225Y-89405539D01*
X163622454Y-89407319D01*
X163617451Y-89407454D01*
X163614043Y-89407500D01*
X161736106Y-89407500D01*
X161717156Y-89406067D01*
X161704019Y-89404068D01*
X161704015Y-89404068D01*
X161696785Y-89402968D01*
X161689493Y-89403561D01*
X161689490Y-89403561D01*
X161646166Y-89407085D01*
X161635952Y-89407500D01*
X151804000Y-89407500D01*
X151735879Y-89387498D01*
X151689386Y-89333842D01*
X151678000Y-89281500D01*
X151678000Y-89170000D01*
X151631641Y-88956892D01*
X151621379Y-88940923D01*
X151557574Y-88841640D01*
X151557574Y-88841639D01*
X151552700Y-88834056D01*
X151545888Y-88828153D01*
X151449160Y-88744338D01*
X151449157Y-88744336D01*
X151442349Y-88738437D01*
X151434155Y-88734695D01*
X151434152Y-88734693D01*
X151317725Y-88681523D01*
X151309529Y-88677780D01*
X151255418Y-88670000D01*
X151169446Y-88657639D01*
X151169443Y-88657639D01*
X151165000Y-88657000D01*
X149165000Y-88657000D01*
X148951892Y-88703359D01*
X148942407Y-88709455D01*
X148942406Y-88709455D01*
X148836640Y-88777426D01*
X148829056Y-88782300D01*
X148823155Y-88789111D01*
X148823153Y-88789112D01*
X148739338Y-88885840D01*
X148739336Y-88885843D01*
X148733437Y-88892651D01*
X148729695Y-88900845D01*
X148729693Y-88900848D01*
X148704099Y-88956892D01*
X148672780Y-89025471D01*
X148671498Y-89034388D01*
X148652950Y-89163395D01*
X148652000Y-89170000D01*
X148652000Y-91170000D01*
X148698359Y-91383108D01*
X148704455Y-91392593D01*
X148704455Y-91392594D01*
X148731143Y-91434122D01*
X148777300Y-91505944D01*
X148784111Y-91511845D01*
X148784112Y-91511847D01*
X148880840Y-91595662D01*
X148880843Y-91595664D01*
X148887651Y-91601563D01*
X148895845Y-91605305D01*
X148895848Y-91605307D01*
X148986647Y-91646773D01*
X149020471Y-91662220D01*
X149029388Y-91663502D01*
X149160554Y-91682361D01*
X149160557Y-91682361D01*
X149165000Y-91683000D01*
X151165000Y-91683000D01*
X151378108Y-91636641D01*
X151441874Y-91595662D01*
X151493360Y-91562574D01*
X151493361Y-91562574D01*
X151500944Y-91557700D01*
X151507535Y-91550094D01*
X151590662Y-91454160D01*
X151590664Y-91454157D01*
X151596563Y-91447349D01*
X151600305Y-91439155D01*
X151600307Y-91439152D01*
X151653477Y-91322725D01*
X151657220Y-91314529D01*
X151670703Y-91220754D01*
X151677361Y-91174446D01*
X151677361Y-91174443D01*
X151678000Y-91170000D01*
X151678000Y-91058500D01*
X151698002Y-90990379D01*
X151751658Y-90943886D01*
X151804000Y-90932500D01*
X160548814Y-90932500D01*
X160616935Y-90952502D01*
X160663428Y-91006158D01*
X160673532Y-91076432D01*
X160657768Y-91121785D01*
X160622003Y-91183360D01*
X160600283Y-91220754D01*
X160549059Y-91389884D01*
X160548485Y-91396320D01*
X160548484Y-91396323D01*
X160537840Y-91515586D01*
X160537000Y-91525000D01*
X160537000Y-92475000D01*
X160537424Y-92478634D01*
X160537424Y-92478639D01*
X160552331Y-92606498D01*
X160557465Y-92650528D01*
X160559963Y-92657410D01*
X160591470Y-92744210D01*
X160617760Y-92816640D01*
X160714653Y-92964426D01*
X160719965Y-92969458D01*
X160748153Y-92996161D01*
X160787500Y-93087634D01*
X160787501Y-93465196D01*
X160752973Y-93551849D01*
X160719082Y-93587624D01*
X160719076Y-93587632D01*
X160714043Y-93592945D01*
X160625284Y-93745754D01*
X160623164Y-93752754D01*
X160580026Y-93895187D01*
X160574060Y-93914884D01*
X160573485Y-93921322D01*
X160573485Y-93921324D01*
X160567503Y-93988342D01*
X160562000Y-94050000D01*
X160562000Y-94949999D01*
X160562424Y-94953633D01*
X160562424Y-94953638D01*
X160570536Y-95023210D01*
X160582465Y-95125527D01*
X160584963Y-95132409D01*
X160620111Y-95229240D01*
X160642760Y-95291639D01*
X160739653Y-95439425D01*
X160744970Y-95444462D01*
X160744971Y-95444463D01*
X160776100Y-95473952D01*
X160867945Y-95560958D01*
X160874274Y-95564634D01*
X160874275Y-95564635D01*
X160952502Y-95610073D01*
X161020754Y-95649717D01*
X161189884Y-95700941D01*
X161196320Y-95701515D01*
X161196323Y-95701516D01*
X161322207Y-95712751D01*
X161322213Y-95712751D01*
X161325000Y-95713000D01*
X161611501Y-95713000D01*
X161679622Y-95733002D01*
X161726115Y-95786658D01*
X161737501Y-95838999D01*
X161737500Y-95996206D01*
X161737500Y-96145952D01*
X161706725Y-96228464D01*
X161674338Y-96265840D01*
X161674336Y-96265843D01*
X161668437Y-96272651D01*
X161664695Y-96280845D01*
X161664693Y-96280848D01*
X161639099Y-96336892D01*
X161607780Y-96405471D01*
X161606498Y-96414388D01*
X161587950Y-96543395D01*
X161587000Y-96550000D01*
X161587000Y-97111500D01*
X161566998Y-97179621D01*
X161513342Y-97226114D01*
X161461000Y-97237500D01*
X149468028Y-97237500D01*
X149378933Y-97200595D01*
X138855923Y-86677587D01*
X138843537Y-86663175D01*
X138835652Y-86652461D01*
X138831314Y-86646566D01*
X138792587Y-86613665D01*
X138785071Y-86606735D01*
X138778843Y-86600507D01*
X138775978Y-86598240D01*
X138775971Y-86598234D01*
X138755175Y-86581781D01*
X138751789Y-86579005D01*
X138695843Y-86531475D01*
X138689321Y-86528145D01*
X138684268Y-86524775D01*
X138679044Y-86521549D01*
X138673299Y-86517003D01*
X138606859Y-86485951D01*
X138602913Y-86484023D01*
X138544051Y-86453966D01*
X138544049Y-86453965D01*
X138537529Y-86450636D01*
X138530416Y-86448896D01*
X138524695Y-86446768D01*
X138518891Y-86444837D01*
X138512260Y-86441738D01*
X138440435Y-86426799D01*
X138436163Y-86425832D01*
X138364864Y-86408385D01*
X138359267Y-86408038D01*
X138359262Y-86408037D01*
X138354119Y-86407718D01*
X138352519Y-86407619D01*
X138349126Y-86407363D01*
X138345392Y-86407030D01*
X138338225Y-86405539D01*
X138306737Y-86406391D01*
X138267451Y-86407454D01*
X138264043Y-86407500D01*
X131065805Y-86407500D01*
X130997684Y-86387498D01*
X130963484Y-86355027D01*
X130956085Y-86344730D01*
X130852606Y-86244452D01*
X130798860Y-86192368D01*
X130798857Y-86192366D01*
X130794832Y-86188465D01*
X130710172Y-86131576D01*
X130613108Y-86066351D01*
X130613102Y-86066348D01*
X130608455Y-86063225D01*
X130603323Y-86060972D01*
X130603319Y-86060970D01*
X130407988Y-85975225D01*
X130407986Y-85975224D01*
X130402846Y-85972968D01*
X130184503Y-85920549D01*
X130097611Y-85915539D01*
X129965935Y-85907946D01*
X129965932Y-85907946D01*
X129960328Y-85907623D01*
X129737408Y-85934600D01*
X129732046Y-85936250D01*
X129732044Y-85936250D01*
X129650311Y-85961394D01*
X129522787Y-86000625D01*
X129323251Y-86103614D01*
X129145106Y-86240309D01*
X128993983Y-86406391D01*
X128874659Y-86596610D01*
X128790905Y-86804953D01*
X128789768Y-86810444D01*
X128789767Y-86810447D01*
X128775079Y-86881376D01*
X128745370Y-87024834D01*
X128739492Y-87249304D01*
X128773457Y-87471268D01*
X128846192Y-87683708D01*
X128955397Y-87879911D01*
X128958949Y-87884251D01*
X128958952Y-87884255D01*
X129003811Y-87939062D01*
X129097621Y-88053675D01*
X129121032Y-88073669D01*
X129159839Y-88133118D01*
X129160347Y-88204113D01*
X129132394Y-88254278D01*
X129030463Y-88366299D01*
X128937269Y-88407500D01*
X124096106Y-88407500D01*
X124077156Y-88406067D01*
X124064019Y-88404068D01*
X124064015Y-88404068D01*
X124056785Y-88402968D01*
X124049493Y-88403561D01*
X124049490Y-88403561D01*
X124006169Y-88407085D01*
X123995954Y-88407500D01*
X123987114Y-88407500D01*
X123983479Y-88407924D01*
X123983476Y-88407924D01*
X123964177Y-88410174D01*
X123957093Y-88411000D01*
X123952722Y-88411433D01*
X123942067Y-88412299D01*
X123886909Y-88416785D01*
X123886906Y-88416786D01*
X123879610Y-88417379D01*
X123872646Y-88419635D01*
X123866641Y-88420835D01*
X123860710Y-88422237D01*
X123853437Y-88423085D01*
X123784425Y-88448135D01*
X123780297Y-88449552D01*
X123717473Y-88469904D01*
X123717470Y-88469905D01*
X123710504Y-88472162D01*
X123704240Y-88475963D01*
X123698659Y-88478518D01*
X123693224Y-88481240D01*
X123686345Y-88483737D01*
X123624937Y-88523998D01*
X123621290Y-88526299D01*
X123558535Y-88564379D01*
X123554327Y-88568095D01*
X123554326Y-88568096D01*
X123549275Y-88572557D01*
X123546687Y-88574781D01*
X123543809Y-88577187D01*
X123537687Y-88581201D01*
X123532654Y-88586514D01*
X123488968Y-88632630D01*
X123486590Y-88635072D01*
X108834240Y-103287424D01*
X104153739Y-107967925D01*
X104091427Y-108001951D01*
X104020612Y-107996886D01*
X103963776Y-107954339D01*
X103938965Y-107887819D01*
X103944811Y-107839894D01*
X103991498Y-107696206D01*
X103991498Y-107696205D01*
X103993538Y-107689927D01*
X104013500Y-107500000D01*
X103993538Y-107310073D01*
X103934524Y-107128446D01*
X103930120Y-107120817D01*
X103896772Y-107063058D01*
X103839037Y-106963058D01*
X103818368Y-106940102D01*
X103715673Y-106826048D01*
X103715672Y-106826047D01*
X103711251Y-106821137D01*
X103705909Y-106817256D01*
X103705907Y-106817254D01*
X103562092Y-106712767D01*
X103562091Y-106712766D01*
X103556750Y-106708886D01*
X103550722Y-106706202D01*
X103550720Y-106706201D01*
X103388318Y-106633895D01*
X103388317Y-106633895D01*
X103382287Y-106631210D01*
X103288887Y-106611357D01*
X103201944Y-106592876D01*
X103201939Y-106592876D01*
X103195487Y-106591504D01*
X103004513Y-106591504D01*
X102998061Y-106592876D01*
X102998056Y-106592876D01*
X102979056Y-106596915D01*
X102908265Y-106591513D01*
X102851632Y-106548696D01*
X102827139Y-106482058D01*
X102863764Y-106384573D01*
X108733090Y-100515248D01*
X115065618Y-94182720D01*
X115127930Y-94148694D01*
X115174962Y-94148748D01*
X115175105Y-94147705D01*
X115415542Y-94180641D01*
X115485086Y-94178941D01*
X115653091Y-94174836D01*
X115653095Y-94174836D01*
X115658152Y-94174712D01*
X115896692Y-94130070D01*
X116125027Y-94047864D01*
X116132278Y-94043845D01*
X116332850Y-93932666D01*
X116337281Y-93930210D01*
X116341259Y-93927080D01*
X116341263Y-93927077D01*
X116524019Y-93783262D01*
X116524020Y-93783261D01*
X116527995Y-93780133D01*
X116692260Y-93601496D01*
X116825852Y-93398893D01*
X116856415Y-93330888D01*
X116923259Y-93182154D01*
X116923261Y-93182148D01*
X116925333Y-93177538D01*
X116926658Y-93172594D01*
X116986836Y-92948007D01*
X116986836Y-92948005D01*
X116988144Y-92943125D01*
X116988729Y-92937371D01*
X117002559Y-92801210D01*
X117012668Y-92701686D01*
X117013000Y-92670000D01*
X117010848Y-92643255D01*
X116993943Y-92433142D01*
X116993942Y-92433138D01*
X116993537Y-92428100D01*
X116968902Y-92327802D01*
X116936856Y-92197337D01*
X116935649Y-92192423D01*
X116931947Y-92183700D01*
X116842802Y-91973688D01*
X116842802Y-91973687D01*
X116840826Y-91969033D01*
X116711507Y-91763677D01*
X116618146Y-91657780D01*
X116554365Y-91585435D01*
X116554363Y-91585433D01*
X116551018Y-91581639D01*
X116415381Y-91470225D01*
X116389350Y-91431975D01*
X116385528Y-91434122D01*
X116360676Y-91389886D01*
X115512812Y-90542022D01*
X115498868Y-90534408D01*
X115497035Y-90534539D01*
X115490420Y-90538790D01*
X114641241Y-91387969D01*
X114619179Y-91428371D01*
X114579417Y-91472194D01*
X114551948Y-91490862D01*
X114461988Y-91575933D01*
X114387077Y-91646773D01*
X114375622Y-91657605D01*
X114372544Y-91661631D01*
X114372543Y-91661632D01*
X114231296Y-91846375D01*
X114231293Y-91846379D01*
X114228223Y-91850395D01*
X114225833Y-91854853D01*
X114225832Y-91854854D01*
X114178774Y-91942617D01*
X114113543Y-92064272D01*
X114034534Y-92293732D01*
X113993227Y-92532873D01*
X113993174Y-92537933D01*
X113990739Y-92770479D01*
X113990686Y-92775542D01*
X113991443Y-92780545D01*
X113991443Y-92780550D01*
X114023920Y-92995294D01*
X114014330Y-93065640D01*
X113988432Y-93103230D01*
X110844430Y-96247233D01*
X104603927Y-102487737D01*
X101486069Y-105605595D01*
X101396974Y-105642500D01*
X98910027Y-105642500D01*
X98841906Y-105622498D01*
X98795413Y-105568842D01*
X98785309Y-105498568D01*
X98820932Y-105427405D01*
X113811957Y-90436380D01*
X113874269Y-90402354D01*
X113945084Y-90407419D01*
X114001920Y-90449966D01*
X114025636Y-90506635D01*
X114026221Y-90510500D01*
X114028522Y-90520314D01*
X114099613Y-90741735D01*
X114103461Y-90751071D01*
X114209040Y-90958283D01*
X114214325Y-90966874D01*
X114258392Y-91027083D01*
X114269404Y-91035513D01*
X114282146Y-91028644D01*
X115410905Y-89899885D01*
X115473217Y-89865859D01*
X115544032Y-89870924D01*
X115589095Y-89899885D01*
X116718567Y-91029357D01*
X116729792Y-91035487D01*
X116742409Y-91025441D01*
X116823069Y-90903113D01*
X116827926Y-90894278D01*
X116923259Y-90682154D01*
X116926642Y-90672653D01*
X116986836Y-90448007D01*
X116988655Y-90438095D01*
X117012378Y-90204540D01*
X117012698Y-90198816D01*
X117012970Y-90172857D01*
X117012771Y-90167152D01*
X116993943Y-89933142D01*
X116992331Y-89923189D01*
X116936856Y-89697337D01*
X116933673Y-89687767D01*
X116842802Y-89473688D01*
X116838128Y-89464749D01*
X116721545Y-89279617D01*
X116702170Y-89211315D01*
X116722799Y-89143381D01*
X116760045Y-89106477D01*
X116828360Y-89062574D01*
X116828361Y-89062574D01*
X116835944Y-89057700D01*
X116856144Y-89034388D01*
X116925662Y-88954160D01*
X116925664Y-88954157D01*
X116931563Y-88947349D01*
X116935305Y-88939155D01*
X116935307Y-88939152D01*
X116988477Y-88822725D01*
X116992220Y-88814529D01*
X117008204Y-88703359D01*
X117012361Y-88674446D01*
X117012361Y-88674443D01*
X117013000Y-88670000D01*
X117013000Y-86670000D01*
X116966641Y-86456892D01*
X116934870Y-86407454D01*
X116892574Y-86341640D01*
X116892574Y-86341639D01*
X116887700Y-86334056D01*
X116880888Y-86328153D01*
X116784160Y-86244338D01*
X116784157Y-86244336D01*
X116777349Y-86238437D01*
X116769155Y-86234695D01*
X116769152Y-86234693D01*
X116652725Y-86181523D01*
X116644529Y-86177780D01*
X116607864Y-86172508D01*
X116504446Y-86157639D01*
X116504443Y-86157639D01*
X116500000Y-86157000D01*
X114500000Y-86157000D01*
X114286892Y-86203359D01*
X114277407Y-86209455D01*
X114277406Y-86209455D01*
X114178697Y-86272891D01*
X114164056Y-86282300D01*
X114158155Y-86289111D01*
X114158153Y-86289112D01*
X114074338Y-86385840D01*
X114074336Y-86385843D01*
X114068437Y-86392651D01*
X114064695Y-86400845D01*
X114064693Y-86400848D01*
X114043431Y-86447406D01*
X114007780Y-86525471D01*
X114006498Y-86534388D01*
X113987950Y-86663395D01*
X113987000Y-86670000D01*
X113987000Y-88052472D01*
X113950095Y-88141567D01*
X109121373Y-92970290D01*
X104526748Y-97564915D01*
X104464436Y-97598941D01*
X104393621Y-97593876D01*
X104336785Y-97551329D01*
X104312343Y-97488991D01*
X104294228Y-97316637D01*
X104294228Y-97316636D01*
X104293538Y-97310073D01*
X104281051Y-97271640D01*
X104236566Y-97134731D01*
X104234524Y-97128446D01*
X104224754Y-97111523D01*
X104169365Y-97015588D01*
X104139037Y-96963058D01*
X104043784Y-96857268D01*
X104015673Y-96826048D01*
X104015672Y-96826047D01*
X104011251Y-96821137D01*
X104005909Y-96817256D01*
X104005907Y-96817254D01*
X103862092Y-96712767D01*
X103862091Y-96712766D01*
X103856750Y-96708886D01*
X103850722Y-96706202D01*
X103850720Y-96706201D01*
X103688318Y-96633895D01*
X103688317Y-96633895D01*
X103682287Y-96631210D01*
X103568794Y-96607086D01*
X103501944Y-96592876D01*
X103501939Y-96592876D01*
X103495487Y-96591504D01*
X103304513Y-96591504D01*
X103298061Y-96592876D01*
X103298056Y-96592876D01*
X103231206Y-96607086D01*
X103117713Y-96631210D01*
X103111683Y-96633895D01*
X103111682Y-96633895D01*
X102949280Y-96706201D01*
X102949278Y-96706202D01*
X102943250Y-96708886D01*
X102937909Y-96712766D01*
X102937908Y-96712767D01*
X102916342Y-96728436D01*
X102842281Y-96752500D01*
X92959000Y-96752500D01*
X92890879Y-96732498D01*
X92844386Y-96678842D01*
X92833000Y-96626500D01*
X92833000Y-96517115D01*
X92828525Y-96501876D01*
X92827135Y-96500671D01*
X92819452Y-96499000D01*
X91574002Y-96498999D01*
X91573996Y-96499000D01*
X89825115Y-96498999D01*
X89809876Y-96503474D01*
X89808671Y-96504864D01*
X89807000Y-96512547D01*
X89807000Y-96688244D01*
X89808437Y-96701606D01*
X89838013Y-96837564D01*
X89831009Y-96902732D01*
X89834062Y-96903628D01*
X89831522Y-96912276D01*
X89827780Y-96920471D01*
X89826498Y-96929385D01*
X89826498Y-96929386D01*
X89822363Y-96958150D01*
X89807000Y-97065000D01*
X89807000Y-97147244D01*
X89770096Y-97236339D01*
X89124983Y-97881453D01*
X89110569Y-97893840D01*
X89093889Y-97906115D01*
X89089146Y-97911698D01*
X89060876Y-97944974D01*
X89053946Y-97952490D01*
X89048466Y-97957970D01*
X89046189Y-97960848D01*
X89031291Y-97979678D01*
X89028504Y-97983078D01*
X88987341Y-98031530D01*
X88987339Y-98031533D01*
X88982607Y-98037103D01*
X88979282Y-98043614D01*
X88976141Y-98048324D01*
X88973153Y-98053163D01*
X88968613Y-98058901D01*
X88965515Y-98065530D01*
X88965513Y-98065533D01*
X88938607Y-98123102D01*
X88936676Y-98127052D01*
X88907773Y-98183655D01*
X88907771Y-98183661D01*
X88904443Y-98190178D01*
X88902704Y-98197287D01*
X88900733Y-98202586D01*
X88898940Y-98207974D01*
X88895839Y-98214610D01*
X88886702Y-98258538D01*
X88881404Y-98284007D01*
X88880433Y-98288295D01*
X88864924Y-98351675D01*
X88863590Y-98357128D01*
X88862900Y-98368251D01*
X88862871Y-98368249D01*
X88862618Y-98372462D01*
X88862327Y-98375721D01*
X88860837Y-98382885D01*
X88861035Y-98390200D01*
X88862854Y-98457411D01*
X88862900Y-98460820D01*
X88862899Y-111017600D01*
X88842897Y-111085721D01*
X88789241Y-111132214D01*
X88695662Y-111132663D01*
X88694599Y-111135936D01*
X88688319Y-111133896D01*
X88682287Y-111131210D01*
X88588887Y-111111357D01*
X88501944Y-111092876D01*
X88501939Y-111092876D01*
X88495487Y-111091504D01*
X88304513Y-111091504D01*
X88298061Y-111092876D01*
X88298056Y-111092876D01*
X88258182Y-111101352D01*
X88187391Y-111095950D01*
X88130759Y-111053133D01*
X88106675Y-110964934D01*
X88106829Y-110963474D01*
X88113500Y-110900000D01*
X88093538Y-110710073D01*
X88034524Y-110528446D01*
X87939037Y-110363058D01*
X87811251Y-110221137D01*
X87805909Y-110217256D01*
X87805907Y-110217254D01*
X87784823Y-110201936D01*
X87741469Y-110145714D01*
X87735394Y-110074978D01*
X87784823Y-109998064D01*
X87805907Y-109982746D01*
X87805909Y-109982744D01*
X87811251Y-109978863D01*
X87842059Y-109944647D01*
X87934618Y-109841850D01*
X87934619Y-109841849D01*
X87939037Y-109836942D01*
X88034524Y-109671554D01*
X88093538Y-109489927D01*
X88113500Y-109300000D01*
X88099388Y-109165730D01*
X88094228Y-109116637D01*
X88094228Y-109116636D01*
X88093538Y-109110073D01*
X88082336Y-109075595D01*
X88036566Y-108934731D01*
X88034524Y-108928446D01*
X87939037Y-108763058D01*
X87811251Y-108621137D01*
X87805909Y-108617256D01*
X87805907Y-108617254D01*
X87662092Y-108512767D01*
X87662091Y-108512766D01*
X87656750Y-108508886D01*
X87650722Y-108506202D01*
X87650720Y-108506201D01*
X87488318Y-108433895D01*
X87488317Y-108433895D01*
X87482287Y-108431210D01*
X87388887Y-108411357D01*
X87301944Y-108392876D01*
X87301939Y-108392876D01*
X87295487Y-108391504D01*
X87104513Y-108391504D01*
X87098061Y-108392876D01*
X87098056Y-108392876D01*
X87011113Y-108411357D01*
X86917713Y-108431210D01*
X86911683Y-108433895D01*
X86911682Y-108433895D01*
X86749280Y-108506201D01*
X86749278Y-108506202D01*
X86743250Y-108508886D01*
X86737906Y-108512768D01*
X86737907Y-108512768D01*
X86736983Y-108513439D01*
X86736437Y-108513616D01*
X86732191Y-108516068D01*
X86731670Y-108515165D01*
X86662926Y-108537500D01*
X78405096Y-108537500D01*
X78316001Y-108500595D01*
X76485358Y-106669953D01*
X75869905Y-106054501D01*
X75834246Y-105968415D01*
X75833722Y-105968471D01*
X75833530Y-105966686D01*
X75833000Y-105965406D01*
X75833000Y-105955000D01*
X75821050Y-105900066D01*
X75801987Y-105812436D01*
X75808991Y-105747268D01*
X75805938Y-105746372D01*
X75808478Y-105737723D01*
X75812220Y-105729529D01*
X75814419Y-105714233D01*
X75832361Y-105589446D01*
X75832361Y-105589443D01*
X75833000Y-105585000D01*
X75833000Y-104685000D01*
X75831427Y-104677767D01*
X75801987Y-104542436D01*
X75808991Y-104477268D01*
X75805938Y-104476372D01*
X75808478Y-104467723D01*
X75812220Y-104459529D01*
X75833000Y-104315000D01*
X75833000Y-104012547D01*
X80807000Y-104012547D01*
X80807000Y-106238243D01*
X80808437Y-106251605D01*
X80850962Y-106447089D01*
X80859455Y-106467594D01*
X80927426Y-106573360D01*
X80939112Y-106586847D01*
X81035840Y-106670662D01*
X81050848Y-106680307D01*
X81167275Y-106733477D01*
X81184388Y-106738502D01*
X81315554Y-106757361D01*
X81324495Y-106758000D01*
X83547885Y-106758000D01*
X83563124Y-106753525D01*
X83564329Y-106752135D01*
X83566000Y-106744452D01*
X83566000Y-106739885D01*
X84073999Y-106739885D01*
X84078474Y-106755124D01*
X84079864Y-106756329D01*
X84087547Y-106758000D01*
X86313243Y-106758000D01*
X86326605Y-106756563D01*
X86522089Y-106714038D01*
X86542594Y-106705545D01*
X86648360Y-106637574D01*
X86661847Y-106625888D01*
X86745662Y-106529160D01*
X86755307Y-106514152D01*
X86808477Y-106397725D01*
X86813502Y-106380612D01*
X86832361Y-106249446D01*
X86833000Y-106240505D01*
X86833000Y-104017115D01*
X86828525Y-104001876D01*
X86827135Y-104000671D01*
X86819452Y-103999000D01*
X84092115Y-103998999D01*
X84076876Y-104003474D01*
X84075671Y-104004864D01*
X84074000Y-104012547D01*
X84073999Y-106739885D01*
X83566000Y-106739885D01*
X83566001Y-104017115D01*
X83561526Y-104001876D01*
X83560136Y-104000671D01*
X83552453Y-103999000D01*
X80825115Y-103998999D01*
X80809876Y-104003474D01*
X80808671Y-104004864D01*
X80807000Y-104012547D01*
X75833000Y-104012547D01*
X75833000Y-103415000D01*
X75831563Y-103408394D01*
X75801987Y-103272436D01*
X75808991Y-103207268D01*
X75805938Y-103206372D01*
X75808478Y-103197723D01*
X75812220Y-103189529D01*
X75818197Y-103147957D01*
X75832361Y-103049446D01*
X75832361Y-103049443D01*
X75833000Y-103045000D01*
X75833000Y-102145000D01*
X75801987Y-102002436D01*
X75808991Y-101937268D01*
X75805938Y-101936372D01*
X75808478Y-101927723D01*
X75812220Y-101919529D01*
X75833000Y-101775000D01*
X75833000Y-101249495D01*
X80807000Y-101249495D01*
X80807000Y-103472885D01*
X80811475Y-103488124D01*
X80812865Y-103489329D01*
X80820548Y-103491000D01*
X83547885Y-103491001D01*
X83563124Y-103486526D01*
X83564329Y-103485136D01*
X83566000Y-103477453D01*
X83566000Y-103472885D01*
X84073999Y-103472885D01*
X84078474Y-103488124D01*
X84079864Y-103489329D01*
X84087547Y-103491000D01*
X86814885Y-103491001D01*
X86830124Y-103486526D01*
X86831329Y-103485136D01*
X86833000Y-103477453D01*
X86833000Y-101251757D01*
X86831563Y-101238395D01*
X86789038Y-101042911D01*
X86780545Y-101022406D01*
X86712574Y-100916640D01*
X86700888Y-100903153D01*
X86604160Y-100819338D01*
X86589152Y-100809693D01*
X86472725Y-100756523D01*
X86455612Y-100751498D01*
X86324446Y-100732639D01*
X86315505Y-100732000D01*
X84092115Y-100732000D01*
X84076876Y-100736475D01*
X84075671Y-100737865D01*
X84074000Y-100745548D01*
X84073999Y-103472885D01*
X83566000Y-103472885D01*
X83566001Y-100750115D01*
X83561526Y-100734876D01*
X83560136Y-100733671D01*
X83552453Y-100732000D01*
X81326757Y-100732000D01*
X81313395Y-100733437D01*
X81117911Y-100775962D01*
X81097406Y-100784455D01*
X80991640Y-100852426D01*
X80978153Y-100864112D01*
X80894338Y-100960840D01*
X80884693Y-100975848D01*
X80831523Y-101092275D01*
X80826498Y-101109388D01*
X80807639Y-101240554D01*
X80807000Y-101249495D01*
X75833000Y-101249495D01*
X75833000Y-100875000D01*
X75831388Y-100867590D01*
X75801987Y-100732436D01*
X75808991Y-100667268D01*
X75805938Y-100666372D01*
X75808478Y-100657723D01*
X75812220Y-100649529D01*
X75819445Y-100599276D01*
X75832361Y-100509446D01*
X75832361Y-100509443D01*
X75833000Y-100505000D01*
X75833000Y-99605000D01*
X75826660Y-99575854D01*
X75801987Y-99462436D01*
X75808991Y-99397268D01*
X75805938Y-99396372D01*
X75808478Y-99387723D01*
X75812220Y-99379529D01*
X75813502Y-99370614D01*
X75832361Y-99239446D01*
X75832361Y-99239443D01*
X75833000Y-99235000D01*
X75833000Y-98335000D01*
X75820492Y-98277500D01*
X75801987Y-98192436D01*
X75808991Y-98127268D01*
X75805938Y-98126372D01*
X75808478Y-98117723D01*
X75812220Y-98109529D01*
X75822633Y-98037103D01*
X75832361Y-97969446D01*
X75832361Y-97969443D01*
X75833000Y-97965000D01*
X75833000Y-97065000D01*
X75801987Y-96922436D01*
X75808991Y-96857268D01*
X75805938Y-96856372D01*
X75813502Y-96830614D01*
X75832361Y-96699446D01*
X75833000Y-96690505D01*
X75833000Y-96517115D01*
X75828525Y-96501876D01*
X75827135Y-96500671D01*
X75819452Y-96499000D01*
X74574002Y-96498999D01*
X74573996Y-96499000D01*
X72825115Y-96498999D01*
X72809876Y-96503474D01*
X72808671Y-96504864D01*
X72807000Y-96512547D01*
X72807000Y-96688244D01*
X72808437Y-96701606D01*
X72838013Y-96837564D01*
X72831009Y-96902732D01*
X72834062Y-96903628D01*
X72831522Y-96912276D01*
X72827780Y-96920471D01*
X72826498Y-96929385D01*
X72826498Y-96929386D01*
X72822363Y-96958150D01*
X72807000Y-97065000D01*
X72807000Y-97965000D01*
X72808437Y-97971605D01*
X72808437Y-97971606D01*
X72838013Y-98107564D01*
X72831009Y-98172732D01*
X72834062Y-98173628D01*
X72831522Y-98182277D01*
X72827780Y-98190471D01*
X72826498Y-98199385D01*
X72826498Y-98199386D01*
X72813133Y-98292347D01*
X72807000Y-98335000D01*
X72807000Y-99235000D01*
X72808437Y-99241605D01*
X72808437Y-99241606D01*
X72838013Y-99377564D01*
X72831009Y-99442732D01*
X72834062Y-99443628D01*
X72831522Y-99452277D01*
X72827780Y-99460471D01*
X72826498Y-99469385D01*
X72826498Y-99469386D01*
X72811191Y-99575854D01*
X72807000Y-99605000D01*
X72807000Y-100505000D01*
X72808437Y-100511605D01*
X72808437Y-100511606D01*
X72838013Y-100647564D01*
X72831009Y-100712732D01*
X72834062Y-100713628D01*
X72831522Y-100722277D01*
X72827780Y-100730471D01*
X72826498Y-100739385D01*
X72826498Y-100739386D01*
X72810246Y-100852426D01*
X72807000Y-100875000D01*
X72807000Y-101775000D01*
X72808437Y-101781605D01*
X72808437Y-101781606D01*
X72838013Y-101917564D01*
X72831009Y-101982732D01*
X72834062Y-101983628D01*
X72831522Y-101992277D01*
X72827780Y-102000471D01*
X72826498Y-102009385D01*
X72826498Y-102009386D01*
X72809800Y-102125528D01*
X72807000Y-102145000D01*
X72807000Y-103045000D01*
X72808437Y-103051605D01*
X72808437Y-103051606D01*
X72838013Y-103187564D01*
X72831009Y-103252732D01*
X72834062Y-103253628D01*
X72831522Y-103262277D01*
X72827780Y-103270471D01*
X72826498Y-103279385D01*
X72826498Y-103279386D01*
X72815777Y-103353957D01*
X72807000Y-103415000D01*
X72807000Y-104315000D01*
X72808437Y-104321605D01*
X72808437Y-104321606D01*
X72838013Y-104457564D01*
X72831009Y-104522732D01*
X72834062Y-104523628D01*
X72831522Y-104532277D01*
X72827780Y-104540471D01*
X72826498Y-104549385D01*
X72826498Y-104549386D01*
X72824370Y-104564191D01*
X72807000Y-104685000D01*
X72807000Y-104695403D01*
X72770096Y-104784498D01*
X71907581Y-105647015D01*
X71893166Y-105659402D01*
X71882470Y-105667273D01*
X71882465Y-105667277D01*
X71876567Y-105671618D01*
X71871824Y-105677201D01*
X71843672Y-105710338D01*
X71836742Y-105717854D01*
X71830507Y-105724089D01*
X71811754Y-105747791D01*
X71808987Y-105751165D01*
X71761476Y-105807089D01*
X71758145Y-105813613D01*
X71754747Y-105818708D01*
X71751544Y-105823893D01*
X71747003Y-105829633D01*
X71743905Y-105836261D01*
X71743901Y-105836268D01*
X71715931Y-105896114D01*
X71714000Y-105900066D01*
X71680637Y-105965403D01*
X71678896Y-105972520D01*
X71676762Y-105978257D01*
X71674839Y-105984038D01*
X71671738Y-105990672D01*
X71670248Y-105997834D01*
X71670248Y-105997835D01*
X71656792Y-106062528D01*
X71655822Y-106066812D01*
X71638386Y-106138068D01*
X71638039Y-106143668D01*
X71638038Y-106143672D01*
X71637623Y-106150369D01*
X71637366Y-106153772D01*
X71637030Y-106157540D01*
X71635539Y-106164707D01*
X71635737Y-106172024D01*
X71637455Y-106235517D01*
X71637501Y-106238925D01*
X71637500Y-115583894D01*
X71636067Y-115602844D01*
X71632968Y-115623215D01*
X71633561Y-115630507D01*
X71633561Y-115630510D01*
X71637085Y-115673831D01*
X71637500Y-115684046D01*
X71637500Y-115692885D01*
X71637924Y-115696520D01*
X71637924Y-115696523D01*
X71641000Y-115722902D01*
X71641433Y-115727281D01*
X71643944Y-115758150D01*
X71647379Y-115800388D01*
X71649635Y-115807351D01*
X71650836Y-115813363D01*
X71652237Y-115819292D01*
X71653085Y-115826562D01*
X71673688Y-115883321D01*
X71678125Y-115895546D01*
X71679548Y-115899691D01*
X71702162Y-115969495D01*
X71705961Y-115975757D01*
X71708512Y-115981328D01*
X71711239Y-115986773D01*
X71713737Y-115993654D01*
X71753978Y-116055032D01*
X71756302Y-116058716D01*
X71783656Y-116103794D01*
X71794378Y-116121464D01*
X71798089Y-116125666D01*
X71798093Y-116125671D01*
X71802563Y-116130731D01*
X71804791Y-116133324D01*
X71807187Y-116136190D01*
X71811201Y-116142312D01*
X71816514Y-116147345D01*
X71862618Y-116191020D01*
X71865061Y-116193398D01*
X72637108Y-116965446D01*
X72671133Y-117027758D01*
X72670531Y-117083955D01*
X72633321Y-117238947D01*
X72632166Y-117243760D01*
X72612000Y-117500000D01*
X72632166Y-117756240D01*
X72633320Y-117761047D01*
X72633321Y-117761053D01*
X72667879Y-117904996D01*
X72692169Y-118006170D01*
X72694062Y-118010741D01*
X72694063Y-118010743D01*
X72746736Y-118137905D01*
X72790531Y-118243636D01*
X72924830Y-118462792D01*
X72928046Y-118466557D01*
X72981949Y-118529670D01*
X73010980Y-118594459D01*
X73000375Y-118664659D01*
X72953500Y-118717982D01*
X72886138Y-118737500D01*
X72368029Y-118737500D01*
X72278934Y-118700596D01*
X71221426Y-117643089D01*
X70799405Y-117221069D01*
X70762500Y-117131973D01*
X70762500Y-113737517D01*
X70782502Y-113669396D01*
X70820614Y-113631369D01*
X70850465Y-113612278D01*
X70850468Y-113612276D01*
X70854247Y-113609859D01*
X70961644Y-113517321D01*
X70999304Y-113474152D01*
X71054309Y-113411099D01*
X71057262Y-113407714D01*
X71063436Y-113398190D01*
X71131935Y-113292509D01*
X71131936Y-113292507D01*
X71134370Y-113288752D01*
X71195380Y-113156713D01*
X71212327Y-113100046D01*
X71234715Y-113025187D01*
X71234716Y-113025181D01*
X71235999Y-113020892D01*
X71257498Y-112877035D01*
X71257692Y-112845164D01*
X71258972Y-112828014D01*
X71263000Y-112800000D01*
X71263000Y-112300001D01*
X71233499Y-112164387D01*
X71219039Y-112097914D01*
X71219038Y-112097911D01*
X71216641Y-112086893D01*
X71137700Y-111964058D01*
X71130890Y-111958157D01*
X71034161Y-111874340D01*
X71034158Y-111874338D01*
X71027349Y-111868438D01*
X70894529Y-111807781D01*
X70857864Y-111802509D01*
X70754446Y-111787640D01*
X70754443Y-111787640D01*
X70750000Y-111787001D01*
X70150401Y-111787001D01*
X69256751Y-111787000D01*
X69250001Y-111787000D01*
X69243411Y-111788434D01*
X69243407Y-111788434D01*
X69050770Y-111830340D01*
X69036894Y-111833358D01*
X68914058Y-111912300D01*
X68818438Y-112022650D01*
X68757781Y-112155470D01*
X68737001Y-112299999D01*
X68737000Y-112799999D01*
X60508000Y-112799999D01*
X60508000Y-105847856D01*
X61491814Y-105847856D01*
X61492167Y-105851182D01*
X61492167Y-105851191D01*
X61530861Y-106216271D01*
X61531215Y-106219609D01*
X61609897Y-106585071D01*
X61610943Y-106588242D01*
X61610944Y-106588247D01*
X61717867Y-106912500D01*
X61726969Y-106940102D01*
X61881105Y-107280682D01*
X61882800Y-107283566D01*
X61882803Y-107283571D01*
X61980224Y-107449289D01*
X62070559Y-107602955D01*
X62293187Y-107903270D01*
X62546467Y-108178229D01*
X62548995Y-108180446D01*
X62548996Y-108180447D01*
X62825015Y-108422509D01*
X62825020Y-108422513D01*
X62827531Y-108424715D01*
X63133197Y-108639939D01*
X63136114Y-108641559D01*
X63136120Y-108641563D01*
X63309247Y-108737726D01*
X63460002Y-108821463D01*
X63804247Y-108967232D01*
X64162032Y-109075595D01*
X64165315Y-109076218D01*
X64165322Y-109076220D01*
X64310561Y-109103794D01*
X64529307Y-109145324D01*
X64901911Y-109175630D01*
X65088769Y-109170900D01*
X65272272Y-109166256D01*
X65272274Y-109166256D01*
X65275627Y-109166171D01*
X65646221Y-109117052D01*
X65649472Y-109116263D01*
X65649480Y-109116261D01*
X65917133Y-109051261D01*
X66009498Y-109028830D01*
X66012655Y-109027696D01*
X66012660Y-109027695D01*
X66358176Y-108903642D01*
X66358181Y-108903640D01*
X66361342Y-108902505D01*
X66525920Y-108822768D01*
X66694740Y-108740976D01*
X66694747Y-108740972D01*
X66697771Y-108739507D01*
X67014974Y-108541681D01*
X67212303Y-108387233D01*
X67306717Y-108313336D01*
X67306718Y-108313335D01*
X67309359Y-108311268D01*
X67311765Y-108308932D01*
X67311770Y-108308928D01*
X67423948Y-108200029D01*
X67577593Y-108050877D01*
X67816638Y-107763457D01*
X67992010Y-107500000D01*
X68021926Y-107455058D01*
X68021927Y-107455056D01*
X68023787Y-107452262D01*
X68143532Y-107222723D01*
X68195148Y-107123781D01*
X68195150Y-107123777D01*
X68196694Y-107120817D01*
X68197914Y-107117711D01*
X68197918Y-107117703D01*
X68332177Y-106775991D01*
X68332179Y-106775986D01*
X68333401Y-106772875D01*
X68351884Y-106705545D01*
X68431472Y-106415615D01*
X68431473Y-106415613D01*
X68432361Y-106412376D01*
X68492452Y-106043402D01*
X68512995Y-105670131D01*
X68513000Y-105664000D01*
X68512044Y-105646043D01*
X68493287Y-105294029D01*
X68493286Y-105294023D01*
X68493109Y-105290694D01*
X68489865Y-105270550D01*
X68434196Y-104924931D01*
X68434196Y-104924930D01*
X68433662Y-104921616D01*
X68432704Y-104918100D01*
X68336217Y-104564191D01*
X68336217Y-104564190D01*
X68335332Y-104560945D01*
X68216900Y-104257963D01*
X68200456Y-104215895D01*
X68200455Y-104215893D01*
X68199232Y-104212764D01*
X68167476Y-104151632D01*
X68028446Y-103883988D01*
X68028444Y-103883985D01*
X68026903Y-103881018D01*
X67872713Y-103648503D01*
X67822147Y-103572250D01*
X67822145Y-103572248D01*
X67820298Y-103569462D01*
X67581755Y-103281625D01*
X67313976Y-103020766D01*
X67311344Y-103018699D01*
X67311340Y-103018695D01*
X67022631Y-102791912D01*
X67022629Y-102791911D01*
X67019993Y-102789840D01*
X66703136Y-102591461D01*
X66366992Y-102427876D01*
X66363853Y-102426743D01*
X66363844Y-102426739D01*
X66115383Y-102337043D01*
X66015369Y-102300937D01*
X66012110Y-102300140D01*
X66012105Y-102300138D01*
X65655510Y-102212879D01*
X65655502Y-102212877D01*
X65652247Y-102212081D01*
X65648926Y-102211635D01*
X65648921Y-102211634D01*
X65425259Y-102181593D01*
X65281739Y-102162316D01*
X64908040Y-102152204D01*
X64904699Y-102152470D01*
X64904694Y-102152470D01*
X64538732Y-102181593D01*
X64538723Y-102181594D01*
X64535383Y-102181860D01*
X64532088Y-102182480D01*
X64532085Y-102182480D01*
X64171272Y-102250330D01*
X64171264Y-102250332D01*
X64167988Y-102250948D01*
X63810014Y-102358686D01*
X63465515Y-102503854D01*
X63462588Y-102505473D01*
X63462580Y-102505477D01*
X63309799Y-102589991D01*
X63138394Y-102684807D01*
X62832353Y-102899497D01*
X62550859Y-103145493D01*
X62548584Y-103147954D01*
X62548581Y-103147957D01*
X62433514Y-103272436D01*
X62297099Y-103420009D01*
X62073948Y-103719935D01*
X62072250Y-103722813D01*
X62072244Y-103722821D01*
X61901242Y-104012547D01*
X61883931Y-104041877D01*
X61729201Y-104382188D01*
X61682287Y-104523628D01*
X61625312Y-104695403D01*
X61611510Y-104737014D01*
X61532190Y-105102337D01*
X61492141Y-105474021D01*
X61492138Y-105477379D01*
X61492138Y-105477380D01*
X61492118Y-105500490D01*
X61491814Y-105847856D01*
X60508000Y-105847856D01*
X60508000Y-100080769D01*
X60509612Y-100060681D01*
X60512000Y-100045895D01*
X60512000Y-100045893D01*
X60512776Y-100041089D01*
X60515457Y-99566610D01*
X60515582Y-99561672D01*
X60516219Y-99547500D01*
X60545589Y-98893502D01*
X60554647Y-98691807D01*
X60555027Y-98686166D01*
X60605328Y-98127268D01*
X60632921Y-97820678D01*
X60633553Y-97815072D01*
X60643675Y-97740354D01*
X60701960Y-97310073D01*
X60750196Y-96953984D01*
X60751081Y-96948399D01*
X60906237Y-96093422D01*
X60907371Y-96087882D01*
X60973193Y-95799495D01*
X72807000Y-95799495D01*
X72807000Y-95972885D01*
X72811475Y-95988124D01*
X72812865Y-95989329D01*
X72820548Y-95991000D01*
X74047885Y-95991001D01*
X74063124Y-95986526D01*
X74064329Y-95985136D01*
X74066000Y-95977453D01*
X74066000Y-95972885D01*
X74573999Y-95972885D01*
X74578474Y-95988124D01*
X74579864Y-95989329D01*
X74587547Y-95991000D01*
X75814885Y-95991001D01*
X75830124Y-95986526D01*
X75831329Y-95985136D01*
X75833000Y-95977453D01*
X75833000Y-95801757D01*
X75832757Y-95799495D01*
X89807000Y-95799495D01*
X89807000Y-95972885D01*
X89811475Y-95988124D01*
X89812865Y-95989329D01*
X89820548Y-95991000D01*
X91047885Y-95991001D01*
X91063124Y-95986526D01*
X91064329Y-95985136D01*
X91066000Y-95977453D01*
X91066000Y-95972885D01*
X91573999Y-95972885D01*
X91578474Y-95988124D01*
X91579864Y-95989329D01*
X91587547Y-95991000D01*
X92814885Y-95991001D01*
X92830124Y-95986526D01*
X92831329Y-95985136D01*
X92833000Y-95977453D01*
X92833000Y-95801757D01*
X92831563Y-95788395D01*
X92789038Y-95592911D01*
X92780545Y-95572406D01*
X92712574Y-95466640D01*
X92700888Y-95453153D01*
X92604160Y-95369338D01*
X92589152Y-95359693D01*
X92472725Y-95306523D01*
X92455612Y-95301498D01*
X92324446Y-95282639D01*
X92315505Y-95282000D01*
X91592115Y-95282000D01*
X91576876Y-95286475D01*
X91575671Y-95287865D01*
X91574000Y-95295548D01*
X91573999Y-95972885D01*
X91066000Y-95972885D01*
X91066001Y-95300115D01*
X91061526Y-95284876D01*
X91060136Y-95283671D01*
X91052453Y-95282000D01*
X90326757Y-95282000D01*
X90313395Y-95283437D01*
X90117911Y-95325962D01*
X90097406Y-95334455D01*
X89991640Y-95402426D01*
X89978153Y-95414112D01*
X89894338Y-95510840D01*
X89884693Y-95525848D01*
X89831523Y-95642275D01*
X89826498Y-95659388D01*
X89807639Y-95790554D01*
X89807000Y-95799495D01*
X75832757Y-95799495D01*
X75831563Y-95788395D01*
X75789038Y-95592911D01*
X75780545Y-95572406D01*
X75712574Y-95466640D01*
X75700888Y-95453153D01*
X75604160Y-95369338D01*
X75589152Y-95359693D01*
X75472725Y-95306523D01*
X75455612Y-95301498D01*
X75324446Y-95282639D01*
X75315505Y-95282000D01*
X74592115Y-95282000D01*
X74576876Y-95286475D01*
X74575671Y-95287865D01*
X74574000Y-95295548D01*
X74573999Y-95972885D01*
X74066000Y-95972885D01*
X74066001Y-95300115D01*
X74061526Y-95284876D01*
X74060136Y-95283671D01*
X74052453Y-95282000D01*
X73326757Y-95282000D01*
X73313395Y-95283437D01*
X73117911Y-95325962D01*
X73097406Y-95334455D01*
X72991640Y-95402426D01*
X72978153Y-95414112D01*
X72894338Y-95510840D01*
X72884693Y-95525848D01*
X72831523Y-95642275D01*
X72826498Y-95659388D01*
X72807639Y-95790554D01*
X72807000Y-95799495D01*
X60973193Y-95799495D01*
X61100733Y-95240706D01*
X61102115Y-95235223D01*
X61276379Y-94603794D01*
X61333294Y-94397568D01*
X61334915Y-94392169D01*
X61335319Y-94390928D01*
X61603430Y-93565765D01*
X61605296Y-93560430D01*
X61910641Y-92746841D01*
X61912747Y-92741593D01*
X62240966Y-91973688D01*
X62254255Y-91942596D01*
X62256591Y-91937453D01*
X62261430Y-91927406D01*
X62627922Y-91166379D01*
X62633623Y-91154540D01*
X62636190Y-91149501D01*
X62675511Y-91076432D01*
X63047948Y-90384327D01*
X63050734Y-90379418D01*
X63496442Y-89633429D01*
X63499451Y-89628641D01*
X63560461Y-89536216D01*
X63799801Y-89173632D01*
X63978152Y-88903443D01*
X63981372Y-88898795D01*
X64492120Y-88195811D01*
X64495545Y-88191312D01*
X64747792Y-87875004D01*
X65037343Y-87511920D01*
X65040933Y-87507620D01*
X65612676Y-86853209D01*
X65616484Y-86849043D01*
X65638194Y-86826337D01*
X66037797Y-86408385D01*
X66216987Y-86220967D01*
X66220985Y-86216969D01*
X66544536Y-85907623D01*
X66849074Y-85616454D01*
X66853240Y-85612647D01*
X66968793Y-85511692D01*
X67358224Y-85171456D01*
X67507596Y-85040954D01*
X67511936Y-85037330D01*
X68191346Y-84495520D01*
X68195845Y-84492095D01*
X68212012Y-84480349D01*
X120889348Y-84480349D01*
X120895470Y-84740135D01*
X120912208Y-84834578D01*
X120927696Y-84921968D01*
X120940817Y-84996006D01*
X121024346Y-85242073D01*
X121026550Y-85246315D01*
X121026550Y-85246316D01*
X121105733Y-85398749D01*
X121144134Y-85472675D01*
X121146960Y-85476543D01*
X121146961Y-85476545D01*
X121172638Y-85511692D01*
X121297425Y-85682505D01*
X121480691Y-85866733D01*
X121484537Y-85869574D01*
X121484542Y-85869578D01*
X121571663Y-85933926D01*
X121689714Y-86021120D01*
X121693952Y-86023350D01*
X121693954Y-86023351D01*
X121915450Y-86139886D01*
X121915457Y-86139889D01*
X121919686Y-86142114D01*
X122165313Y-86226930D01*
X122228320Y-86238437D01*
X122416972Y-86272891D01*
X122416975Y-86272891D01*
X122420943Y-86273616D01*
X122504595Y-86278000D01*
X123465731Y-86278000D01*
X123468110Y-86277819D01*
X123468111Y-86277819D01*
X123654343Y-86263653D01*
X123654348Y-86263652D01*
X123659110Y-86263290D01*
X123663763Y-86262211D01*
X123663766Y-86262211D01*
X123907593Y-86205695D01*
X123907592Y-86205695D01*
X123912257Y-86204614D01*
X124153616Y-86108321D01*
X124377632Y-85976629D01*
X124579151Y-85812566D01*
X124753536Y-85619910D01*
X124896772Y-85403093D01*
X124973091Y-85237545D01*
X125003558Y-85171456D01*
X125003559Y-85171453D01*
X125005564Y-85167104D01*
X125006888Y-85162502D01*
X125076088Y-84921968D01*
X125076089Y-84921963D01*
X125077409Y-84917375D01*
X125110652Y-84659651D01*
X125107419Y-84522457D01*
X125104643Y-84404644D01*
X125104643Y-84404639D01*
X125104530Y-84399865D01*
X125073959Y-84227365D01*
X125060018Y-84148703D01*
X125060017Y-84148697D01*
X125059183Y-84143994D01*
X124975654Y-83897927D01*
X124973450Y-83893684D01*
X124858075Y-83671577D01*
X124858073Y-83671574D01*
X124855866Y-83667325D01*
X124852466Y-83662670D01*
X124705397Y-83461358D01*
X124702575Y-83457495D01*
X124519309Y-83273267D01*
X124515463Y-83270426D01*
X124515458Y-83270422D01*
X124314139Y-83121726D01*
X124310286Y-83118880D01*
X124303727Y-83115429D01*
X124084550Y-83000114D01*
X124084543Y-83000111D01*
X124080314Y-82997886D01*
X123834687Y-82913070D01*
X123716939Y-82891566D01*
X123583028Y-82867109D01*
X123583025Y-82867109D01*
X123579057Y-82866384D01*
X123495405Y-82862000D01*
X122534269Y-82862000D01*
X122531890Y-82862181D01*
X122531889Y-82862181D01*
X122345657Y-82876347D01*
X122345652Y-82876348D01*
X122340890Y-82876710D01*
X122336237Y-82877789D01*
X122336234Y-82877789D01*
X122184021Y-82913070D01*
X122087743Y-82935386D01*
X121846384Y-83031679D01*
X121622368Y-83163371D01*
X121420849Y-83327434D01*
X121246464Y-83520090D01*
X121103228Y-83736907D01*
X121101227Y-83741247D01*
X121101225Y-83741251D01*
X120996442Y-83968544D01*
X120994436Y-83972896D01*
X120993112Y-83977498D01*
X120943858Y-84148703D01*
X120922591Y-84222625D01*
X120889348Y-84480349D01*
X68212012Y-84480349D01*
X68898831Y-83981347D01*
X68903479Y-83978127D01*
X69591323Y-83524085D01*
X69628671Y-83499432D01*
X69633456Y-83496425D01*
X69692149Y-83461358D01*
X70185835Y-83166395D01*
X70379430Y-83050728D01*
X70384348Y-83047938D01*
X71149528Y-82636177D01*
X71154566Y-82633610D01*
X71937463Y-82256586D01*
X71942569Y-82254266D01*
X72741631Y-81912730D01*
X72746858Y-81910634D01*
X73560429Y-81605296D01*
X73565766Y-81603429D01*
X73565772Y-81603427D01*
X74392190Y-81334908D01*
X74397573Y-81333292D01*
X74782957Y-81226932D01*
X75235214Y-81102117D01*
X75240697Y-81100735D01*
X76087886Y-80907370D01*
X76093426Y-80906236D01*
X76948393Y-80751082D01*
X76953978Y-80750197D01*
X77420415Y-80687014D01*
X77815081Y-80633553D01*
X77820675Y-80632922D01*
X78344595Y-80585769D01*
X78686173Y-80555027D01*
X78691814Y-80554647D01*
X79342603Y-80525420D01*
X79561686Y-80515581D01*
X79566621Y-80515456D01*
X80037810Y-80512794D01*
X80042252Y-80512132D01*
X80042255Y-80512132D01*
X80060752Y-80509376D01*
X80079319Y-80508000D01*
X165919231Y-80508000D01*
X165939319Y-80509612D01*
G37*
%TD.AperFunction*%
%TA.AperFunction,Conductor*%
G36*
X92976921Y-113398190D02*
G01*
X93000596Y-113421865D01*
X93037501Y-113510960D01*
X93037500Y-118531972D01*
X93000595Y-118621067D01*
X89108852Y-122512812D01*
X88526541Y-123095123D01*
X88464229Y-123129148D01*
X88393414Y-123124084D01*
X88336578Y-123081537D01*
X88311767Y-123015017D01*
X88314927Y-122976614D01*
X88366679Y-122761053D01*
X88368222Y-122751306D01*
X88387612Y-122504930D01*
X88387612Y-122495070D01*
X88368222Y-122248694D01*
X88366679Y-122238947D01*
X88308986Y-121998642D01*
X88305937Y-121989257D01*
X88211364Y-121760938D01*
X88206883Y-121752144D01*
X88080626Y-121546112D01*
X88072566Y-121540848D01*
X88062354Y-121546856D01*
X85808615Y-123800595D01*
X85719520Y-123837500D01*
X81368029Y-123837500D01*
X81278934Y-123800596D01*
X80546318Y-123067981D01*
X80301405Y-122823069D01*
X80264500Y-122733973D01*
X80264500Y-122495070D01*
X85112388Y-122495070D01*
X85112388Y-122504930D01*
X85131778Y-122751306D01*
X85133321Y-122761053D01*
X85191014Y-123001358D01*
X85194063Y-123010743D01*
X85288636Y-123239062D01*
X85293117Y-123247856D01*
X85419374Y-123453888D01*
X85427434Y-123459152D01*
X85437646Y-123453144D01*
X86377978Y-122512812D01*
X86385592Y-122498868D01*
X86385461Y-122497035D01*
X86381210Y-122490420D01*
X85439101Y-121548311D01*
X85425569Y-121540921D01*
X85420292Y-121544614D01*
X85293117Y-121752144D01*
X85288636Y-121760938D01*
X85194063Y-121989257D01*
X85191014Y-121998642D01*
X85133321Y-122238947D01*
X85131778Y-122248694D01*
X85112388Y-122495070D01*
X80264500Y-122495070D01*
X80264500Y-121478140D01*
X80284502Y-121410019D01*
X80338158Y-121363526D01*
X80441748Y-121363033D01*
X80485779Y-121382637D01*
X80498271Y-121386695D01*
X80670767Y-121423361D01*
X80683827Y-121424733D01*
X80860173Y-121424733D01*
X80873233Y-121423361D01*
X81045729Y-121386695D01*
X81058217Y-121382638D01*
X81219320Y-121310910D01*
X81230692Y-121304344D01*
X81332939Y-121230057D01*
X81399807Y-121206198D01*
X81481061Y-121230057D01*
X81588650Y-121308225D01*
X81594678Y-121310909D01*
X81594680Y-121310910D01*
X81599898Y-121313233D01*
X81761814Y-121385323D01*
X81854519Y-121405028D01*
X81940767Y-121423361D01*
X81940771Y-121423361D01*
X81947224Y-121424733D01*
X82136776Y-121424733D01*
X82143229Y-121423361D01*
X82143233Y-121423361D01*
X82254421Y-121399727D01*
X82322186Y-121385323D01*
X82322374Y-121386207D01*
X82387705Y-121384337D01*
X82459394Y-121434651D01*
X82544141Y-121557499D01*
X82691229Y-121698551D01*
X82696625Y-121701949D01*
X82858269Y-121803743D01*
X82858274Y-121803746D01*
X82863674Y-121807146D01*
X83054434Y-121878848D01*
X83060738Y-121879846D01*
X83060740Y-121879847D01*
X83155075Y-121894788D01*
X83255715Y-121910728D01*
X83459296Y-121901483D01*
X83465481Y-121899918D01*
X83650672Y-121853058D01*
X83650676Y-121853057D01*
X83656859Y-121851492D01*
X83748593Y-121807146D01*
X83834587Y-121765575D01*
X83834589Y-121765574D01*
X83840335Y-121762796D01*
X83845404Y-121758920D01*
X83845408Y-121758918D01*
X83997155Y-121642898D01*
X84002229Y-121639019D01*
X84135927Y-121485217D01*
X84235969Y-121307672D01*
X84298266Y-121113637D01*
X84309983Y-121005778D01*
X84319920Y-120914311D01*
X84319920Y-120914302D01*
X84320275Y-120911039D01*
X84320300Y-120904000D01*
X84318419Y-120885483D01*
X84315418Y-120855931D01*
X84328434Y-120786137D01*
X84377118Y-120734461D01*
X84440773Y-120717199D01*
X86153511Y-120717199D01*
X86221632Y-120737201D01*
X86268125Y-120790857D01*
X86278229Y-120861131D01*
X86248735Y-120925711D01*
X86201729Y-120959608D01*
X86010938Y-121038636D01*
X86002144Y-121043117D01*
X85796112Y-121169374D01*
X85790848Y-121177434D01*
X85796856Y-121187646D01*
X86737188Y-122127978D01*
X86751132Y-122135592D01*
X86752965Y-122135461D01*
X86759580Y-122131210D01*
X87701689Y-121189101D01*
X87709079Y-121175569D01*
X87705386Y-121170292D01*
X87497856Y-121043117D01*
X87489062Y-121038636D01*
X87298271Y-120959608D01*
X87242990Y-120915060D01*
X87220569Y-120847696D01*
X87238127Y-120778905D01*
X87290089Y-120730527D01*
X87346489Y-120717199D01*
X88079195Y-120717199D01*
X88098145Y-120718632D01*
X88111282Y-120720631D01*
X88111286Y-120720631D01*
X88118516Y-120721731D01*
X88125808Y-120721138D01*
X88125811Y-120721138D01*
X88169132Y-120717614D01*
X88179347Y-120717199D01*
X88188187Y-120717199D01*
X88196892Y-120716184D01*
X88218203Y-120713700D01*
X88222578Y-120713267D01*
X88252931Y-120710798D01*
X88295689Y-120707320D01*
X88302652Y-120705064D01*
X88308664Y-120703863D01*
X88314591Y-120702462D01*
X88321864Y-120701614D01*
X88390870Y-120676566D01*
X88395001Y-120675148D01*
X88464796Y-120652537D01*
X88471055Y-120648739D01*
X88476610Y-120646195D01*
X88482069Y-120643462D01*
X88488956Y-120640962D01*
X88550338Y-120600718D01*
X88554027Y-120598391D01*
X88585820Y-120579099D01*
X88611965Y-120563234D01*
X88611967Y-120563232D01*
X88616765Y-120560321D01*
X88620976Y-120556602D01*
X88626039Y-120552131D01*
X88628626Y-120549908D01*
X88631492Y-120547512D01*
X88637614Y-120543498D01*
X88686352Y-120492049D01*
X88688729Y-120489608D01*
X91812423Y-117365915D01*
X91826836Y-117353528D01*
X91837539Y-117345652D01*
X91837542Y-117345650D01*
X91843433Y-117341314D01*
X91876324Y-117302599D01*
X91883254Y-117295084D01*
X91889493Y-117288845D01*
X91908246Y-117265143D01*
X91911015Y-117261766D01*
X91953785Y-117211424D01*
X91953790Y-117211416D01*
X91958525Y-117205843D01*
X91961853Y-117199325D01*
X91965242Y-117194243D01*
X91968453Y-117189044D01*
X91972997Y-117183301D01*
X92004061Y-117116834D01*
X92005988Y-117112892D01*
X92036038Y-117054042D01*
X92039364Y-117047529D01*
X92041103Y-117040424D01*
X92043218Y-117034737D01*
X92045163Y-117028891D01*
X92048261Y-117022261D01*
X92052123Y-117003697D01*
X92063199Y-116950445D01*
X92064170Y-116946157D01*
X92080281Y-116880317D01*
X92080282Y-116880313D01*
X92081615Y-116874864D01*
X92082380Y-116862530D01*
X92082637Y-116859136D01*
X92082971Y-116855389D01*
X92084461Y-116848227D01*
X92082546Y-116777453D01*
X92082500Y-116774045D01*
X92082500Y-113844000D01*
X92102502Y-113775879D01*
X92156158Y-113729386D01*
X92208500Y-113718000D01*
X92320000Y-113718000D01*
X92533108Y-113671641D01*
X92633094Y-113607385D01*
X92648360Y-113597574D01*
X92648361Y-113597574D01*
X92655944Y-113592700D01*
X92685250Y-113558879D01*
X92745662Y-113489160D01*
X92745664Y-113489157D01*
X92751563Y-113482349D01*
X92755306Y-113474153D01*
X92755308Y-113474150D01*
X92773212Y-113434944D01*
X92819704Y-113381288D01*
X92887825Y-113361285D01*
X92976921Y-113398190D01*
G37*
%TD.AperFunction*%
%TA.AperFunction,Conductor*%
G36*
X88663000Y-113501001D02*
G01*
X88731121Y-113521003D01*
X88777614Y-113574659D01*
X88789000Y-113627001D01*
X88788999Y-115153937D01*
X88772118Y-115216937D01*
X88765475Y-115228443D01*
X88757024Y-115254452D01*
X88711098Y-115395800D01*
X88706461Y-115410070D01*
X88686499Y-115599997D01*
X88706461Y-115789924D01*
X88708501Y-115796202D01*
X88708501Y-115796203D01*
X88729880Y-115862000D01*
X88765475Y-115971551D01*
X88768778Y-115977273D01*
X88768779Y-115977274D01*
X88771120Y-115981328D01*
X88860962Y-116136939D01*
X88865380Y-116141846D01*
X88865381Y-116141847D01*
X88895079Y-116174830D01*
X88988748Y-116278860D01*
X88994090Y-116282741D01*
X88994092Y-116282743D01*
X89070899Y-116338546D01*
X89143249Y-116391111D01*
X89149277Y-116393795D01*
X89149279Y-116393796D01*
X89303591Y-116462500D01*
X89317712Y-116468787D01*
X89411112Y-116488640D01*
X89498055Y-116507121D01*
X89498060Y-116507121D01*
X89504512Y-116508493D01*
X89695486Y-116508493D01*
X89701938Y-116507121D01*
X89701943Y-116507121D01*
X89788886Y-116488640D01*
X89882286Y-116468787D01*
X89896407Y-116462500D01*
X90050719Y-116393796D01*
X90050721Y-116393795D01*
X90056749Y-116391111D01*
X90129099Y-116338546D01*
X90205906Y-116282743D01*
X90205908Y-116282741D01*
X90211250Y-116278860D01*
X90289289Y-116192189D01*
X90337864Y-116138241D01*
X90398310Y-116101001D01*
X90469294Y-116102353D01*
X90528278Y-116141866D01*
X90557500Y-116222551D01*
X90557500Y-116411972D01*
X90520595Y-116501067D01*
X87866370Y-119155294D01*
X87777275Y-119192199D01*
X87560618Y-119192199D01*
X87492497Y-119172197D01*
X87446004Y-119118541D01*
X87435900Y-119048267D01*
X87465394Y-118983687D01*
X87494783Y-118958766D01*
X87497856Y-118956883D01*
X87712792Y-118825170D01*
X87716552Y-118821958D01*
X87716557Y-118821955D01*
X87904479Y-118661454D01*
X87908241Y-118658241D01*
X87963477Y-118593568D01*
X88071955Y-118466557D01*
X88071958Y-118466552D01*
X88075170Y-118462792D01*
X88209469Y-118243636D01*
X88253265Y-118137905D01*
X88305937Y-118010743D01*
X88305938Y-118010741D01*
X88307831Y-118006170D01*
X88332121Y-117904996D01*
X88366679Y-117761053D01*
X88366680Y-117761047D01*
X88367834Y-117756240D01*
X88388000Y-117500000D01*
X88367834Y-117243760D01*
X88366680Y-117238953D01*
X88366679Y-117238947D01*
X88317583Y-117034450D01*
X88307831Y-116993830D01*
X88305937Y-116989257D01*
X88211364Y-116760938D01*
X88211362Y-116760934D01*
X88209469Y-116756364D01*
X88075170Y-116537208D01*
X88071958Y-116533448D01*
X88071955Y-116533443D01*
X87911454Y-116345521D01*
X87908241Y-116341759D01*
X87867034Y-116306565D01*
X87716557Y-116178045D01*
X87716552Y-116178042D01*
X87712792Y-116174830D01*
X87493636Y-116040531D01*
X87489066Y-116038638D01*
X87489062Y-116038636D01*
X87260743Y-115944063D01*
X87260741Y-115944062D01*
X87256170Y-115942169D01*
X87251363Y-115941015D01*
X87251351Y-115941011D01*
X87250820Y-115940884D01*
X87250639Y-115940780D01*
X87246647Y-115939483D01*
X87246919Y-115938645D01*
X87189250Y-115905534D01*
X87156566Y-115842508D01*
X87163144Y-115771817D01*
X87191136Y-115729269D01*
X87398749Y-115521657D01*
X87615502Y-115304904D01*
X87701585Y-115269247D01*
X87701529Y-115268722D01*
X87703318Y-115268530D01*
X87704597Y-115268000D01*
X87715000Y-115268000D01*
X87804631Y-115248502D01*
X87857564Y-115236987D01*
X87922732Y-115243991D01*
X87923628Y-115240938D01*
X87949386Y-115248502D01*
X88080554Y-115267361D01*
X88089495Y-115268000D01*
X88262885Y-115268000D01*
X88278124Y-115263525D01*
X88279329Y-115262135D01*
X88281000Y-115254452D01*
X88281001Y-113627000D01*
X88301003Y-113558879D01*
X88354659Y-113512386D01*
X88407001Y-113501000D01*
X88663000Y-113501001D01*
G37*
%TD.AperFunction*%
%TD*%
M02*
