M48
; DRILL file {KiCad (5.99.0-6632-gb710573c5)} date Tuesday, December 08, 2020 at 10:19:26 PM
; FORMAT={-:-/ absolute / inch / decimal}
; #@! TF.CreationDate,2020-12-08T22:19:26-05:00
; #@! TF.GenerationSoftware,Kicad,Pcbnew,(5.99.0-6632-gb710573c5)
; #@! TF.FileFunction,Plated,1,2,PTH
FMAT,2
INCH
T1C0.0157
T2C0.0354
T3C0.0394
T4C0.0402
T5C0.0433
T6C0.0512
T7C0.0591
T8C0.1673
%
G90
G05
T1
X3.0906Y-4.626
X3.1457Y-4.5787
X3.2559Y-4.626
X3.4331Y-4.3031
X3.4331Y-4.3661
X3.4803Y-4.4094
X3.5118Y-4.6142
X3.5276Y-4.5512
X3.5748Y-4.7087
X3.9843Y-3.8898
X4.0591Y-4.2323
X4.0709Y-3.8386
X5.9646Y-4.2362
X6.6142Y-3.7323
X6.7835Y-3.7717
T2
X3.3661Y-4.0354
T3
X5.1181Y-3.4319
X5.1181Y-3.5106
X5.1181Y-3.5894
X5.1181Y-3.6681
T4
X5.912Y-3.55
X5.912Y-4.1402
T5
X4.5472Y-3.4516
X4.5472Y-3.55
X4.5472Y-3.6484
T6
X4.0387Y-4.626
X4.0387Y-4.8228
X4.5308Y-4.626
X4.5308Y-4.8228
X2.9232Y-4.626
X2.9232Y-4.8228
X3.4154Y-4.626
X3.4154Y-4.8228
X6.2697Y-4.626
X6.2697Y-4.8228
X6.7618Y-4.626
X6.7618Y-4.8228
X5.1542Y-4.626
X5.1542Y-4.8228
X5.6463Y-4.626
X5.6463Y-4.8228
T8
X2.5591Y-4.16
X7.126Y-4.16
T7
G00X4.8307Y-3.3295
M15
G01X4.8543Y-3.3295
M16
G05
G00X4.8307Y-3.7705
M15
G01X4.8543Y-3.7705
M16
G05
T0
M30
